<?xml version="1.0" encoding="utf-8" ?><svg xmlns="http://www.w3.org/2000/svg" xmlns:xlink="http://www.w3.org/1999/xlink" width="787" height="787" viewBox="0 0 787 787"><path fill="#1C1C1C" transform="matrix(0.728704 0 0 0.728704 -6.10352e-05 -3.05176e-05)" d="M885.754 9.75862L1049.9 10.0471L1049.83 1070.4C1040.38 1069.32 1030.1 1070.07 1020.57 1070.1L964.958 1070.27L790.191 1070.42L193.799 1070.55L30.1728 1070.59C29.829 1055.81 30.1005 1040.96 30.0914 1026.17L30.1031 939.879L30.1986 711.38L30.1134 9.95723L885.754 9.75862ZM96.5254 1003.03L969.917 1003.02L983.389 1003.01L983.073 76.8763C937.221 76.0337 891.269 76.5988 845.407 76.5992L599.551 76.6394L111.659 76.7285L96.6689 76.9409L96.5254 1003.03Z"/><path fill="#1C1C1C" transform="matrix(0.728704 0 0 0.728704 -6.10352e-05 -3.05176e-05)" d="M671.127 155L777.433 155.044C795.664 155.054 813.932 155.347 832.158 155.056C838.195 154.96 844.195 154.105 850.224 153.968C857.803 153.796 865.287 155.363 872.933 155.068C872.469 185.376 873.486 215.738 872.748 246.033C873.782 271.762 872.304 297.629 873.183 323.386C883.206 318.836 893.473 314.841 903.936 311.42L903.926 345.046C903.928 351.76 903.662 358.623 904.207 365.314C893.701 369.505 883.228 373.774 872.787 378.122C872.797 391.698 871.897 484.961 873.922 489.623C875.81 493.972 878.766 498.155 881.223 502.225C885.843 509.97 890.42 517.74 894.954 525.536C897.592 530.047 900.689 534.656 902.748 539.466C903.41 540.8 903.703 541.828 903.808 543.321C904.788 557.209 903.951 571.684 903.956 585.64L903.984 669.669C894.723 674.572 884.615 678.129 874.857 681.928C862.754 686.689 850.621 691.376 838.461 695.988C846.268 699.482 854.338 702.341 862.147 705.824C876.109 711.474 890.132 717.097 903.896 723.213L904.075 854.642L904.138 892.261C904.144 898.124 904.726 904.746 903.93 910.512C904.119 916.381 903.849 922.333 904.198 928.181C896.022 928.156 887.733 928.424 879.571 928.056C872.127 928.513 864.406 928.11 856.931 928.098L812.498 928.042L681.445 927.893C670.017 927.226 658.876 927.714 647.452 927.752L589.564 927.841L475.336 927.844C467.076 927.815 458.863 926.859 450.613 926.91C443.649 926.953 436.747 927.986 429.817 928.089C417.741 927.746 405.577 928.032 393.492 928.044L207.113 928.117C206.776 911.66 206.253 892.091 207.224 875.757C206.768 864.795 207.096 853.707 207.097 842.732C207.1 814.88 207.556 786.931 206.905 759.09C196.571 763.006 186.367 767.318 176.083 771.369L175.839 716.509C186.474 713.039 196.775 708.561 207.229 704.583C206.729 698.631 207.666 692.776 207.675 686.833C207.686 678.853 207.087 670.845 207.038 662.848C206.975 652.588 208.183 598.275 206.306 592.89C204.796 588.56 201.614 584.196 199.257 580.267C192.702 569.339 181.854 553.399 177.018 542.433L176.673 541.64C174.883 533.236 176.177 513.076 176.182 503.508L176.044 411.995C197.084 402.697 219.034 394.756 240.499 386.45C232.038 382.065 222.662 378.744 213.871 375.008C201.45 369.73 188.912 363.877 176.195 359.379C175.911 346.86 176.136 334.292 176.18 321.769C175.852 303.132 176.159 284.435 176.158 265.793L176.074 155.032L355.588 154.104C365.156 154.084 374.75 153.94 384.315 154.137C391.101 154.276 397.835 154.948 404.637 154.973L650.083 154.958L671.127 155ZM741.924 367.436L742.02 375.239C754.384 369.401 767.31 364.711 780.054 359.782C779.674 345.259 779.976 330.652 779.967 316.12C779.954 293.957 779.788 271.781 780.035 249.62C779.708 236.053 779.952 222.435 779.986 208.863C774.566 208.595 769.314 207.856 763.854 207.928C756.595 208.024 749.336 209.115 742.082 208.929L742.014 315.664L742.046 350.022C742.044 355.701 742.46 361.803 741.924 367.436ZM427.921 372.851C421.238 375.753 414.485 378.489 407.667 381.056C405.07 383.021 401.985 384.182 399.197 385.834L399.138 452.006C399.14 463.41 399.488 474.932 399.063 486.317C398.179 477.408 398.816 467.885 398.816 458.92L398.791 406.281C398.779 399.889 399.547 392.859 398.939 386.568C398.831 385.444 398.231 384.87 397.538 384.048L396.918 383.324C397.186 381.765 397.923 380.814 398.904 379.588C405.996 370.724 418.459 364.043 427.91 357.831C489.373 317.428 569.588 288.974 642.775 282.074L648.508 280.793C649.211 269.688 648.969 258.619 649.167 247.504L650.225 171.623C649.786 166.14 650.081 160.465 650.083 154.958L404.637 154.973C397.835 154.948 391.101 154.276 384.315 154.137C374.75 153.94 365.156 154.084 355.588 154.104L176.074 155.032L176.158 265.793C176.159 284.435 175.852 303.132 176.18 321.769C176.136 334.292 175.911 346.86 176.195 359.379C188.912 363.877 201.45 369.73 213.871 375.008C222.662 378.744 232.038 382.065 240.499 386.45C219.034 394.756 197.084 402.697 176.044 411.995L176.182 503.508C176.177 513.076 174.883 533.236 176.673 541.64L324.377 542.229C344.261 542.24 364.108 540.951 384.014 541.401C386.646 541.46 389.701 541.247 392.068 542.526C397.17 539.814 402.613 537.887 407.691 535.041C412.427 532.778 418.275 530.564 422.304 527.219C423.765 525.891 425.685 525.466 427.527 524.886C428.462 487.813 427.75 450.554 427.743 413.465C427.741 399.947 427.445 386.356 427.921 372.851ZM520.969 409.403C533.775 403.165 546.649 396.635 558.856 389.293C559.029 366.571 559.057 343.848 558.94 321.126C550.256 324.101 541.745 327.603 533.265 331.113C528.909 332.916 524.464 335.182 519.957 336.491C519.964 348.458 519.872 360.44 520.054 372.405C520.136 377.769 520.68 383.139 520.626 388.501C521.618 395.105 520.985 402.691 520.969 409.403ZM664.089 680.629C672.067 675.283 675.951 664.629 680.594 656.449C680.464 653.276 680.165 650.001 680.38 646.836C680.829 649.875 680.95 652.854 681.044 655.919C683.888 650.399 687.575 640.556 693.26 637.617L694.626 637.67C695.504 638.702 695.684 639.243 695.596 640.622C694.829 652.641 682.966 663.78 681.088 675.53C681.047 675.781 680.997 676.031 680.954 676.282C680.929 676.433 680.908 676.584 680.885 676.735C676.658 679.093 672.644 695.721 662.444 692.672C657.097 691.073 656.601 684.669 653.029 682.798C651.564 685.835 652.148 704.832 652.579 708.954C651.114 707.254 651.796 689.134 651.807 685.4C646.737 690.167 638.993 697.544 631.484 697.268C629.191 697.184 626.721 696.338 625.222 694.514C624.578 693.73 624.085 692.822 623.555 691.961L622.956 691.008C618.689 693.629 611.125 699.358 606.012 698.271C604.281 697.903 603.089 697.011 602.242 695.482C599.852 691.165 600.689 684.701 600.821 679.91C594.072 689.104 585.324 707.9 572.688 709.402C570.62 709.647 568.738 708.955 567.207 707.569C565.289 705.834 564.421 702.189 562.118 701.206C560.851 702.018 560.489 702.511 560.112 703.997C559.184 707.658 559.798 712.588 559.892 716.394C559.457 712.01 559.617 707.553 559.634 703.151C559.255 703.478 558.87 703.797 558.478 704.109C554.145 707.617 547.771 713.057 541.777 712.154C540.095 711.917 538.592 710.977 537.642 709.569C534.416 704.727 536.763 697.613 537.953 692.449C531.673 697.53 526.577 704.329 520.628 709.876L520.659 716.821C517.926 717.351 515.985 718.728 513.597 720.048C508.587 725.914 498.139 730.463 491.827 735.951C488.079 739.253 484.49 742.733 481.074 746.377C478.422 749.242 476.381 752.881 473.164 755.05C475.724 757.065 478.327 758.897 479.781 761.913C482.377 764.519 484.948 767.15 487.493 769.806C489.098 770.17 490.463 770.455 491.88 771.349L491.97 772.273C491.107 772.908 490.54 773.046 489.486 773.207C487.686 775.543 488.098 778.587 486.716 781.068C482.537 788.572 467.82 791.592 460.169 792.574C449.822 793.902 440.475 794.072 430.627 797.913C430.83 806.112 430.427 814.386 430.404 822.596L429.686 904.583C429.892 912.417 429.936 920.253 429.817 928.089C436.747 927.986 443.649 926.953 450.613 926.91C458.863 926.859 467.076 927.815 475.336 927.844L589.564 927.841L647.452 927.752C658.876 927.714 670.017 927.226 681.445 927.893L812.498 928.042L856.931 928.098C864.406 928.11 872.127 928.513 879.571 928.056C887.733 928.424 896.022 928.156 904.198 928.181C903.849 922.333 904.119 916.381 903.93 910.512C904.726 904.746 904.144 898.124 904.138 892.261L904.075 854.642L903.896 723.213C890.132 717.097 876.109 711.474 862.147 705.824C854.338 702.341 846.268 699.482 838.461 695.988C850.621 691.376 862.754 686.689 874.857 681.928C884.615 678.129 894.723 674.572 903.984 669.669L903.956 585.64C903.951 571.684 904.788 557.209 903.808 543.321C903.703 541.828 903.41 540.8 902.748 539.466C901.315 540.628 899.917 540.67 898.095 540.828C883.827 542.064 868.936 541.488 854.605 541.549C841.637 541.603 828.342 542.266 815.407 541.637C808.542 541.076 801.429 541.647 794.524 541.696C784.151 541.713 773.779 541.647 763.407 541.498C740.774 541.214 718.14 541.064 695.506 541.048C681.244 540.987 667.008 540.702 652.748 541.128L651.477 541.108L650.884 541.974C651.251 543.233 651.55 544.957 652.112 546.114C651.251 554.31 651.807 563.056 651.823 571.306L651.925 617.928C652.508 632.325 651.549 646.894 652.542 661.254L652.956 661.469L653.117 660.877C653.534 659.401 653.746 658.408 654.97 657.376C656.323 657.111 657.276 656.999 658.538 657.724C661.263 659.288 662.331 662.799 662.89 665.685C663.843 670.603 663.311 675.683 664.089 680.629ZM650.944 373.296C651.042 385.986 651.391 398.831 650.834 411.51C658.621 407.631 667.081 404.707 675.175 401.511L713.725 386.369C701.416 379.92 687.808 375.053 675.021 369.566C666.923 366.426 658.971 363.184 651.082 359.548C650.986 364.13 650.941 368.713 650.944 373.296ZM586.157 310.399C600.528 315.814 614.68 321.972 628.855 327.885C635.471 330.645 642.08 333.673 648.868 335.981L649.645 334.91C649.977 320.898 649.719 306.836 649.679 292.819C649.616 291.669 649.672 290.21 649.372 289.109C648.988 287.704 648.382 287.59 647.19 287.003C644.318 287.005 640.9 288.804 638.203 289.847C620.999 296.839 603.088 302.835 586.157 310.399ZM410.956 715.316C417.122 716.453 423.557 719.511 429.023 722.52C429.58 705.066 429.141 687.512 429.249 670.04C419.405 674.749 409.209 678.852 399.119 683.006C391.508 686.139 383.853 689.52 376.03 692.08C377.837 696.513 405.268 712.648 410.956 715.316ZM430.837 767.981L430.866 768.488C431.758 774.876 431.327 781.789 431.382 788.246C435.692 787.765 440.007 787.262 444.341 787.063C449.199 786.841 454.84 787.36 459.514 786.062L459.871 785.548C464.96 782.557 470.854 780.692 476.353 778.581C477.384 778.032 477.655 777.932 478.298 776.909C478.213 776.249 478.139 775.625 477.904 774.997C475.421 768.37 463.266 758.608 456.749 756.041C448.252 754.756 438.71 749.096 430.617 745.928L430.295 747.724C430.489 747.857 430.681 747.993 430.878 748.122C434.306 750.359 439.055 749.825 441.954 753.234L441.875 754.278C438.585 756.515 434.38 755.391 430.669 755.017C430.839 759.326 431.136 763.675 430.837 767.981ZM521.069 440.736C533.635 438.782 546.408 438.55 559.036 440.047C559.112 426.2 559.039 412.352 558.817 398.507L557.96 398.046C547.608 404.39 532.046 412.811 521.029 417.824L521.069 440.736ZM319.037 660.033C319.259 659.417 319.523 658.848 319.341 658.174C318.093 653.556 314.746 648.512 313.349 643.179C308.746 625.594 315.783 610.453 324.599 595.619L323.923 594.917C316.002 594.883 308.067 594.945 300.147 594.795L300.118 667.878C306.362 665.115 312.67 662.5 319.037 660.033ZM338.421 652.512C337.082 633.462 340.075 614.352 338.464 595.415C337.738 595.213 337.195 594.79 336.526 595.268C330.832 599.346 322.792 621.818 322.21 629.259C321.633 636.639 325.643 648.612 330.329 654.173C330.984 654.366 331.622 654.59 332.3 654.68C334.266 653.812 336.384 653.203 338.421 652.512ZM559.483 695.643C558.754 686.969 559.145 678.003 559.125 669.288C559.067 644.119 560.275 619.069 560.187 593.915L520.962 593.948L520.954 655.49C520.954 664.799 519.903 675.375 521.36 684.512C522.566 685.092 523.286 685.859 523.753 687.119C524.162 688.221 524.385 689.417 524.656 690.559L525.191 692.791C529.559 688.536 535.618 682.239 542.177 682.273C543.878 682.281 545.355 682.796 546.63 683.953C548.446 685.6 548.881 688.637 548.83 690.946C548.739 695.093 547.312 698.988 545.831 702.814C550.88 701.15 554.659 697.584 559.483 695.643ZM780.255 487.097C779.843 477.995 780.815 417.639 779.563 414.999L778.576 414.892C766.562 420.353 754.234 425.104 742.017 430.086C742.054 435.915 741.5 485.295 742.045 487.065C742.155 487.421 742.452 487.688 742.655 487.999L743.63 488.02C749.858 488.016 756.137 488.118 762.359 487.842C768.332 487.577 774.269 486.848 780.255 487.097ZM299.64 874.265C312.457 874.178 325.275 874.157 338.093 874.201C337.605 853.989 338.04 833.658 338.04 813.434C338.039 795.518 337.545 777.496 338.079 759.597C337.727 742.127 338.105 724.648 337.917 707.177C325.118 712.107 312.041 716.779 299.581 722.516C299.721 730.789 299.785 739.062 299.773 747.336C299.782 751.224 300.213 755.726 299.584 759.525C300.553 772.339 299.77 785.788 299.755 798.665L299.64 874.265ZM558.932 446.679L558.279 446.736C546.447 447.672 533.2 445.645 521.708 447.332C520.958 448.392 520.964 448.975 520.837 450.192C520.766 450.83 520.699 451.468 520.636 452.107C520.571 464.186 519.281 476.242 520.573 488.292C527.037 488.044 534.45 487.181 540.774 488.725C540.977 488.733 541.181 488.768 541.384 488.751C542.834 488.628 557.615 485.982 558.152 485.569C558.434 485.352 558.595 485.013 558.816 484.734L558.932 446.679Z"/><defs><linearGradient id="gradient_0" gradientUnits="userSpaceOnUse" x1="564.19849" y1="622.44696" x2="768.9483" y2="845.70178"><stop offset="0" stop-color="#10A1CD"/><stop offset="1" stop-color="#2091DD"/></linearGradient></defs><path fill="url(#gradient_0)" transform="matrix(0.728704 0 0 0.728704 -6.10352e-05 -3.05176e-05)" d="M902.748 539.466C903.41 540.8 903.703 541.828 903.808 543.321C904.788 557.209 903.951 571.684 903.956 585.64L903.984 669.669C894.723 674.572 884.615 678.129 874.857 681.928C862.754 686.689 850.621 691.376 838.461 695.988C846.268 699.482 854.338 702.341 862.147 705.824C876.109 711.474 890.132 717.097 903.896 723.213L904.075 854.642L904.138 892.261C904.144 898.124 904.726 904.746 903.93 910.512C904.119 916.381 903.849 922.333 904.198 928.181C896.022 928.156 887.733 928.424 879.571 928.056C872.127 928.513 864.406 928.11 856.931 928.098L812.498 928.042L681.445 927.893C670.017 927.226 658.876 927.714 647.452 927.752L589.564 927.841L475.336 927.844C467.076 927.815 458.863 926.859 450.613 926.91C443.649 926.953 436.747 927.986 429.817 928.089C429.936 920.253 429.892 912.417 429.686 904.583L430.404 822.596C430.427 814.386 430.83 806.112 430.627 797.913C440.475 794.072 449.822 793.902 460.169 792.574C467.82 791.592 482.537 788.572 486.716 781.068C488.098 778.587 487.686 775.543 489.486 773.207C490.54 773.046 491.107 772.908 491.97 772.273L491.88 771.349C490.463 770.455 489.098 770.17 487.493 769.806C484.948 767.15 482.377 764.519 479.781 761.913C478.327 758.897 475.724 757.065 473.164 755.05C476.381 752.881 478.422 749.242 481.074 746.377C484.49 742.733 488.079 739.253 491.827 735.951C498.139 730.463 508.587 725.914 513.597 720.048C515.985 718.728 517.926 717.351 520.659 716.821C520.404 731.721 520.637 746.693 520.966 761.592C533.656 756.023 546.648 751.232 559.292 745.514C561.009 736.033 560.268 725.974 559.892 716.394C559.798 712.588 559.184 707.658 560.112 703.997C560.489 702.511 560.851 702.018 562.118 701.206C564.421 702.189 565.289 705.834 567.207 707.569C568.738 708.955 570.62 709.647 572.688 709.402C585.324 707.9 594.072 689.104 600.821 679.91C600.689 684.701 599.852 691.165 602.242 695.482C603.089 697.011 604.281 697.903 606.012 698.271C611.125 699.358 618.689 693.629 622.956 691.008L623.555 691.961C624.085 692.822 624.578 693.73 625.222 694.514C626.721 696.338 629.191 697.184 631.484 697.268C638.993 697.544 646.737 690.167 651.807 685.4C651.796 689.134 651.114 707.254 652.579 708.954C661.965 705.037 671.693 700.746 681.411 697.769C680.991 690.748 680.868 683.767 680.885 676.735C680.908 676.584 680.929 676.433 680.954 676.282C680.997 676.031 681.047 675.781 681.088 675.53C682.966 663.78 694.829 652.641 695.596 640.622C695.684 639.243 695.504 638.702 694.626 637.67L693.26 637.617C687.575 640.556 683.888 650.399 681.044 655.919C680.95 652.854 680.829 649.875 680.38 646.836C680.395 643.605 680.139 640.379 680.249 637.146C680.599 626.942 682.916 604.532 680.443 595.177C679.233 590.599 675.693 586.172 673.273 582.106C666.408 570.572 658.562 559.028 652.58 547.06L652.112 546.114C651.55 544.957 651.251 543.233 650.884 541.974L651.477 541.108L652.748 541.128C667.008 540.702 681.244 540.987 695.506 541.048C718.14 541.064 740.774 541.214 763.407 541.498C773.779 541.647 784.151 541.713 794.524 541.696C801.429 541.647 808.542 541.076 815.407 541.637C828.342 542.266 841.637 541.603 854.605 541.549C868.936 541.488 883.827 542.064 898.095 540.828C899.917 540.67 901.315 540.628 902.748 539.466ZM772.906 785.47L773.085 874.325C785.784 874.227 798.485 874.21 811.184 874.274C809.968 834.165 812.135 794.092 812.057 754.004L812.058 725.524C812.052 719.297 812.443 712.739 811.428 706.591C798.646 711.733 785.888 717.897 772.765 722.049C772.935 743.189 772.982 764.33 772.906 785.47ZM680.882 922.741C681.914 916.675 680.975 904.594 680.964 897.998L680.982 837.574C680.912 811.369 681.484 785.04 680.804 758.851C671.144 762.521 661.264 766.123 651.822 770.323L651.806 842.127C651.803 849.737 650.788 865.63 652.229 872.49C652.722 874.839 653.921 877.066 655.051 879.169C660.643 889.577 667.202 899.694 673.26 909.861C675.642 913.858 677.961 919.26 680.882 922.741ZM773.359 635.978C774.983 637.639 774.911 640.411 774.887 642.606C774.848 646.176 774.317 650.007 773.792 653.544C772.921 658.278 773.194 663.231 773.226 668.029C785.75 662.65 799.317 658.277 811.392 652.042C810.807 644.8 811.053 637.405 811.049 630.14L811.055 594.758C798.403 594.927 785.733 594.819 773.078 594.841C773.04 608.335 772.078 622.58 773.359 635.978ZM558.591 801.001C545.914 805.391 533.768 811.355 521.032 815.581C521.028 823.929 520.087 868.125 521.597 872.639C522.347 872.86 522.719 872.941 523.52 872.914C535.255 873.027 547.184 872.566 558.887 873.093C560.391 854.022 560.006 835.05 559.982 815.929C559.977 811.709 560.892 805.12 559.749 801.249C559.366 801.155 558.985 800.989 558.591 801.001Z"/><defs><linearGradient id="gradient_1" gradientUnits="userSpaceOnUse" x1="767.03101" y1="797.91888" x2="885.94806" y2="924.01642"><stop offset="0" stop-color="#3A69E7"/><stop offset="1" stop-color="#781EF2"/></linearGradient></defs><path fill="url(#gradient_1)" transform="matrix(0.728704 0 0 0.728704 -6.10352e-05 -3.05176e-05)" d="M862.147 705.824C876.109 711.474 890.132 717.097 903.896 723.213L904.075 854.642L904.138 892.261C904.144 898.124 904.726 904.746 903.93 910.512C904.119 916.381 903.849 922.333 904.198 928.181C896.022 928.156 887.733 928.424 879.571 928.056C872.127 928.513 864.406 928.11 856.931 928.098L812.498 928.042L681.445 927.893L681.966 927.57C682.238 925.983 681.393 924.263 680.882 922.741C681.914 916.675 680.975 904.594 680.964 897.998L680.982 837.574C683.156 841.745 679.284 872.34 681.747 877.63C683.063 877.906 683.716 878.057 684.847 877.193C687.193 875.403 689.291 872.844 691.496 870.831C697.589 865.266 703.705 859.776 709.677 854.078C726.835 837.706 743.871 820.993 761.615 805.251C764.016 803.121 767.028 802.241 769.444 800.335C773.074 797.471 772.618 789.653 772.906 785.47L773.085 874.325C785.784 874.227 798.485 874.21 811.184 874.274C809.968 834.165 812.135 794.092 812.057 754.004C819.385 753.353 847.514 723.606 856.064 716.769C857.852 715.34 859.969 714.186 861.942 713.028C861.757 710.529 861.791 708.306 862.147 705.824Z"/><path fill="#5B38E2" transform="matrix(0.728704 0 0 0.728704 -6.10352e-05 -3.05176e-05)" d="M879.571 928.056C881.187 926.927 883.343 927.059 884.655 925.626C884.585 924.742 884.334 923.283 884.688 922.461C886.779 917.596 900.885 910.133 902.191 904.304C902.509 902.886 902.044 904.008 902.754 902.622C903.622 904.317 903.111 907.644 903.255 909.675L903.93 910.512C904.119 916.381 903.849 922.333 904.198 928.181C896.022 928.156 887.733 928.424 879.571 928.056Z"/><path fill="#01BFC8" transform="matrix(0.728704 0 0 0.728704 -6.10352e-05 -3.05176e-05)" d="M652.748 541.128C667.008 540.702 681.244 540.987 695.506 541.048C718.14 541.064 740.774 541.214 763.407 541.498C773.779 541.647 784.151 541.713 794.524 541.696C801.429 541.647 808.542 541.076 815.407 541.637C809.701 542.535 803.225 542.119 797.44 542.193L762.407 542.55L698.355 542.619C685.653 542.638 672.689 543.156 660.011 542.455C657.526 542.317 655.145 541.766 652.748 541.128Z"/><path fill="#1C1C1C" transform="matrix(0.728704 0 0 0.728704 -6.10352e-05 -3.05176e-05)" d="M773.359 635.978C774.983 637.639 774.911 640.411 774.887 642.606C774.848 646.176 774.317 650.007 773.792 653.544C773.393 652.246 773.192 651.102 772.046 650.252C771.145 650.222 770.306 650.193 769.418 650.011C768.507 649.824 768.482 649.374 767.981 648.642C767.951 647.678 767.999 646.576 767.815 645.634C767.515 644.094 767.046 643.969 765.829 643.101C753.874 641.428 744.746 675.334 738.114 677.857C736.237 677.595 734.866 676.402 733.353 675.344C730.026 676.616 725.32 679.154 721.691 678.129C718.465 677.218 717.007 673.479 715.603 670.771C711.228 676.39 706.437 681.418 699.598 683.983C696.924 684.986 693.181 686.136 690.472 684.628C688.643 683.609 687.556 681.453 687.252 679.443C686.273 672.957 691.853 664.522 695.656 659.616C700.418 653.472 708.517 645.197 716.671 644.422C718.708 644.228 720.424 644.621 721.966 646.041C723.445 647.403 724.013 648.78 724.032 650.784C723.374 651.916 723.27 652.262 721.995 652.757C719.734 653.635 717.133 652.068 715.072 651.177C708.466 654.432 704.678 659.313 701.233 665.635C699.724 668.405 696.522 673.647 697.468 676.805L698.416 677.214C707.522 675.181 710.439 660.624 719.294 657.251C720.585 656.759 721.224 656.851 722.463 657.358C725.559 661.59 722.349 667.081 724.608 670.931C725.219 671.973 725.866 672.551 727.072 672.658C739.358 673.755 741.468 643.788 747.199 639.612C748.345 638.777 749.042 638.713 750.418 638.831C752.308 639.667 753.171 641.033 754.381 642.656C759.182 640 764.662 637.009 770.245 636.651C771.441 636.575 772.24 636.491 773.359 635.978Z"/><defs><linearGradient id="gradient_2" gradientUnits="userSpaceOnUse" x1="502.44629" y1="437.75909" x2="283.10071" y2="217.33623"><stop offset="0" stop-color="#00C5C8"/><stop offset="1" stop-color="#3F65E7"/></linearGradient></defs><path fill="url(#gradient_2)" transform="matrix(0.728704 0 0 0.728704 -6.10352e-05 -3.05176e-05)" d="M176.074 155.032L355.588 154.104C365.156 154.084 374.75 153.94 384.315 154.137C391.101 154.276 397.835 154.948 404.637 154.973L650.083 154.958C650.081 160.465 649.786 166.14 650.225 171.623L649.167 247.504C648.969 258.619 649.211 269.688 648.508 280.793L642.775 282.074C569.588 288.974 489.373 317.428 427.91 357.831C418.459 364.043 405.996 370.724 398.904 379.588C397.923 380.814 397.186 381.765 396.918 383.324L397.538 384.048C398.231 384.87 398.831 385.444 398.939 386.568C399.547 392.859 398.779 399.889 398.791 406.281L398.816 458.92C398.816 467.885 398.179 477.408 399.063 486.317C400.046 492.478 411.852 506.905 415.206 514.166C417.484 518.533 419.626 523.083 422.304 527.219C418.275 530.564 412.427 532.778 407.691 535.041C402.613 537.887 397.17 539.814 392.068 542.526C389.701 541.247 386.646 541.46 384.014 541.401C364.108 540.951 344.261 542.24 324.377 542.229L176.673 541.64C174.883 533.236 176.177 513.076 176.182 503.508L176.044 411.995C197.084 402.697 219.034 394.756 240.499 386.45C232.038 382.065 222.662 378.744 213.871 375.008C201.45 369.73 188.912 363.877 176.195 359.379C175.911 346.86 176.136 334.292 176.18 321.769C175.852 303.132 176.159 284.435 176.158 265.793L176.074 155.032ZM268.908 208.919C269.02 219.158 267.821 229.299 267.907 239.569C267.906 261.76 267.541 284.016 267.967 306.199C268.076 311.874 268.648 317.529 268.814 323.202C269.118 333.567 268.946 343.995 268.951 354.366C268.955 361.197 269.662 368.872 267.958 375.494C281.091 370.606 293.731 364.503 307.044 359.969C306.578 344.624 307.792 211.162 306.853 209.583C306.684 209.299 306.407 209.094 306.185 208.85L303.22 208.83L268.908 208.919ZM306.8 414.479C293.762 419.729 280.759 425.063 267.791 430.481C269.624 441.702 267.947 452.886 267.964 464.178C267.976 472.203 268.917 480.166 269.003 488.155C275.676 488.163 282.417 488.313 289.082 487.995C295.178 487.704 301.182 486.976 307.299 487.197C306.595 470.095 307.062 452.831 307.043 435.711C307.035 428.924 307.758 421.13 306.8 414.479ZM428.215 311.805L428.177 246.015C428.182 237.002 429.302 215.175 427.359 208.107C426.345 204.419 402.332 163.765 399.074 160.114C398.432 168.788 398.799 177.702 398.79 186.404L398.748 232.504L398.761 291.541C398.799 302.222 398.549 313.059 399.134 323.72C405.619 320.801 412.128 317.901 418.842 315.538L428.215 311.805ZM519.926 282.441C529.274 277.846 539.342 274.458 548.989 270.518L559.346 266.32C558.631 259.393 559.025 252.156 559.036 245.189L559.064 208.828C545.999 208.835 532.913 208.679 519.852 208.868L519.926 282.441Z"/><defs><linearGradient id="gradient_3" gradientUnits="userSpaceOnUse" x1="267.24994" y1="238.87701" x2="183.98944" y2="149.74022"><stop offset="0" stop-color="#4E4CEC"/><stop offset="1" stop-color="#811AF2"/></linearGradient></defs><path fill="url(#gradient_3)" transform="matrix(0.728704 0 0 0.728704 -6.10352e-05 -3.05176e-05)" d="M176.074 155.032L355.588 154.104L355.984 155.013C355.419 155.905 354.922 156.377 354.056 156.933C346.752 161.625 340.767 169.594 334.408 175.651C324.613 184.981 314.278 193.847 304.575 203.231C303.589 204.185 302.835 204.861 302.412 206.207C302.698 207.08 302.975 207.943 303.22 208.83L268.908 208.919C269.02 219.158 267.821 229.299 267.907 239.569C266.281 239.687 265.769 239.639 264.454 240.672C257.613 246.045 251.386 253.462 245.119 259.546C236.526 267.89 181.817 320.356 176.18 321.769C175.852 303.132 176.159 284.435 176.158 265.793L176.074 155.032Z"/><path fill="#01BFC8" transform="matrix(0.728704 0 0 0.728704 -6.10352e-05 -3.05176e-05)" d="M407.691 535.041C406.162 535.177 404.887 535.457 403.576 534.606C405.976 531.547 408.309 528.176 411.207 525.577C411.445 525.765 411.687 525.947 411.92 526.14C412.154 526.335 412.378 526.541 412.608 526.742C413.074 526.155 413.551 525.578 413.925 524.925C414.992 523.065 415.539 520.667 414.976 518.568C414.408 516.449 414.189 516.103 415.206 514.166C417.484 518.533 419.626 523.083 422.304 527.219C418.275 530.564 412.427 532.778 407.691 535.041Z"/><defs><linearGradient id="gradient_4" gradientUnits="userSpaceOnUse" x1="174.59824" y1="546.53546" x2="337.04132" y2="742.30725"><stop offset="0" stop-color="#00E4C2"/><stop offset="1" stop-color="#3371E1"/></linearGradient></defs><path fill="url(#gradient_4)" transform="matrix(0.728704 0 0 0.728704 -6.10352e-05 -3.05176e-05)" d="M176.673 541.64L324.377 542.229C344.261 542.24 364.108 540.951 384.014 541.401C386.646 541.46 389.701 541.247 392.068 542.526C373.892 553.601 356.815 563.98 341.298 578.746C338.521 581.388 328.083 593.985 325.848 594.709C325.234 594.908 324.565 594.848 323.923 594.917C316.002 594.883 308.067 594.945 300.147 594.795L300.118 667.878C306.362 665.115 312.67 662.5 319.037 660.033C321.066 660.107 321.664 660.635 323.036 662.105C326.774 666.108 330.144 670.412 334.112 674.198C348.529 687.95 366.182 698.103 382.931 708.681C395.428 716.265 450.563 748.297 456.749 756.041C448.252 754.756 438.71 749.096 430.617 745.928L430.295 747.724C430.14 747.869 430.005 748.037 429.831 748.158C427.345 749.885 415.753 750.017 411.738 751.036C401.318 753.679 385.409 765.005 382.481 775.853C381.731 778.633 382.018 781.58 383.502 784.071C386.442 789.008 393.117 791.659 398.525 792.833C406.702 794.608 423.238 792.671 429.402 795.845L430.627 797.913C430.83 806.112 430.427 814.386 430.404 822.596L429.686 904.583C429.892 912.417 429.936 920.253 429.817 928.089C417.741 927.746 405.577 928.032 393.492 928.044L207.113 928.117C206.776 911.66 206.253 892.091 207.224 875.757C206.768 864.795 207.096 853.707 207.097 842.732C207.1 814.88 207.556 786.931 206.905 759.09C196.571 763.006 186.367 767.318 176.083 771.369L175.839 716.509C186.474 713.039 196.775 708.561 207.229 704.583C206.729 698.631 207.666 692.776 207.675 686.833C207.686 678.853 207.087 670.845 207.038 662.848C206.975 652.588 208.183 598.275 206.306 592.89C204.796 588.56 201.614 584.196 199.257 580.267C192.702 569.339 181.854 553.399 177.018 542.433L176.673 541.64ZM299.584 759.525C300.553 772.339 299.77 785.788 299.755 798.665L299.64 874.265C312.457 874.178 325.275 874.157 338.093 874.201C337.605 853.989 338.04 833.658 338.04 813.434C338.039 795.518 337.545 777.496 338.079 759.597C337.727 742.127 338.105 724.648 337.917 707.177C325.118 712.107 312.041 716.779 299.581 722.516C299.721 730.789 299.785 739.062 299.773 747.336C299.782 751.224 300.213 755.726 299.584 759.525Z"/><defs><linearGradient id="gradient_5" gradientUnits="userSpaceOnUse" x1="282.20105" y1="783.9942" x2="402.65894" y2="922.54932"><stop offset="0" stop-color="#3270E1"/><stop offset="1" stop-color="#7621F3"/></linearGradient></defs><path fill="url(#gradient_5)" transform="matrix(0.728704 0 0 0.728704 -6.10352e-05 -3.05176e-05)" d="M338.079 759.597C338.994 752.521 338.826 745.46 339.384 738.372L339.58 739.293L340.347 739.747C341.939 737.691 343.776 735.907 345.729 734.199C348.927 731.402 378.334 707.714 378.965 707.577C380.034 708.208 380.825 708.785 382.106 708.736C382.382 708.725 382.656 708.699 382.931 708.681C395.428 716.265 450.563 748.297 456.749 756.041C448.252 754.756 438.71 749.096 430.617 745.928L430.295 747.724C430.14 747.869 430.005 748.037 429.831 748.158C427.345 749.885 415.753 750.017 411.738 751.036C401.318 753.679 385.409 765.005 382.481 775.853C381.731 778.633 382.018 781.58 383.502 784.071C386.442 789.008 393.117 791.659 398.525 792.833C406.702 794.608 423.238 792.671 429.402 795.845L430.627 797.913C430.83 806.112 430.427 814.386 430.404 822.596L429.686 904.583C429.892 912.417 429.936 920.253 429.817 928.089C417.741 927.746 405.577 928.032 393.492 928.044L207.113 928.117C206.776 911.66 206.253 892.091 207.224 875.757C210.133 868.718 205.464 855.312 208.758 849.694C212.692 842.984 222.203 837.717 228.154 832.853C237.51 825.207 296.409 777.441 298.64 771.583C299.867 768.361 297.871 763.784 299.224 760.344C299.333 760.067 299.464 759.798 299.584 759.525C300.553 772.339 299.77 785.788 299.755 798.665L299.64 874.265C312.457 874.178 325.275 874.157 338.093 874.201C337.605 853.989 338.04 833.658 338.04 813.434C338.039 795.518 337.545 777.496 338.079 759.597Z"/><path fill="#5B38E2" transform="matrix(0.728704 0 0 0.728704 -6.10352e-05 -3.05176e-05)" d="M393.492 928.044C394.415 927.424 394.974 927.113 396.083 926.882C397.078 926.675 397.837 926.443 398.772 926.056C398.805 925.912 398.836 925.768 398.871 925.625C398.929 925.387 398.996 925.151 399.052 924.912C399.429 923.297 399.616 922.303 400.883 921.152C406.86 915.724 412.835 910.17 419.053 905.023C422.014 902.571 425.475 900.735 428.2 898.032C428.313 897.92 428.422 897.805 428.533 897.692C428.478 899.605 428.307 902.185 429.263 903.886C429.396 904.123 429.545 904.351 429.686 904.583C429.892 912.417 429.936 920.253 429.817 928.089C417.741 927.746 405.577 928.032 393.492 928.044Z"/><defs><linearGradient id="gradient_6" gradientUnits="userSpaceOnUse" x1="909.28613" y1="531.24481" x2="721.54327" y2="321.98523"><stop offset="0" stop-color="#00E4BF"/><stop offset="1" stop-color="#4362E4"/></linearGradient></defs><path fill="url(#gradient_6)" transform="matrix(0.728704 0 0 0.728704 -6.10352e-05 -3.05176e-05)" d="M780.035 249.62C782.004 255.77 781.205 264.214 781.278 270.754C782.138 269.841 781.785 270.135 782.724 269.426C782.933 269.268 783.146 269.117 783.357 268.962C783.737 267.839 784.142 266.558 785.007 265.71C789.033 261.765 793.998 258.3 798.243 254.507L837.718 219.155C843.945 213.627 850.098 208.015 856.174 202.322C860.132 198.576 863.973 194.32 868.336 191.055C869.544 191.697 870.695 192.431 871.858 193.151C872.874 205.566 872.119 218.539 872.178 231.044C872.201 235.781 871.842 240.851 872.65 245.523C872.68 245.693 872.715 245.863 872.748 246.033C873.782 271.762 872.304 297.629 873.183 323.386C883.206 318.836 893.473 314.841 903.936 311.42L903.926 345.046C903.928 351.76 903.662 358.623 904.207 365.314C893.701 369.505 883.228 373.774 872.787 378.122C872.797 391.698 871.897 484.961 873.922 489.623C875.81 493.972 878.766 498.155 881.223 502.225C885.843 509.97 890.42 517.74 894.954 525.536C897.592 530.047 900.689 534.656 902.748 539.466C901.315 540.628 899.917 540.67 898.095 540.828C883.827 542.064 868.936 541.488 854.605 541.549C841.637 541.603 828.342 542.266 815.407 541.637C808.542 541.076 801.429 541.647 794.524 541.696C784.151 541.713 773.779 541.647 763.407 541.498C740.774 541.214 718.14 541.064 695.506 541.048C681.244 540.987 667.008 540.702 652.748 541.128L651.477 541.108L650.884 541.974L650.484 539.061L650.07 534.249C698.834 526.835 747.795 520.783 796.897 516.099C811.5 514.687 826.118 513.432 840.748 512.336C848.42 511.813 860.564 512.097 867.604 510.302C869.145 509.91 870.36 509.346 871.232 507.957L870.68 507.054C858.543 502.61 731.495 517.459 711.644 519.894C691.128 522.493 670.633 525.261 650.162 528.199L650.112 481.039C661.012 481.713 685.725 484.387 694.253 490.343C696.783 492.11 698.877 495.02 701.185 497.114C702.303 498.127 703.94 498.978 705.508 498.719C706.89 498.491 707.152 498.287 707.963 497.258C708.453 494.311 707.291 491.715 705.573 489.349C699.012 480.309 678.28 478.355 667.549 476.48C677.021 468.021 682.633 455.15 694.182 449.365C693.901 454.193 690.913 462.302 693.59 466.695C694.4 468.024 695.323 468.746 696.822 469.176C700.565 470.249 705.907 467.232 709.039 465.286C715.405 461.33 724.076 454.363 725.818 446.812C722.791 444.93 708.63 460.493 703.394 460.819C698.64 457.549 705.01 447.101 702.47 442.013C701.802 440.674 701.428 440.551 700.131 439.978C692.567 440.15 684.022 448.334 678.477 453.008C678.677 450.502 679.316 447.418 678.439 444.998C677.947 443.641 677.846 443.499 676.603 442.987C670.514 444.887 668.145 457.111 664.199 461.907C660.316 466.627 655.574 470.31 650.525 473.692C650.265 469.85 650.364 465.929 650.311 462.075C652.398 460.068 654.449 457.499 655.507 454.78C656.232 452.914 656.474 450.746 655.494 448.916C654.408 446.886 652.399 446.178 650.363 445.437C649.538 434.965 648.463 421.788 650.834 411.51C658.621 407.631 667.081 404.707 675.175 401.511L713.725 386.369C701.416 379.92 687.808 375.053 675.021 369.566L674.771 367.336C677.116 364.202 679.411 361.154 682.242 358.43C687.101 353.752 692.451 349.424 697.49 344.923C708.503 335.119 719.417 325.205 730.23 315.182C732.372 313.187 735.465 309.211 737.99 308.046C738.497 308.803 738.386 308.474 738.555 309.351C738.593 309.553 738.62 309.758 738.653 309.961L739.6 309.885L740.441 309.806C742.428 317.308 741.215 348.114 741.283 357.575C741.301 360.135 740.835 364.722 741.707 367.011C741.763 367.16 741.852 367.295 741.924 367.436L742.02 375.239C754.384 369.401 767.31 364.711 780.054 359.782C779.674 345.259 779.976 330.652 779.967 316.12C779.954 293.957 779.788 271.781 780.035 249.62ZM742.017 430.086C742.054 435.915 741.5 485.295 742.045 487.065C742.155 487.421 742.452 487.688 742.655 487.999L743.63 488.02C749.858 488.016 756.137 488.118 762.359 487.842C768.332 487.577 774.269 486.848 780.255 487.097C779.843 477.995 780.815 417.639 779.563 414.999L778.576 414.892C766.562 420.353 754.234 425.104 742.017 430.086Z"/><defs><linearGradient id="gradient_7" gradientUnits="userSpaceOnUse" x1="610.28442" y1="714.07141" x2="469.71503" y2="562.85114"><stop offset="0" stop-color="#257CD5"/><stop offset="1" stop-color="#662EED"/></linearGradient></defs><path fill="url(#gradient_7)" transform="matrix(0.728704 0 0 0.728704 -6.10352e-05 -3.05176e-05)" d="M616.347 539.606C626.837 536.456 639.182 535.745 650.07 534.249L650.484 539.061L650.884 541.974C651.251 543.233 651.55 544.957 652.112 546.114C651.251 554.31 651.807 563.056 651.823 571.306L651.925 617.928C652.508 632.325 651.549 646.894 652.542 661.254L652.956 661.469L653.117 660.877C653.534 659.401 653.746 658.408 654.97 657.376C656.323 657.111 657.276 656.999 658.538 657.724C661.263 659.288 662.331 662.799 662.89 665.685C663.843 670.603 663.311 675.683 664.089 680.629C672.067 675.283 675.951 664.629 680.594 656.449C680.464 653.276 680.165 650.001 680.38 646.836C680.829 649.875 680.95 652.854 681.044 655.919C683.888 650.399 687.575 640.556 693.26 637.617L694.626 637.67C695.504 638.702 695.684 639.243 695.596 640.622C694.829 652.641 682.966 663.78 681.088 675.53C681.047 675.781 680.997 676.031 680.954 676.282C680.929 676.433 680.908 676.584 680.885 676.735C676.658 679.093 672.644 695.721 662.444 692.672C657.097 691.073 656.601 684.669 653.029 682.798C651.564 685.835 652.148 704.832 652.579 708.954C651.114 707.254 651.796 689.134 651.807 685.4C646.737 690.167 638.993 697.544 631.484 697.268C629.191 697.184 626.721 696.338 625.222 694.514C624.578 693.73 624.085 692.822 623.555 691.961L622.956 691.008C618.689 693.629 611.125 699.358 606.012 698.271C604.281 697.903 603.089 697.011 602.242 695.482C599.852 691.165 600.689 684.701 600.821 679.91C594.072 689.104 585.324 707.9 572.688 709.402C570.62 709.647 568.738 708.955 567.207 707.569C565.289 705.834 564.421 702.189 562.118 701.206C560.851 702.018 560.489 702.511 560.112 703.997C559.184 707.658 559.798 712.588 559.892 716.394C559.457 712.01 559.617 707.553 559.634 703.151C559.255 703.478 558.87 703.797 558.478 704.109C554.145 707.617 547.771 713.057 541.777 712.154C540.095 711.917 538.592 710.977 537.642 709.569C534.416 704.727 536.763 697.613 537.953 692.449C531.673 697.53 526.577 704.329 520.628 709.876L520.659 716.821C517.926 717.351 515.985 718.728 513.597 720.048C508.587 725.914 498.139 730.463 491.827 735.951C488.079 739.253 484.49 742.733 481.074 746.377C478.422 749.242 476.381 752.881 473.164 755.05C475.724 757.065 478.327 758.897 479.781 761.913C471.57 755.116 462.985 748.783 454.067 742.944C444.868 737.027 415.978 721.054 410.956 715.316C417.122 716.453 423.557 719.511 429.023 722.52C429.58 705.066 429.141 687.512 429.249 670.04C431.46 659.442 430.149 646.803 429.976 635.992C429.789 623.374 429.737 610.755 429.819 598.136C448.896 591.067 467.839 583.615 486.131 574.672C497.386 569.169 508.202 561.58 520.013 557.443C527.519 554.814 535.527 553.697 543.299 552.078C567.581 547.019 591.927 543.755 616.347 539.606ZM521.36 684.512C522.566 685.092 523.286 685.859 523.753 687.119C524.162 688.221 524.385 689.417 524.656 690.559L525.191 692.791C529.559 688.536 535.618 682.239 542.177 682.273C543.878 682.281 545.355 682.796 546.63 683.953C548.446 685.6 548.881 688.637 548.83 690.946C548.739 695.093 547.312 698.988 545.831 702.814C550.88 701.15 554.659 697.584 559.483 695.643C558.754 686.969 559.145 678.003 559.125 669.288C559.067 644.119 560.275 619.069 560.187 593.915L520.962 593.948L520.954 655.49C520.954 664.799 519.903 675.375 521.36 684.512Z"/><path fill="#1C1C1C" transform="matrix(0.728704 0 0 0.728704 -6.10352e-05 -3.05176e-05)" d="M597.015 666.908C600.602 659.805 602.827 651.966 605.325 644.426L615.836 612.58C617.188 608.496 619.436 598.752 623.71 597.195C625.042 596.71 625.99 596.929 627.23 597.471C628.193 598.756 628.423 599.275 628.334 600.899C627.993 607.138 624.916 614.467 623.303 620.54C619.992 633.016 607.096 680.754 609.752 689.99C610.807 691.059 610.822 691.135 612.302 691.321C622.467 686.064 623.475 677.029 629.672 669.339C631.169 667.482 632.411 666.365 634.773 666.16C637.662 672.641 630.024 681.593 632.569 688.519C633.619 689.429 633.797 689.697 635.273 689.568C640.41 689.117 648.916 680.128 651.875 676.145C652.486 656.759 651.373 637.325 651.925 617.928C652.508 632.325 651.549 646.894 652.542 661.254L652.956 661.469L653.117 660.877C653.534 659.401 653.746 658.408 654.97 657.376C656.323 657.111 657.276 656.999 658.538 657.724C661.263 659.288 662.331 662.799 662.89 665.685C663.843 670.603 663.311 675.683 664.089 680.629C672.067 675.283 675.951 664.629 680.594 656.449C680.464 653.276 680.165 650.001 680.38 646.836C680.829 649.875 680.95 652.854 681.044 655.919C683.888 650.399 687.575 640.556 693.26 637.617L694.626 637.67C695.504 638.702 695.684 639.243 695.596 640.622C694.829 652.641 682.966 663.78 681.088 675.53C681.047 675.781 680.997 676.031 680.954 676.282C680.929 676.433 680.908 676.584 680.885 676.735C676.658 679.093 672.644 695.721 662.444 692.672C657.097 691.073 656.601 684.669 653.029 682.798C651.564 685.835 652.148 704.832 652.579 708.954C651.114 707.254 651.796 689.134 651.807 685.4C646.737 690.167 638.993 697.544 631.484 697.268C629.191 697.184 626.721 696.338 625.222 694.514C624.578 693.73 624.085 692.822 623.555 691.961L622.956 691.008C618.689 693.629 611.125 699.358 606.012 698.271C604.281 697.903 603.089 697.011 602.242 695.482C599.852 691.165 600.689 684.701 600.821 679.91C594.072 689.104 585.324 707.9 572.688 709.402C570.62 709.647 568.738 708.955 567.207 707.569C565.289 705.834 564.421 702.189 562.118 701.206C560.851 702.018 560.489 702.511 560.112 703.997C559.184 707.658 559.798 712.588 559.892 716.394C559.457 712.01 559.617 707.553 559.634 703.151C559.255 703.478 558.87 703.797 558.478 704.109C554.145 707.617 547.771 713.057 541.777 712.154C540.095 711.917 538.592 710.977 537.642 709.569C534.416 704.727 536.763 697.613 537.953 692.449C531.673 697.53 526.577 704.329 520.628 709.876L520.659 716.821C517.926 717.351 515.985 718.728 513.597 720.048C512.463 719.605 511.324 719.55 510.122 719.41C508.859 718.344 507.691 717.114 506.504 715.962C502.666 717.935 497.913 720.821 493.446 719.537C489.836 718.5 488.464 715.505 486.911 712.427C481.938 718.478 474.323 726.665 465.92 727.202C463.962 727.328 462.367 726.785 460.963 725.357C459.21 723.575 458.666 720.96 458.822 718.55C459.441 709.019 467.72 699.12 474.562 693.087C478.403 689.7 483.894 685.561 489.277 686.113C491.183 686.309 493.905 687.813 494.877 689.516C495.569 690.728 495.528 691.097 495.248 692.367C494.525 693.154 493.954 693.7 492.926 694.02C490.733 694.703 489.263 693.791 487.347 692.805L486.692 692.462C480.266 696.372 475.213 701.284 471.716 708.015C470.417 710.515 468.155 715.491 469.063 718.292C476.45 718.493 485.42 699.436 492.095 698.162C498.102 700.682 493.129 708.352 495.925 712.673C496.707 713.882 497.582 714.112 498.899 714.404C508.542 712.339 512.182 695.709 516.67 688.859C517.796 687.139 519.906 685.971 521.36 684.512C522.566 685.092 523.286 685.859 523.753 687.119C524.162 688.221 524.385 689.417 524.656 690.559L525.191 692.791C529.559 688.536 535.618 682.239 542.177 682.273C543.878 682.281 545.355 682.796 546.63 683.953C548.446 685.6 548.881 688.637 548.83 690.946C548.739 695.093 547.312 698.988 545.831 702.814C550.88 701.15 554.659 697.584 559.483 695.643C565.887 690.517 566.372 682.791 571.174 676.756C577.046 669.375 588.237 667.837 597.015 666.908Z"/><path fill="#4153D7" transform="matrix(0.728704 0 0 0.728704 -6.10352e-05 -3.05176e-05)" d="M510.122 719.41C514.881 716.925 516.672 713.057 520.628 709.876L520.659 716.821C517.926 717.351 515.985 718.728 513.597 720.048C512.463 719.605 511.324 719.55 510.122 719.41Z"/><path fill="#2377C7" transform="matrix(0.728704 0 0 0.728704 -6.10352e-05 -3.05176e-05)" d="M587.84 672.273C588.681 672.373 589.952 672.465 590.705 672.823C591.991 673.434 592.406 674.181 592.638 675.55C593.64 681.468 579.958 697.917 575.921 702.086C575.511 702.266 575 702.526 574.547 702.546C573.048 702.615 572.52 702.105 571.528 701.169C570.3 697.764 570.993 694.171 571.976 690.775C574.502 682.051 579.977 676.455 587.84 672.273Z"/><path fill="#5B38E2" transform="matrix(0.728704 0 0 0.728704 -6.10352e-05 -3.05176e-05)" d="M616.347 539.606C626.837 536.456 639.182 535.745 650.07 534.249L650.484 539.061L649.875 540.542C643.915 542.66 623.596 542.448 617.375 540.183C616.872 540 616.738 539.878 616.347 539.606Z"/><path fill="#1C1C1C" transform="matrix(0.728704 0 0 0.728704 -6.10352e-05 -3.05176e-05)" d="M639.246 642.112C640.517 642.319 641.721 642.67 642.476 643.825C643.14 644.841 643.217 646.233 643.075 647.411C642.557 651.734 639.5 655.461 636.32 658.168C635.775 658.251 634.956 658.172 634.397 658.164C633.381 657.301 633.069 656.885 633.04 655.504C632.94 650.86 636.318 645.438 639.246 642.112Z"/><defs><linearGradient id="gradient_8" gradientUnits="userSpaceOnUse" x1="733.19342" y1="316.74072" x2="626.96997" y2="198.2876"><stop offset="0" stop-color="#3E63E4"/><stop offset="1" stop-color="#7720F4"/></linearGradient></defs><path fill="url(#gradient_8)" transform="matrix(0.728704 0 0 0.728704 -6.10352e-05 -3.05176e-05)" d="M671.127 155L777.433 155.044C795.664 155.054 813.932 155.347 832.158 155.056C838.195 154.96 844.195 154.105 850.224 153.968C857.803 153.796 865.287 155.363 872.933 155.068C872.469 185.376 873.486 215.738 872.748 246.033C872.715 245.863 872.68 245.693 872.65 245.523C871.842 240.851 872.201 235.781 872.178 231.044C872.119 218.539 872.874 205.566 871.858 193.151C870.695 192.431 869.544 191.697 868.336 191.055C863.973 194.32 860.132 198.576 856.174 202.322C850.098 208.015 843.945 213.627 837.718 219.155L798.243 254.507C793.998 258.3 789.033 261.765 785.007 265.71C784.142 266.558 783.737 267.839 783.357 268.962C783.146 269.117 782.933 269.268 782.724 269.426C781.785 270.135 782.138 269.841 781.278 270.754C781.205 264.214 782.004 255.77 780.035 249.62C779.708 236.053 779.952 222.435 779.986 208.863C774.566 208.595 769.314 207.856 763.854 207.928C756.595 208.024 749.336 209.115 742.082 208.929L742.014 315.664L742.046 350.022C742.044 355.701 742.46 361.803 741.924 367.436C741.852 367.295 741.763 367.16 741.707 367.011C740.835 364.722 741.301 360.135 741.283 357.575C741.215 348.114 742.428 317.308 740.441 309.806L739.6 309.885L738.653 309.961C738.62 309.758 738.593 309.553 738.555 309.351C738.386 308.474 738.497 308.803 737.99 308.046C735.465 309.211 732.372 313.187 730.23 315.182C719.417 325.205 708.503 335.119 697.49 344.923C692.451 349.424 687.101 353.752 682.242 358.43C679.411 361.154 677.116 364.202 674.771 367.336L675.021 369.566C666.923 366.426 658.971 363.184 651.082 359.548C650.986 364.13 650.941 368.713 650.944 373.296C650.843 373.404 650.741 373.512 650.641 373.622C648.574 375.899 647.216 378.724 645.078 380.909C640.809 385.271 635.666 389.046 631.026 393.024C622.431 400.398 614.087 408.059 606.01 415.996C603.744 418.226 601.153 420.158 598.999 422.494C595.269 426.54 591.748 431.451 588.804 436.09C587.841 437.607 587.039 439.779 585.941 441.099C585.29 441.882 584.323 442.283 583.414 442.681C575.473 441.05 567.11 440.788 559.036 440.047C559.112 426.2 559.039 412.352 558.817 398.507C559.615 396.418 562.599 394.985 564.463 393.866C571.921 389.391 579.794 385.524 587.391 381.284C605.538 371.166 623.392 360.533 640.931 349.397C654.904 340.487 669.311 331.118 681.538 319.854C686.854 314.958 693.009 308.248 693.139 300.591C693.2 296.942 691.683 293.639 689.085 291.105C678.54 280.822 656.363 281.97 642.775 282.074L648.508 280.793C649.211 269.688 648.969 258.619 649.167 247.504L650.225 171.623C649.786 166.14 650.081 160.465 650.083 154.958L671.127 155Z"/><path fill="#5B38E2" transform="matrix(0.728704 0 0 0.728704 -6.10352e-05 -3.05176e-05)" d="M650.083 154.958L671.127 155L668.945 155.643C671.594 157.286 679.573 156.381 682.973 156.352C681.603 156.555 679.741 156.663 678.557 157.415C672.209 161.449 666.364 169.213 660.083 173.794C657.295 175.827 654.627 174.467 651.667 176.882C650.637 176.044 650.574 172.993 650.225 171.623C649.786 166.14 650.081 160.465 650.083 154.958Z"/><defs><linearGradient id="gradient_9" gradientUnits="userSpaceOnUse" x1="460.31027" y1="330.22968" x2="551.43835" y2="426.47491"><stop offset="0" stop-color="#1795D2"/><stop offset="1" stop-color="#4556E4"/></linearGradient></defs><path fill="url(#gradient_9)" transform="matrix(0.728704 0 0 0.728704 -6.10352e-05 -3.05176e-05)" d="M407.667 381.056C410.218 375.849 421.805 368.639 426.921 365.186C481.052 329.249 541.822 304.497 605.657 292.385C615.377 290.536 628.163 286.855 637.89 288.731L638.203 289.847C620.999 296.839 603.088 302.835 586.157 310.399C600.528 315.814 614.68 321.972 628.855 327.885C635.471 330.645 642.08 333.673 648.868 335.981C640.634 342.682 563.875 390.014 558.988 389.346C558.941 389.34 558.9 389.311 558.856 389.293C559.029 366.571 559.057 343.848 558.94 321.126C550.256 324.101 541.745 327.603 533.265 331.113C528.909 332.916 524.464 335.182 519.957 336.491C519.964 348.458 519.872 360.44 520.054 372.405C520.136 377.769 520.68 383.139 520.626 388.501C520.48 395.986 520.472 403.474 520.603 410.961C510.893 416.622 500.858 422.941 490.159 426.5C492.534 415.175 509.417 370.298 507.615 362.847C507.285 361.482 506.821 361.426 505.673 360.79C500.811 360.581 499.371 363.779 498.166 367.886C494.587 380.087 481.705 428.523 475.361 434.909C470.453 439.848 463.106 441.412 457.739 445.682C455.319 447.607 453.987 449.555 453.672 452.645C455.959 457.638 465.155 452.746 469.525 455.155C470.156 456.309 470.26 456.555 470.1 457.905C469.076 466.545 465.713 475.42 463.304 483.78C460.344 494.051 457.732 504.436 455.024 514.775C445.943 518.061 436.988 521.77 428.001 525.308C428.518 492.348 428.156 459.336 428.16 426.37L428.176 392.726C428.182 386.158 428.514 379.392 427.921 372.851C421.238 375.753 414.485 378.489 407.667 381.056Z"/><defs><linearGradient id="gradient_10" gradientUnits="userSpaceOnUse" x1="357.00848" y1="574.4787" x2="436.31943" y2="661.25372"><stop offset="0" stop-color="#1199C5"/><stop offset="1" stop-color="#376DE8"/></linearGradient></defs><path fill="url(#gradient_10)" transform="matrix(0.728704 0 0 0.728704 -6.10352e-05 -3.05176e-05)" d="M428.844 539.231C429.655 541.357 429.374 543.649 429.719 545.868C429.724 555.064 429.525 564.313 429.856 573.501C415.633 576.986 363.84 591.941 356.112 603.948C355.38 605.085 354.893 606.44 355.139 607.807C355.431 609.434 356.594 610.6 358.001 611.342C371.303 618.351 415.05 603.091 429.819 598.136C429.737 610.755 429.789 623.374 429.976 635.992C430.149 646.803 431.46 659.442 429.249 670.04C419.405 674.749 409.209 678.852 399.119 683.006C391.508 686.139 383.853 689.52 376.03 692.08L374.129 692.617C369.278 691.734 363.459 687.123 359.511 684.283C354.163 680.436 331.868 662.429 330.784 655.872L332.3 654.68C334.266 653.812 336.384 653.203 338.421 652.512C337.082 633.462 340.075 614.352 338.464 595.415C338.3 594.723 338.288 594.002 338.231 593.294C340.426 588.667 344.866 584.706 348.568 581.27C367.243 563.934 390.139 550.103 413.319 539.726C413.863 540.184 413.822 540.19 414.553 540.581C417.894 542.367 425.096 541.807 428.532 540.637L428.844 539.231Z"/><path fill="#5B38E2" transform="matrix(0.728704 0 0 0.728704 -6.10352e-05 -3.05176e-05)" d="M462.263 519.352C472.837 514.891 483.915 511.384 494.857 507.947C527.73 497.553 561.388 489.83 595.504 484.853C578.518 507.241 558.137 524.004 534.887 539.571C527.402 544.583 519.735 550.085 511.077 552.864C502.719 555.546 493.86 557.125 485.289 559.026C466.74 563.138 447.765 567.114 429.856 573.501C429.525 564.313 429.724 555.064 429.719 545.868C429.788 544.254 429.927 542.72 430.156 541.121C433.74 539.756 443.74 540.757 448.077 540.84C447.233 543.823 445.845 547.276 447.165 550.286C448.295 551.265 448.377 551.483 449.844 551.584C455.083 548.638 457.5 537.108 459.048 531.573C460.172 527.513 461.244 523.439 462.263 519.352Z"/><path fill="#5B38E2" transform="matrix(0.728704 0 0 0.728704 -6.10352e-05 -3.05176e-05)" d="M606.671 483.218C621.27 481.265 635.529 482.092 650.112 481.039L650.162 528.199C627.234 532.41 604.042 535.59 581.022 539.306C569.79 541.118 558.564 543.823 547.311 545.321C545.288 545.591 542.509 546.098 540.627 545.252C541.446 541.943 555.906 533.177 559.233 530.698C577.667 516.961 593.363 502.066 606.671 483.218Z"/><path fill="#5B38E2" transform="matrix(0.728704 0 0 0.728704 -6.10352e-05 -3.05176e-05)" d="M650.944 373.296C651.042 385.986 651.391 398.831 650.834 411.51C648.463 421.788 649.538 434.965 650.363 445.437C641.945 447.165 633.712 450.231 628.364 457.381C623.906 463.341 623.554 469.674 624.509 476.756C619.405 477.288 614.299 477.601 609.178 477.904C609.966 475.854 610.724 473.809 611.242 471.67C612.574 466.167 612.479 460.405 609.314 455.524C603.785 446.996 592.627 444.665 583.414 442.681C584.323 442.283 585.29 441.882 585.941 441.099C587.039 439.779 587.841 437.607 588.804 436.09C591.748 431.451 595.269 426.54 598.999 422.494C601.153 420.158 603.744 418.226 606.01 415.996C614.087 408.059 622.431 400.398 631.026 393.024C635.666 389.046 640.809 385.271 645.078 380.909C647.216 378.724 648.574 375.899 650.641 373.622C650.741 373.512 650.843 373.404 650.944 373.296Z"/><path fill="#5B38E2" transform="matrix(0.728704 0 0 0.728704 -6.10352e-05 -3.05176e-05)" d="M649.679 292.819C649.823 291.248 649.705 289.441 650.609 288.148C658.542 286.963 671.803 289.12 678.315 294.077C680.8 295.968 682.591 298.533 682.836 301.71C683.218 306.648 679.999 311.228 676.815 314.7C670.686 321.383 658.222 331.997 649.645 334.91C649.977 320.898 649.719 306.836 649.679 292.819Z"/><path fill="#5B38E2" transform="matrix(0.728704 0 0 0.728704 -6.10352e-05 -3.05176e-05)" d="M430.688 788.226C420.947 788.53 402.39 789.555 394.914 782.57C393.319 781.08 392.239 779.142 392.189 776.929C392.094 772.657 395.251 768.963 398.136 766.138C407.403 757.064 417.482 753.949 430.242 754.089C430.189 758.673 430.051 763.458 430.837 767.981L430.866 768.488C430.255 774.919 430.685 781.75 430.688 788.226Z"/><path fill="#4153D7" transform="matrix(0.728704 0 0 0.728704 -6.10352e-05 -3.05176e-05)" d="M428.75 538.315C428.849 536.269 428.481 533.726 430.029 532.267C434.62 527.937 446.662 524.636 452.875 522.612C451.311 528.697 449.712 534.773 448.077 540.84C443.74 540.757 433.74 539.756 430.156 541.121C429.927 542.72 429.788 544.254 429.719 545.868C429.374 543.649 429.655 541.357 428.844 539.231L428.75 538.315Z"/><path fill="#5B38E2" transform="matrix(0.728704 0 0 0.728704 -6.10352e-05 -3.05176e-05)" d="M650.525 473.692C647.548 475.073 644.373 475.97 641.08 476.11C638.178 476.233 633.781 474.968 631.787 472.742C630.823 471.666 630.859 471.373 630.91 470.022C633.986 464.86 644.384 464.861 649.698 462.37L650.311 462.075C650.364 465.929 650.265 469.85 650.525 473.692Z"/><path fill="#01BFC8" transform="matrix(0.728704 0 0 0.728704 -6.10352e-05 -3.05176e-05)" d="M425.651 533.889C426.65 535.39 427.696 536.852 428.75 538.315L428.844 539.231L428.532 540.637C425.096 541.807 417.894 542.367 414.553 540.581C413.822 540.19 413.863 540.184 413.319 539.726C417.324 537.521 421.465 535.713 425.651 533.889Z"/><path fill="#2377C7" transform="matrix(0.728704 0 0 0.728704 -6.10352e-05 -3.05176e-05)" d="M476.353 778.581L477.361 778.851C477.225 780.22 476.618 780.715 475.549 781.515C471.488 784.554 466.177 785.925 461.19 786.144L459.871 785.548C464.96 782.557 470.854 780.692 476.353 778.581Z"/><path fill="#4153D7" transform="matrix(0.728704 0 0 0.728704 -6.10352e-05 -3.05176e-05)" d="M482.57 451.873C491.615 449.938 511.222 446.378 519.916 447.558C520.79 449.036 520.596 450.428 520.636 452.107C520.571 464.186 519.281 476.242 520.573 488.292C527.037 488.044 534.45 487.181 540.774 488.725C537.397 491.091 501.807 499.62 495.352 501.492C485.057 504.564 474.812 507.804 464.623 511.209L473.855 478.299C476.356 469.335 478.506 460.294 482.57 451.873Z"/><path fill="#5B38E2" transform="matrix(0.728704 0 0 0.728704 -6.10352e-05 -3.05176e-05)" d="M558.932 446.679C570.547 446.653 587.921 447.745 596.838 456.296C599.949 459.28 601.684 463.086 601.712 467.409C601.74 471.594 600.25 475.38 598.624 479.15C593.266 479.968 561.967 485.667 559.796 485.242C559.435 485.172 559.143 484.904 558.816 484.734L558.932 446.679Z"/><path fill="#2377C7" transform="matrix(0.728704 0 0 0.728704 -6.10352e-05 -3.05176e-05)" d="M430.209 591.648C418.649 596.286 382.317 608.728 371.092 605.391C369.921 605.043 369.819 605.034 369.189 603.94C369.256 603.751 369.299 603.552 369.39 603.373C373.189 595.909 419.638 582.494 429.732 579.317C429.729 583.392 429.504 587.627 430.209 591.648Z"/><path fill="#4153D7" transform="matrix(0.728704 0 0 0.728704 -6.10352e-05 -3.05176e-05)" d="M519.625 418.703L519.9 418.798C521.411 420.651 520.61 437.694 520.587 441.242C509.353 442.756 498.022 444.993 486.666 444.987C486.333 444.758 485.829 444.442 485.59 444.12C484.82 443.075 484.902 442.067 485.224 440.879C487.149 433.776 512.866 422.042 519.625 418.703Z"/><path fill="#5B38E2" transform="matrix(0.728704 0 0 0.728704 -6.10352e-05 -3.05176e-05)" d="M429.732 579.317C449.369 573.821 469.915 566.717 490.16 564.329C478.628 574.313 445.319 586.551 430.209 591.648C429.504 587.627 429.729 583.392 429.732 579.317Z"/><path fill="#5B38E2" transform="matrix(0.728704 0 0 0.728704 -6.10352e-05 -3.05176e-05)" d="M645.116 451.277C646.364 451.412 647.011 452.088 647.963 452.84C648.201 453.97 648.354 454.348 647.825 455.439C646.307 458.568 642.534 460.221 639.476 461.342C638.554 461.204 637.72 460.96 636.825 460.702C635.951 459.596 635.92 459.688 636.082 458.297C638.241 454.913 641.71 453.173 645.116 451.277Z"/><path fill="#2377C7" transform="matrix(0.728704 0 0 0.728704 -6.10352e-05 -3.05176e-05)" d="M662.502 471.335C662.628 471.475 662.784 471.594 662.881 471.756C663.647 473.048 663.741 474.195 663.283 475.535C661.537 476.526 660.733 476.293 658.76 476.222L658.223 475.406C659.126 473.651 660.96 472.518 662.502 471.335Z"/></svg>