<?xml version="1.0" encoding="utf-8" ?><svg xmlns="http://www.w3.org/2000/svg" xmlns:xlink="http://www.w3.org/1999/xlink" width="787" height="787" viewBox="0 0 787 787"><path fill="#1B1B1B" transform="matrix(0.728704 0 0 0.728704 -6.10352e-05 -3.05176e-05)" d="M30.1558 10.4373L1049.86 10.393L1049.89 1069.66C1028.15 1069.23 1006.34 1069.55 984.594 1069.55L863.083 1069.55L499.735 1069.56L189.773 1069.56L86.9988 1069.55C68.0853 1069.55 49.0981 1069.17 30.1948 1069.69L30.1558 10.4373ZM983.36 1003.6C984.715 999.888 983.819 965.051 983.819 957.626L983.818 840.931L983.809 330.675L983.806 162.743L983.806 107.32C983.806 97.055 983.546 86.6973 983.925 76.4426L96.1978 76.45L96.2471 649.5L96.2537 881.899C96.2546 922.446 96.7607 963.063 96.1793 1003.6L983.36 1003.6Z"/><defs><linearGradient id="gradient_0" gradientUnits="userSpaceOnUse" x1="918.89355" y1="524.15991" x2="694.41412" y2="273.8457"><stop offset="0" stop-color="#00E4C1"/><stop offset="1" stop-color="#4F49E9"/></linearGradient></defs><path fill="url(#gradient_0)" transform="matrix(0.728704 0 0 0.728704 -6.10352e-05 -3.05176e-05)" d="M862.553 155.083C865.715 155.024 868.881 154.921 872.043 154.973C873.649 171.441 872.097 188.506 872.106 205.076L872.129 324.422C882.235 319.756 892.879 316.291 903.101 311.891C903.894 329.582 903.241 347.418 903.375 365.132C893.063 369.464 882.419 373.054 872.194 377.578L872.25 488.756C882.45 505.457 892.567 522.348 902.127 539.424C902.928 540.295 903.038 540.7 903.202 541.916C903.987 547.747 903.453 554.225 903.444 560.13C903.431 569.419 903.661 578.792 903.359 588.072C903.343 588.456 903.325 588.84 903.302 589.224C904.106 616.012 903.264 642.958 903.468 669.768C887.847 676.622 871.742 682.584 855.887 688.884C849.782 691.31 843.296 693.47 837.382 696.301C845.057 698.915 852.529 702.3 860.019 705.4L903.095 723.227C903.78 731.624 903.442 740.195 903.433 748.62L903.417 790.199L903.49 927.518L754.266 927.437C730.404 927.433 706.408 927.971 682.56 927.372C671.672 926.468 657.292 927.364 646.009 927.365L566.861 927.347L477.525 927.226C461.751 927.192 445.463 926.353 429.751 927.423C418.906 927.755 407.961 927.456 397.108 927.459L331.409 927.463C290.206 927.461 248.846 928.205 207.661 927.338C208.368 905.491 207.714 883.5 207.893 861.63C207.135 848.976 207.822 835.86 207.819 823.162C207.814 801.523 207.551 779.847 207.939 758.213C197.446 761.812 187.084 766.343 176.727 770.37C175.812 752.776 176.339 734.577 176.677 716.952C187.018 713.418 197.198 709.113 207.37 705.108C208.808 691.032 207.651 673.362 207.522 658.901C207.329 637.27 207.703 615.621 207.754 593.985C202.843 585.138 197.407 576.522 192.247 567.814C189.87 563.801 186.787 559.438 185.27 555.033C185.454 552.162 180.301 545.507 178.637 542.647C182.328 541.791 187.432 542.606 191.292 542.543C206.934 542.226 222.58 542.087 238.226 542.126L393.391 541.44C387.288 539.797 347.661 541.249 338.275 541.252C284.434 540.879 230.592 540.848 176.75 541.158C175.719 527.078 176.588 512.356 176.595 498.224L176.648 412.386L242.345 386.245C232.755 382.213 222.848 378.661 213.462 374.185C209.408 373.167 205.206 370.98 201.316 369.364L176.743 359.095C175.742 340.217 176.627 320.789 176.625 301.857C176.621 252.962 177.525 203.882 176.437 155.007L318.134 154.976C344.753 154.965 371.651 154.171 398.241 155.115L557.791 155.201L616.789 155.236C627.836 155.241 639.068 155.65 650.091 155.042L794.368 154.997L840.188 154.963C847.48 154.956 855.326 154.381 862.553 155.083ZM741.26 222.544L741.333 322.663L741.343 355.809C741.347 362.642 741.659 369.656 741.042 376.46C752.411 370.616 767.933 365.446 780.133 360.608C781.263 346.122 780.532 331.111 780.533 316.575L780.533 247.919C780.533 234.853 780.257 221.722 780.676 208.663C775.535 207.261 748.069 208.03 741.39 208.442C741.295 213.142 741.252 217.843 741.26 222.544ZM650.691 366.276C650.823 375.957 650.868 385.638 650.823 395.32C650.822 400.898 651.15 406.796 650.495 412.337C656.701 409.211 663.668 406.923 670.132 404.341C685.256 398.301 700.496 392.488 715.529 386.227C694.243 376.767 672.32 368.354 650.788 359.445C650.793 361.723 650.76 364 650.691 366.276ZM299.605 874.3L338.873 874.281C337.921 860.83 338.754 846.735 338.758 833.231L338.78 750.096C338.717 735.447 338.732 720.798 338.825 706.15C325.879 711.321 312.067 715.917 299.583 722.05C299.524 738.664 300.333 755.665 299.425 772.22C299.788 782.241 299.514 792.359 299.519 802.395C299.532 826.357 299.274 850.34 299.605 874.3ZM650.253 445.491C649.319 445.664 648.386 445.847 647.455 446.04C639.339 447.736 631.603 451.881 627.081 459.075C623.61 464.598 623.116 470.415 624.531 476.634C619.477 477.288 614.333 477.506 609.249 477.872C610.223 475.509 611.171 472.932 611.684 470.422C612.796 464.983 612.422 459.626 609.162 454.969C602.58 445.565 588.895 443.644 578.467 441.706C572.133 441.513 565.804 440.447 559.425 440.265L559.459 397.109C568.152 391.319 578.102 386.609 587.214 381.423C609.168 368.927 680.754 328.292 690.815 308.841C692.842 304.922 694.053 300.34 692.453 296.05C690.518 290.86 685.85 288.407 681.143 286.204C660.003 278.735 635.359 282.688 613.695 285.798L614.003 284.896C622.141 282.75 643.665 282.717 648.614 280.56C649.453 271.626 648.774 262.419 649.059 253.425C649.955 220.638 650.299 187.84 650.091 155.042C639.068 155.65 627.836 155.241 616.789 155.236L557.791 155.201L398.241 155.115C371.651 154.171 344.753 154.965 318.134 154.976L176.437 155.007C177.525 203.882 176.621 252.962 176.625 301.857C176.627 320.789 175.742 340.217 176.743 359.095L201.316 369.364C205.206 370.98 209.408 373.167 213.462 374.185C222.848 378.661 232.755 382.213 242.345 386.245L176.648 412.386L176.595 498.224C176.588 512.356 175.719 527.078 176.75 541.158C230.592 540.848 284.434 540.879 338.275 541.252C347.661 541.249 387.288 539.797 393.391 541.44L393.737 541.675C387.241 545.744 380.465 549.35 373.969 553.421C355.877 564.761 340.66 578.074 326.828 594.355C317.716 594.297 308.605 594.29 299.494 594.335L299.534 668.665C302.726 667.31 306.09 666.017 309.118 664.323C313.078 663.655 317.353 661.365 321.097 659.853C325.45 664.776 329.516 669.865 334.296 674.408C348.657 688.056 366.649 698.271 383.277 708.867C402.392 720.617 421.742 731.992 440.524 744.273C445.497 747.525 452.122 750.994 456.275 755.195L456.15 755.966C447.45 752.348 438.729 748.777 429.99 745.255C429.921 746.541 430.1 747.652 429.363 748.732C424.557 749.297 419.533 749.321 414.799 750.22C404.464 752.182 392.909 760.299 386.496 768.486C383.869 771.839 381.333 776.096 382.02 780.529C382.518 783.743 384.675 786.481 387.304 788.284C397.942 795.581 415.115 793.447 427.405 795.036C428.53 795.181 429.632 794.976 429.975 796.282C430.077 796.672 430.123 797.637 430.151 798.06C429.572 804.878 429.833 811.841 429.861 818.681L429.934 850.677C429.92 875.438 429.052 900.502 429.935 925.234L429.751 927.423C445.463 926.353 461.751 927.192 477.525 927.226L566.861 927.347L646.009 927.365C657.292 927.364 671.672 926.468 682.56 927.372C706.408 927.971 730.404 927.433 754.266 927.437L903.49 927.518L903.417 790.199L903.433 748.62C903.442 740.195 903.78 731.624 903.095 723.227L860.019 705.4C852.529 702.3 845.057 698.915 837.382 696.301C843.296 693.47 849.782 691.31 855.887 688.884C871.742 682.584 887.847 676.622 903.468 669.768C903.264 642.958 904.106 616.012 903.302 589.224C903.325 588.84 903.343 588.456 903.359 588.072C903.661 578.792 903.431 569.419 903.444 560.13C903.453 554.225 903.987 547.747 903.202 541.916C903.038 540.7 902.928 540.295 902.127 539.424L901.741 540.495C894.087 539.975 886.23 540.807 878.543 540.845L822.186 541.087L692.513 541.055C684.182 541.072 656.028 540.007 650.929 541.707L650.334 540.874C650.125 538.686 650.103 536.46 650.007 534.264C698.218 526.866 746.633 520.86 795.19 516.253C811.268 514.68 827.36 513.263 843.465 512.004C849.376 511.553 864.499 511.393 869.291 509.831C870.616 509.399 871.105 508.747 871.77 507.591L871.392 506.634C864.23 502.815 724.712 518.37 707.037 520.494C688.025 522.88 669.038 525.463 650.08 528.244L650.065 480.955C664.622 482.043 679.407 483.437 692.825 489.609C697.531 491.774 699.151 496.31 703.261 498.493C704.524 499.164 705.037 499.034 706.325 498.557C707.036 497.623 707.455 496.897 707.732 495.741C708.172 493.903 707.98 492.254 706.95 490.645C700.479 480.547 677.793 478.591 667.166 476.555C677.325 469.927 681.746 455.202 693.433 449.682L694.04 450.246C694.273 454.423 692.458 458.504 692.61 462.726C692.683 464.757 693.38 467.141 695.086 468.407C696.712 469.613 699.125 469.427 700.983 468.979C709.229 466.99 720.532 457.391 724.862 450.173C725.687 448.797 726.223 447.608 725.806 445.984L724.769 445.791C721.817 447.23 719.446 449.869 716.956 451.993C713.692 454.777 707.344 461.06 702.765 460.703C698.879 457.134 705.375 447.528 702.745 442.438C702.187 441.358 701.584 440.757 700.341 440.573C693.257 439.525 683.312 449.133 678.252 453.304C678.675 450.792 679.461 447.797 678.63 445.314C678.18 443.97 677.942 443.499 676.659 442.898C670.734 444.325 669.685 454.159 666.604 458.594C662.19 464.948 656.804 469.927 650.211 473.914L650.136 462.122C652.415 460.049 654.563 457.448 655.632 454.523C656.32 452.639 656.498 450.466 655.447 448.672C654.259 446.645 652.349 446.135 650.253 445.491ZM779.819 414.009C767.019 419.421 753.996 424.289 741.181 429.666C741.458 449.101 741.587 468.653 741.226 488.084C754.271 487.835 767.318 488.061 780.364 487.894C780.505 480.281 781.147 416.069 780.476 414.726C780.331 414.436 780.038 414.248 779.819 414.009Z"/><defs><linearGradient id="gradient_1" gradientUnits="userSpaceOnUse" x1="560.52612" y1="435.46573" x2="528.38531" y2="410.056"><stop offset="0" stop-color="black" stop-opacity="0"/><stop offset="1" stop-color="black" stop-opacity="0.043137256"/></linearGradient></defs><path fill="url(#gradient_1)" transform="matrix(0.728704 0 0 0.728704 -6.10352e-05 -3.05176e-05)" d="M559.459 397.109L559.425 440.265C546.388 439.468 533.113 440.093 520.12 441.341C520.206 433.719 520.379 426.088 520.097 418.47L559.459 397.109Z"/><defs><linearGradient id="gradient_2" gradientUnits="userSpaceOnUse" x1="432.94946" y1="788.28784" x2="461.33472" y2="758.16376"><stop offset="0" stop-color="black" stop-opacity="0"/><stop offset="1" stop-color="black" stop-opacity="0.11372549"/></linearGradient></defs><path fill="url(#gradient_2)" transform="matrix(0.728704 0 0 0.728704 -6.10352e-05 -3.05176e-05)" d="M441.669 751.862C447.792 751.455 454.521 759.327 460.451 758.119C466.083 761.363 472.242 766.509 476.448 771.444C474.976 774.905 476.723 776.565 475.26 779.667C470.299 781.778 464.486 783.495 459.897 786.27C450.132 788.179 440.063 787.886 430.161 788.27C430.249 781.294 430.172 774.309 430.164 767.332C430.321 762.958 430.245 758.55 430.28 754.171C432.42 754.648 434.507 755.309 436.638 755.822C438.231 756.205 439.454 756.299 440.914 755.422C441.733 753.976 441.66 753.482 441.669 751.862Z"/><defs><linearGradient id="gradient_3" gradientUnits="userSpaceOnUse" x1="292.99023" y1="624.13251" x2="325.06863" y2="633.96075"><stop offset="0" stop-color="black" stop-opacity="0"/><stop offset="1" stop-color="black" stop-opacity="0.05882353"/></linearGradient></defs><path fill="url(#gradient_3)" transform="matrix(0.728704 0 0 0.728704 -6.10352e-05 -3.05176e-05)" d="M299.494 594.335C308.605 594.29 317.716 594.297 326.828 594.355C317.16 608.614 309.493 622.804 312.85 640.541C313.855 645.851 316.636 649.906 318.213 654.904C318.259 656.705 318.651 657.549 317.172 658.869C314.756 661.024 310.819 661.701 308.606 663.777L309.118 664.323C306.09 666.017 302.726 667.31 299.534 668.665L299.494 594.335Z"/><path fill="#00BDC8" fill-opacity="0.90588236" transform="matrix(0.728704 0 0 0.728704 -6.10352e-05 -3.05176e-05)" d="M650.929 541.707C656.028 540.007 684.182 541.072 692.513 541.055L822.186 541.087L878.543 540.845C886.23 540.807 894.087 539.975 901.741 540.495C900.659 541.245 899.921 541.406 898.601 541.499C891.401 542.007 883.949 541.681 876.722 541.72L836.988 542.063C792.302 542.633 747.612 542.823 702.923 542.635L670.202 542.635C664.392 542.636 658.298 542.259 652.523 542.851C653.789 548.598 659.964 553.558 661.271 559.273L660.873 559.681C657.838 557.091 653.878 547.827 651.442 544.041L650.929 541.707Z"/><path transform="matrix(0.728704 0 0 0.728704 -6.10352e-05 -3.05176e-05)" d="M318.213 654.904C319.216 656.47 320.492 658.095 321.097 659.853C317.353 661.365 313.078 663.655 309.118 664.323L308.606 663.777C310.819 661.701 314.756 661.024 317.172 658.869C318.651 657.549 318.259 656.705 318.213 654.904Z"/><path transform="matrix(0.728704 0 0 0.728704 -6.10352e-05 -3.05176e-05)" d="M476.448 771.444C478.215 774.231 478.886 775.534 478.319 778.808L475.26 779.667C476.723 776.565 474.976 774.905 476.448 771.444Z"/><path transform="matrix(0.728704 0 0 0.728704 -6.10352e-05 -3.05176e-05)" d="M662.544 669.64C663.098 668.211 663.642 666.65 664.654 665.484L664.304 666.042C664.689 665.669 665.07 665.292 665.446 664.91C665.813 667.046 664.652 670.282 663.72 672.205C663.412 672.84 663.294 673.443 663.187 674.135L662.544 669.64Z"/><defs><linearGradient id="gradient_4" gradientUnits="userSpaceOnUse" x1="564.66882" y1="623.14069" x2="768.19159" y2="844.74304"><stop offset="0" stop-color="#11A1CE"/><stop offset="1" stop-color="#2091DC"/></linearGradient></defs><path fill="url(#gradient_4)" transform="matrix(0.728704 0 0 0.728704 -6.10352e-05 -3.05176e-05)" d="M902.127 539.424C902.928 540.295 903.038 540.7 903.202 541.916C903.987 547.747 903.453 554.225 903.444 560.13C903.431 569.419 903.661 578.792 903.359 588.072C903.343 588.456 903.325 588.84 903.302 589.224C904.106 616.012 903.264 642.958 903.468 669.768C887.847 676.622 871.742 682.584 855.887 688.884C849.782 691.31 843.296 693.47 837.382 696.301C845.057 698.915 852.529 702.3 860.019 705.4L903.095 723.227C903.78 731.624 903.442 740.195 903.433 748.62L903.417 790.199L903.49 927.518L754.266 927.437C730.404 927.433 706.408 927.971 682.56 927.372C671.672 926.468 657.292 927.364 646.009 927.365L566.861 927.347L477.525 927.226C461.751 927.192 445.463 926.353 429.751 927.423L429.935 925.234C429.052 900.502 429.92 875.438 429.934 850.677L429.861 818.681C429.833 811.841 429.572 804.878 430.151 798.06C443.494 790.863 466.399 795.996 482.046 785.27C485.277 783.055 487.465 780.886 488.15 776.944C488.277 776.214 488.364 775.61 488.613 774.901C488.668 774.743 488.739 774.59 488.802 774.435L494.88 772.038C491.864 770.784 488.858 769.504 485.862 768.2C472.278 753.374 447.71 738.971 430.236 728.175C423.991 724.317 416.498 720.674 411.005 715.84C416.998 716.913 423.499 720.65 429.234 722.881L429.189 690.554C429.186 683.739 428.93 676.813 429.519 670.023C431.013 663.262 429.874 640.586 429.937 632.05C429.715 620.756 429.864 609.424 429.835 598.126C446.029 592.057 462.08 585.991 477.747 578.617C485.467 575.007 493.077 571.166 500.568 567.101C506.611 563.834 512.743 560.001 519.218 557.652C526.484 555.016 534.691 553.786 542.307 552.519C547.802 549.853 604.362 541.365 614.298 539.987C618.457 541.893 644.398 541.301 650.334 540.874L650.929 541.707L651.442 544.041C651.803 563.151 651.435 582.326 651.42 601.441L651.395 676.843C652.619 675.434 653.752 673.921 654.921 672.464C654.425 669.774 653.685 666.832 653.637 664.112C653.592 661.503 654.261 659.207 656.166 657.417C657.54 657.185 657.829 657.113 659 658.067C662.022 660.531 662.113 666.126 662.544 669.64L663.187 674.135C663.518 676.647 663.537 680.329 665.599 681.996C669.397 679.342 678.418 660.921 681.24 655.539C680.336 634.956 681.886 614.279 680.95 593.669C673.843 582.69 667.214 571.122 660.873 559.681L661.271 559.273C659.964 553.558 653.789 548.598 652.523 542.851C658.298 542.259 664.392 542.636 670.202 542.635L702.923 542.635C747.612 542.823 792.302 542.633 836.988 542.063L876.722 541.72C883.949 541.681 891.401 542.007 898.601 541.499C899.921 541.406 900.659 541.245 901.741 540.495L902.127 539.424ZM651.571 769.643C651.168 779.618 650.695 870.486 652.222 874.632C654.273 880.202 658.177 885.605 661.215 890.735C667.94 902.094 674.861 913.364 681.441 924.805C680.943 917.643 681.272 910.224 681.268 903.037L681.289 862.898C681.308 830.45 680.67 797.877 681.404 765.445L681.389 758.091C671.387 761.774 661.597 766.042 651.571 769.643ZM654.595 708.706C663.416 704.968 672.515 701.908 681.269 697.997C680.789 689.802 681.155 681.428 681.347 673.223C685.386 662.917 692.681 653.229 695.412 642.411C695.812 640.826 696.081 639.346 695.212 637.868C694.467 637.606 694.089 637.312 693.284 637.532C688.914 638.73 683.833 651.491 681.24 655.539C678.418 660.921 669.397 679.342 665.599 681.996C663.537 680.329 663.518 676.647 663.187 674.135L662.544 669.64C662.113 666.126 662.022 660.531 659 658.067C657.829 657.113 657.54 657.185 656.166 657.417C654.261 659.207 653.592 661.503 653.637 664.112C653.685 666.832 654.425 669.774 654.921 672.464C653.752 673.921 652.619 675.434 651.395 676.843L651.42 601.441C651.435 582.326 651.803 563.151 651.442 544.041L650.929 541.707L650.334 540.874C644.398 541.301 618.457 541.893 614.298 539.987C604.362 541.365 547.802 549.853 542.307 552.519C534.691 553.786 526.484 555.016 519.218 557.652C512.743 560.001 506.611 563.834 500.568 567.101C493.077 571.166 485.467 575.007 477.747 578.617C462.08 585.991 446.029 592.057 429.835 598.126C429.864 609.424 429.715 620.756 429.937 632.05C429.874 640.586 431.013 663.262 429.519 670.023C428.93 676.813 429.186 683.739 429.189 690.554L429.234 722.881C423.499 720.65 416.998 716.913 411.005 715.84C416.498 720.674 423.991 724.317 430.236 728.175C447.71 738.971 472.278 753.374 485.862 768.2C488.858 769.504 491.864 770.784 494.88 772.038L488.802 774.435C488.739 774.59 488.668 774.743 488.613 774.901C488.364 775.61 488.277 776.214 488.15 776.944C487.465 780.886 485.277 783.055 482.046 785.27C466.399 795.996 443.494 790.863 430.151 798.06C429.572 804.878 429.833 811.841 429.861 818.681L429.934 850.677C429.92 875.438 429.052 900.502 429.935 925.234C431.102 915.62 430.361 905.247 430.513 895.542L431.102 828.844C431.092 819.666 430.164 809.473 431.251 800.415C431.39 799.252 431.382 798.896 432.41 798.165C437.167 794.786 451.65 794.93 457.964 793.93C464.506 792.894 484.215 788.854 487.473 782.066C488.18 780.592 488.807 776.044 490.099 775.283C491.727 774.325 493.645 774.157 495.128 772.854C495.761 772.298 495.58 772.053 495.61 771.289C492.69 769.617 488.787 768.748 486.129 766.767C481.758 763.508 478.688 758.474 473.933 755.683L473.242 755.286L473.455 754.321L476.347 752.937C477.198 751.901 477.451 751.211 477.671 749.919C477.816 749.067 477.867 748.595 478.245 747.806L479.519 747.749C486.19 740.939 492.681 734.815 500.467 729.246C503.353 727.182 511.588 722.972 513.118 720.71C513.714 719.83 513.921 719.557 514.813 719.014C515.707 719.917 515.202 719.717 516.219 719.835C515.929 718.914 515.984 719.423 516.178 718.3C517.379 717.65 518.329 717.118 519.717 716.965C520.057 717.592 520.053 750.415 520.034 754.158C520.021 756.881 518.939 760.114 519.735 762.653C520.028 762.723 520.315 762.83 520.615 762.861C522.09 763.016 558.142 748.119 560.529 746.408C562.235 739.829 560.936 731.821 560.814 725.027C560.681 717.614 560.718 710.124 561.191 702.724L561.826 702.51C563.524 703.782 564.695 706.261 565.971 707.969C566.993 709.336 568.408 709.74 570.03 709.946C574.576 710.524 579.436 707.96 582.891 705.25C588.071 701.186 598.281 688.797 599.061 682.384L599.996 680.708L600.685 680.698C601.631 685.638 598.884 694.179 604.027 697.573C606.281 699.061 609.721 698.159 612.064 697.38C614.328 696.627 622.083 691.084 623.232 691.137L623.5 691.691C624.664 694.046 625.922 696.002 628.528 696.876C632.315 698.147 636.69 696.388 640.02 694.611C644.393 692.28 647.935 689.115 651.38 685.595C651.394 688.382 651.078 709.205 651.749 709.902L654.595 708.706ZM772.564 721.995L772.549 829.67L772.545 859.304C772.543 864.083 772.008 869.426 772.758 874.109L774.009 874.306C786.681 874.307 799.387 874.499 812.055 874.266C811.58 856.401 812.845 708.989 811.941 707.176C811.811 706.916 811.554 706.743 811.361 706.527L810.83 706.552C798.11 711.786 785.354 716.933 772.564 721.995ZM520.495 815.269C520.586 834.523 519.431 854.496 521.152 873.645C533.892 873.684 546.996 874.351 559.693 873.538C560.828 856.614 560.021 839.24 560.052 822.249C560.061 816.687 560.991 804.101 559.809 799.474C546.882 804.996 533.66 810.34 520.495 815.269ZM772.567 594.249C772.604 608.327 772.721 622.405 772.919 636.481C773.616 638.009 774.523 639.747 774.551 641.462C774.613 645.354 773.476 649.569 773.098 653.474C772.725 657.32 773.012 661.207 772.746 665.05C772.636 666.212 772.685 667.227 772.812 668.386C776.654 667.712 781.207 665.189 784.867 663.709L812.092 652.764C811.46 645.724 811.785 638.416 811.799 631.345L811.945 594.327C798.819 594.411 785.692 594.385 772.567 594.249Z"/><defs><linearGradient id="gradient_5" gradientUnits="userSpaceOnUse" x1="669.50476" y1="702.62927" x2="663.17523" y2="680.87634"><stop offset="0" stop-color="black" stop-opacity="0.027450981"/><stop offset="1" stop-color="black" stop-opacity="0.19215687"/></linearGradient></defs><path fill="url(#gradient_5)" transform="matrix(0.728704 0 0 0.728704 -6.10352e-05 -3.05176e-05)" d="M656.833 684.653C657.496 687.038 658.146 689.324 660.146 690.953C661.517 692.071 663.215 692.685 664.985 692.37C672.406 691.046 677.508 678.847 681.347 673.223C681.155 681.428 680.789 689.802 681.269 697.997C672.515 701.908 663.416 704.968 654.595 708.706C654.186 708.271 653.572 707.902 653.089 707.546C652.413 705.439 652.639 702.783 653.371 700.712L653.844 700.82L654.311 703.481C654.912 698.403 652.242 692.933 653.452 687.881C653.775 686.533 654.049 685.933 655.209 685.191L656.229 685.443L656.833 684.653Z"/><path transform="matrix(0.728704 0 0 0.728704 -6.10352e-05 -3.05176e-05)" d="M651.38 685.595C652.452 683.928 653.804 681.041 655.557 680.118C656.711 681.384 656.587 682.985 656.833 684.653L656.229 685.443L655.209 685.191C654.049 685.933 653.775 686.533 653.452 687.881C652.242 692.933 654.912 698.403 654.311 703.481L653.844 700.82L653.371 700.712C652.639 702.783 652.413 705.439 653.089 707.546C653.572 707.902 654.186 708.271 654.595 708.706L651.749 709.902C651.078 709.205 651.394 688.382 651.38 685.595Z"/><defs><linearGradient id="gradient_6" gradientUnits="userSpaceOnUse" x1="610.67615" y1="713.58264" x2="497.15488" y2="590.98016"><stop offset="0" stop-color="#207DCE"/><stop offset="1" stop-color="#5F3BED"/></linearGradient></defs><path fill="url(#gradient_6)" transform="matrix(0.728704 0 0 0.728704 -6.10352e-05 -3.05176e-05)" d="M542.307 552.519C547.802 549.853 604.362 541.365 614.298 539.987C618.457 541.893 644.398 541.301 650.334 540.874L650.929 541.707L651.442 544.041C651.803 563.151 651.435 582.326 651.42 601.441L651.395 676.843C652.619 675.434 653.752 673.921 654.921 672.464C654.425 669.774 653.685 666.832 653.637 664.112C653.592 661.503 654.261 659.207 656.166 657.417C657.54 657.185 657.829 657.113 659 658.067C662.022 660.531 662.113 666.126 662.544 669.64L663.187 674.135C663.518 676.647 663.537 680.329 665.599 681.996C669.397 679.342 678.418 660.921 681.24 655.539C683.833 651.491 688.914 638.73 693.284 637.532C694.089 637.312 694.467 637.606 695.212 637.868C696.081 639.346 695.812 640.826 695.412 642.411C692.681 653.229 685.386 662.917 681.347 673.223C677.508 678.847 672.406 691.046 664.985 692.37C663.215 692.685 661.517 692.071 660.146 690.953C658.146 689.324 657.496 687.038 656.833 684.653C656.587 682.985 656.711 681.384 655.557 680.118C653.804 681.041 652.452 683.928 651.38 685.595C647.935 689.115 644.393 692.28 640.02 694.611C636.69 696.388 632.315 698.147 628.528 696.876C625.922 696.002 624.664 694.046 623.5 691.691L623.232 691.137C622.083 691.084 614.328 696.627 612.064 697.38C609.721 698.159 606.281 699.061 604.027 697.573C598.884 694.179 601.631 685.638 600.685 680.698L599.996 680.708L599.061 682.384C598.281 688.797 588.071 701.186 582.891 705.25C579.436 707.96 574.576 710.524 570.03 709.946C568.408 709.74 566.993 709.336 565.971 707.969C564.695 706.261 563.524 703.782 561.826 702.51L561.191 702.724C560.718 710.124 560.681 717.614 560.814 725.027C560.936 731.821 562.235 739.829 560.529 746.408C558.142 748.119 522.09 763.016 520.615 762.861C520.315 762.83 520.028 762.723 519.735 762.653C518.939 760.114 520.021 756.881 520.034 754.158C520.053 750.415 520.057 717.592 519.717 716.965C518.329 717.118 517.379 717.65 516.178 718.3C515.984 719.423 515.929 718.914 516.219 719.835C515.202 719.717 515.707 719.917 514.813 719.014C513.921 719.557 513.714 719.83 513.118 720.71C511.588 722.972 503.353 727.182 500.467 729.246C492.681 734.815 486.19 740.939 479.519 747.749L478.245 747.806C477.867 748.595 477.816 749.067 477.671 749.919C477.451 751.211 477.198 751.901 476.347 752.937L473.455 754.321L473.242 755.286L473.933 755.683C478.688 758.474 481.758 763.508 486.129 766.767C488.787 768.748 492.69 769.617 495.61 771.289C495.58 772.053 495.761 772.298 495.128 772.854C493.645 774.157 491.727 774.325 490.099 775.283C488.807 776.044 488.18 780.592 487.473 782.066C484.215 788.854 464.506 792.894 457.964 793.93C451.65 794.93 437.167 794.786 432.41 798.165C431.382 798.896 431.39 799.252 431.251 800.415C430.164 809.473 431.092 819.666 431.102 828.844L430.513 895.542C430.361 905.247 431.102 915.62 429.935 925.234C429.052 900.502 429.92 875.438 429.934 850.677L429.861 818.681C429.833 811.841 429.572 804.878 430.151 798.06C443.494 790.863 466.399 795.996 482.046 785.27C485.277 783.055 487.465 780.886 488.15 776.944C488.277 776.214 488.364 775.61 488.613 774.901C488.668 774.743 488.739 774.59 488.802 774.435L494.88 772.038C491.864 770.784 488.858 769.504 485.862 768.2C472.278 753.374 447.71 738.971 430.236 728.175C423.991 724.317 416.498 720.674 411.005 715.84C416.998 716.913 423.499 720.65 429.234 722.881L429.189 690.554C429.186 683.739 428.93 676.813 429.519 670.023C431.013 663.262 429.874 640.586 429.937 632.05C429.715 620.756 429.864 609.424 429.835 598.126C446.029 592.057 462.08 585.991 477.747 578.617C485.467 575.007 493.077 571.166 500.568 567.101C506.611 563.834 512.743 560.001 519.218 557.652C526.484 555.016 534.691 553.786 542.307 552.519ZM520.603 685.478C521.826 686.169 523.056 686.708 523.414 688.213C523.955 690.481 522.987 693.29 522.751 695.574C527.396 691.652 536.496 682.551 542.915 683.146C544.419 683.285 545.315 683.721 546.277 684.893C548.631 687.76 547.403 693.454 546.726 696.787C546.325 698.766 545.47 700.926 545.979 702.921C546.709 703.452 546.68 703.655 547.652 703.551C551.464 703.142 557.009 697.974 559.876 695.464L560.056 593.821C546.875 593.713 533.692 593.759 520.512 593.958L520.603 685.478ZM520.439 762.022C533.474 756.551 547.125 751.989 559.891 745.953C560.568 731.662 559.595 717.203 559.954 702.868C555.328 706.274 547.698 713.024 541.648 711.853C540.205 711.574 539.042 710.774 538.144 709.613C537.27 708.483 537.102 706.391 536.856 705.015C536.925 701.242 538.793 696.515 537.789 692.976L536.893 692.612C534.98 693.249 533.561 694.866 532.114 696.223C528.115 700.33 523.649 704.558 520.553 709.388C520.245 726.925 520.83 744.479 520.439 762.022Z"/><defs><linearGradient id="gradient_7" gradientUnits="userSpaceOnUse" x1="546.51733" y1="748.49084" x2="526.82147" y2="698.92407"><stop offset="0" stop-color="black" stop-opacity="0"/><stop offset="1" stop-color="black" stop-opacity="0.15294118"/></linearGradient></defs><path fill="url(#gradient_7)" transform="matrix(0.728704 0 0 0.728704 -6.10352e-05 -3.05176e-05)" d="M520.553 709.388C523.649 704.558 528.115 700.33 532.114 696.223C533.348 697.035 534.448 697.366 534.7 698.979C535.207 702.229 533.106 705.781 534.491 709.276C535.464 708.446 535.549 707.301 535.811 706.112L536.856 705.015C537.102 706.391 537.27 708.483 538.144 709.613C539.042 710.774 540.205 711.574 541.648 711.853C547.698 713.024 555.328 706.274 559.954 702.868C559.595 717.203 560.568 731.662 559.891 745.953C547.125 751.989 533.474 756.551 520.439 762.022C520.83 744.479 520.245 726.925 520.553 709.388Z"/><path transform="matrix(0.728704 0 0 0.728704 -6.10352e-05 -3.05176e-05)" d="M532.114 696.223C533.561 694.866 534.98 693.249 536.893 692.612L537.789 692.976C538.793 696.515 536.925 701.242 536.856 705.015L535.811 706.112C535.549 707.301 535.464 708.446 534.491 709.276C533.106 705.781 535.207 702.229 534.7 698.979C534.448 697.366 533.348 697.035 532.114 696.223Z"/><path fill="#1B1B1B" transform="matrix(0.728704 0 0 0.728704 -6.10352e-05 -3.05176e-05)" d="M597.199 666.779C600.191 660.567 602.192 653.653 604.375 647.123L614.497 616.742C616.153 611.78 617.592 606.434 619.803 601.695C620.536 600.126 621.24 598.519 622.83 597.636C624.025 596.971 625.581 596.666 626.888 597.122C629.779 598.13 628.08 603.796 627.404 605.854C623.859 616.644 606.905 683.253 609.667 690.414C610.65 691.067 611.135 691.605 612.395 691.272C616.19 690.27 622.225 682.221 624.248 678.867C626.228 675.584 627.602 671.661 630.018 668.694C631.13 667.327 632.113 666.44 633.91 666.209C638.965 669.29 630.148 682.733 631.885 688.529C632.901 689.451 633.132 689.605 634.607 689.506C639.968 689.147 648.351 681.001 651.395 676.843C652.619 675.434 653.752 673.921 654.921 672.464C654.425 669.774 653.685 666.832 653.637 664.112C653.592 661.503 654.261 659.207 656.166 657.417C657.54 657.185 657.829 657.113 659 658.067C662.022 660.531 662.113 666.126 662.544 669.64L663.187 674.135C663.518 676.647 663.537 680.329 665.599 681.996C669.397 679.342 678.418 660.921 681.24 655.539C683.833 651.491 688.914 638.73 693.284 637.532C694.089 637.312 694.467 637.606 695.212 637.868C696.081 639.346 695.812 640.826 695.412 642.411C692.681 653.229 685.386 662.917 681.347 673.223C677.508 678.847 672.406 691.046 664.985 692.37C663.215 692.685 661.517 692.071 660.146 690.953C658.146 689.324 657.496 687.038 656.833 684.653C656.587 682.985 656.711 681.384 655.557 680.118C653.804 681.041 652.452 683.928 651.38 685.595C647.935 689.115 644.393 692.28 640.02 694.611C636.69 696.388 632.315 698.147 628.528 696.876C625.922 696.002 624.664 694.046 623.5 691.691L623.232 691.137C622.083 691.084 614.328 696.627 612.064 697.38C609.721 698.159 606.281 699.061 604.027 697.573C598.884 694.179 601.631 685.638 600.685 680.698L599.996 680.708L599.061 682.384L598.445 683.158C591.167 692.45 586.278 707.126 572.636 708.838C570.557 709.099 568.614 708.814 566.992 707.409C565.062 705.736 564.233 701.748 562.198 700.836C561.308 701.457 560.662 702.044 559.954 702.868C555.328 706.274 547.698 713.024 541.648 711.853C540.205 711.574 539.042 710.774 538.144 709.613C537.27 708.483 537.102 706.391 536.856 705.015C536.925 701.242 538.793 696.515 537.789 692.976L536.893 692.612C534.98 693.249 533.561 694.866 532.114 696.223C528.115 700.33 523.649 704.558 520.553 709.388C519.088 710.984 517.893 712.821 516.509 714.491C514.718 716.652 512.819 718.639 509.902 718.884C508.086 718.096 507.824 717.465 506.696 715.888C505.893 716.288 505.088 716.684 504.281 717.075C500.737 718.789 496.573 720.904 492.6 719.364C489.404 718.125 488.281 715.222 487.025 712.316C485.741 713.819 484.485 715.347 483.191 716.84C478.946 721.736 472.17 726.744 465.5 727.006C463.787 727.073 462.155 726.591 460.907 725.359C459.241 723.716 458.562 721.41 458.722 719.117C459.414 709.169 467.863 698.759 475.129 692.57C478.884 689.37 484.387 685.402 489.554 686.025C491.617 686.274 493.75 687.753 494.856 689.498C495.604 690.679 495.547 691.41 495.306 692.725C494.622 693.52 494.176 694.004 493.135 694.341C490.898 695.066 489.477 693.966 487.623 692.863L486.951 692.457C485.598 693.106 484.378 693.802 483.159 694.685C476.408 699.573 469.747 708.829 468.561 717.227C468.375 718.541 468.253 718.007 468.985 719.025C475.388 718.253 484.385 702.405 491.035 698.246C492.256 698.08 492.715 698.226 493.8 698.796C496.704 702.427 494.484 707.4 495.425 711.616C495.728 712.969 496.181 713.36 497.335 714.016C499.594 714.023 501.671 712.864 503.476 711.58C513.157 704.699 513.205 689.085 520.174 685.68C520.316 685.611 520.46 685.545 520.603 685.478C521.826 686.169 523.056 686.708 523.414 688.213C523.955 690.481 522.987 693.29 522.751 695.574C527.396 691.652 536.496 682.551 542.915 683.146C544.419 683.285 545.315 683.721 546.277 684.893C548.631 687.76 547.403 693.454 546.726 696.787C546.325 698.766 545.47 700.926 545.979 702.921C546.709 703.452 546.68 703.655 547.652 703.551C551.464 703.142 557.009 697.974 559.876 695.464C565.843 691.231 565.866 683.595 570.096 678.103C576.617 669.637 587.338 667.927 597.199 666.779Z"/><path fill="#2477C6" transform="matrix(0.728704 0 0 0.728704 -6.10352e-05 -3.05176e-05)" d="M587.75 672.397C588.695 672.441 590.009 672.478 590.885 672.815C592.337 673.374 592.514 673.783 593.144 675.088C592.336 681.853 580.803 697.477 575.797 702.262L574.019 702.808C572.847 702.369 572.383 702.267 571.722 701.111C570.008 698.12 571.471 691.975 572.535 688.838C575.194 680.998 580.436 675.875 587.75 672.397Z"/><path fill="#5C38E0" transform="matrix(0.728704 0 0 0.728704 -6.10352e-05 -3.05176e-05)" d="M429.835 598.126C446.029 592.057 462.08 585.991 477.747 578.617C485.467 575.007 493.077 571.166 500.568 567.101C506.611 563.834 512.743 560.001 519.218 557.652C526.484 555.016 534.691 553.786 542.307 552.519C540.534 554.583 538.478 553.448 536.96 554.616C536.808 554.732 537.096 556.538 536.936 556.797C535.218 559.582 529.954 561.954 527.435 564.399C525.251 566.52 523.774 570.418 521.466 572.175C520.522 572.894 518.086 572.87 517.838 574.331C517.821 574.431 517.967 576.105 517.948 576.181C517.743 577.018 514.497 576.941 513.88 577.273C512.593 577.967 509.637 583.174 508.792 584.61C507.801 585.137 507.051 585.831 505.887 585.333C505.663 585.237 505.484 585.058 505.282 584.92L504.292 585.103C503.115 587.188 503.075 590.433 501.714 592.198C499.391 595.21 494.785 596.859 492.705 600.073L493.317 600.949C488.622 605.535 484.588 610.663 479.979 615.32C474.044 621.318 467.538 626.483 461.458 632.281C454.018 639.374 446.929 647.3 438.91 653.722C436.863 655.362 434.543 657.163 431.903 657.591L431.141 657.041C430.837 645.741 430.718 634.437 430.785 623.133C430.343 626.069 430.639 629.187 429.937 632.05C429.715 620.756 429.864 609.424 429.835 598.126Z"/><path fill="#1B1B1B" transform="matrix(0.728704 0 0 0.728704 -6.10352e-05 -3.05176e-05)" d="M639.752 642.036C640.899 642.359 641.513 642.731 642.432 643.485C643.285 645.407 643.176 647.261 642.615 649.258C641.515 653.175 639.316 656.382 635.741 658.318L633.87 658.14L633.189 657.248C633.07 656.181 633.033 655.268 633.217 654.202C633.954 649.949 636.109 644.493 639.752 642.036Z"/><defs><linearGradient id="gradient_8" gradientUnits="userSpaceOnUse" x1="766.73975" y1="797.59265" x2="894.26648" y2="933.06744"><stop offset="0" stop-color="#3A69E5"/><stop offset="1" stop-color="#7F17F2"/></linearGradient></defs><path fill="url(#gradient_8)" transform="matrix(0.728704 0 0 0.728704 -6.10352e-05 -3.05176e-05)" d="M681.404 765.445L682.138 765.441C683.727 767.363 681.325 866.095 682.506 878.693C685.515 877.856 687.785 874.001 690.046 871.915C693.418 868.806 697.094 866.038 700.459 862.903C708.189 855.699 764.088 801.56 767.853 800.479L768.694 801.766C770.631 799.777 770.77 797.118 771.049 794.475C771.841 786.99 771.292 778.934 771.28 771.383L771.506 733.784C771.531 730.439 770.833 727.081 771.477 723.747C771.784 722.159 772.115 721.361 773.553 720.504C779.764 716.801 787.983 714.604 794.737 711.916C799.524 710.011 804.546 707.393 809.44 705.906C810.676 705.53 811.125 705.36 812.385 705.671C815.37 712.168 811.298 745.283 813.554 754.025L814.582 754.16C819.945 748.493 826.704 743.901 832.523 738.663C837.639 734.058 842.777 729.448 847.748 724.688C850.137 722.401 852.359 719.698 854.821 717.545C857.005 715.634 859.919 714.811 862.059 712.793C862.061 711.404 861.74 710.279 861.353 708.965L862.011 708.145L863.093 708.473C862.835 706.647 841.207 699.897 838.051 696.875C837.304 696.16 837.523 696.51 837.493 695.395C841.721 692.806 846.877 691.222 851.484 689.385L882.206 677.179C888.396 674.758 895.631 672.632 901.292 669.169C902.212 668.025 902.212 666.47 902.272 665.054C902.7 654.904 902.144 644.498 902.125 634.325C902.096 619.498 902.486 604.729 902.72 589.908L903.302 589.224C904.106 616.012 903.264 642.958 903.468 669.768C887.847 676.622 871.742 682.584 855.887 688.884C849.782 691.31 843.296 693.47 837.382 696.301C845.057 698.915 852.529 702.3 860.019 705.4L903.095 723.227C903.78 731.624 903.442 740.195 903.433 748.62L903.417 790.199L903.49 927.518L754.266 927.437C730.404 927.433 706.408 927.971 682.56 927.372L681.441 924.805C680.943 917.643 681.272 910.224 681.268 903.037L681.289 862.898C681.308 830.45 680.67 797.877 681.404 765.445ZM772.564 721.995L772.549 829.67L772.545 859.304C772.543 864.083 772.008 869.426 772.758 874.109L774.009 874.306C786.681 874.307 799.387 874.499 812.055 874.266C811.58 856.401 812.845 708.989 811.941 707.176C811.811 706.916 811.554 706.743 811.361 706.527L810.83 706.552C798.11 711.786 785.354 716.933 772.564 721.995Z"/><path fill="#1B1B1B" transform="matrix(0.728704 0 0 0.728704 -6.10352e-05 -3.05176e-05)" d="M754.246 642.722C758.695 640.375 765.306 636.273 770.526 636.658C771.478 636.729 771.995 636.833 772.919 636.481C773.616 638.009 774.523 639.747 774.551 641.462C774.613 645.354 773.476 649.569 773.098 653.474C772.725 657.32 773.012 661.207 772.746 665.05C772.595 661.163 773.616 652.619 772.247 649.349L769.91 650.349C766.271 649.817 768.819 645.541 766.968 643.341C766.015 643.177 765.282 643.224 764.356 643.471C753.367 646.399 747.474 664.526 742.414 673.357C741.233 675.418 740.12 677.219 737.731 677.904C736.255 677.769 735.576 677.002 734.528 676.057C732.225 673.978 724.95 680.228 721.173 678.287C718.247 676.783 716.923 673.542 715.721 670.684C711.034 676.82 706.015 682.748 698.047 684.485C695.235 685.098 691.361 685.346 688.948 683.436C687.649 682.409 687.091 680.836 687.066 679.229C686.944 671.409 694.029 660.929 699.227 655.423C703.629 650.76 711.256 644.192 718.008 644.296C720.065 644.328 721.932 645.892 723.157 647.43C724.058 648.56 724.334 649.549 724.225 650.988C723.49 652.33 722.959 652.706 721.611 653.41C720.508 653.513 719.99 653.445 719.052 652.899C717.284 651.869 716.03 651.288 713.942 651.889C708.534 653.445 702.752 662.502 700.356 667.36C699.157 669.79 696.458 674.444 697.368 677.149L698.435 677.393C706.824 674.702 709.986 663.707 716.639 658.551C718.037 657.468 720.209 656.757 721.964 657.296C725.748 658.459 722.865 668.141 724.83 671.404C725.583 672.654 726.154 672.653 727.451 672.831C743.111 667.709 740.397 644.436 747.351 639.047C748.272 638.334 749.289 638.14 750.4 638.478C752.186 639.021 753.297 641.269 754.246 642.722Z"/><defs><linearGradient id="gradient_9" gradientUnits="userSpaceOnUse" x1="506.10245" y1="441.3938" x2="282.25989" y2="216.54369"><stop offset="0" stop-color="#00C6C9"/><stop offset="1" stop-color="#3F64E6"/></linearGradient></defs><path fill="url(#gradient_9)" transform="matrix(0.728704 0 0 0.728704 -6.10352e-05 -3.05176e-05)" d="M176.437 155.007L318.134 154.976C344.753 154.965 371.651 154.171 398.241 155.115L557.791 155.201L616.789 155.236C627.836 155.241 639.068 155.65 650.091 155.042C650.299 187.84 649.955 220.638 649.059 253.425C648.774 262.419 649.453 271.626 648.614 280.56C643.665 282.717 622.141 282.75 614.003 284.896L613.695 285.798C547.127 298.174 481.442 322.178 424.895 359.837C415.673 365.979 403.54 373.181 396.9 382.09C396.767 383.204 396.654 383.558 397.533 384.426C397.827 384.716 398.471 385.127 398.829 385.367C399.371 419.678 397.552 454.208 398.838 488.49C406.652 501.448 415.136 514.43 422.152 527.817C412.825 532.412 403.34 537.768 393.737 541.675L393.391 541.44C387.288 539.797 347.661 541.249 338.275 541.252C284.434 540.879 230.592 540.848 176.75 541.158C175.719 527.078 176.588 512.356 176.595 498.224L176.648 412.386L242.345 386.245C232.755 382.213 222.848 378.661 213.462 374.185C209.408 373.167 205.206 370.98 201.316 369.364L176.743 359.095C175.742 340.217 176.627 320.789 176.625 301.857C176.621 252.962 177.525 203.882 176.437 155.007ZM267.729 376.475C280.419 370.414 294.156 365.605 307.274 360.479L307.466 343.373L307.444 208.241C294.385 208.235 281.211 207.896 268.168 208.41C267.397 247.304 268.025 286.406 268.045 325.32L268.098 357.016C268.107 363.44 268.447 370.089 267.729 376.475ZM306.768 413.947C293.857 419.242 280.701 424.128 267.931 429.738C268.334 449.113 267.484 468.612 268.301 487.956C281.338 488.011 294.375 487.989 307.411 487.89C307.415 479.855 308.272 416.352 306.96 414.101C306.919 414.031 306.832 413.998 306.768 413.947ZM559.349 208.829C546.245 208.606 533.071 208.992 519.984 208.463L519.98 282.845L548.172 271.567C551.947 270.029 555.732 268.514 559.526 267.022C559.315 247.695 560.266 228.11 559.349 208.829ZM428.059 312.726C429.045 294.944 428.052 276.753 428.1 258.921C428.123 250.232 429.958 214.424 428.056 208.795C425.973 202.629 421.526 196.538 418.212 190.913C411.624 179.858 405.106 168.76 398.66 157.622C399.013 170.949 398.702 184.324 398.679 197.657C398.665 205.75 399.184 214.209 398.582 222.264C398.949 233.496 398.667 244.825 398.669 256.067L398.772 324.456C408.173 319.954 418.344 316.545 428.059 312.726Z"/><defs><linearGradient id="gradient_10" gradientUnits="userSpaceOnUse" x1="266.84866" y1="239.18141" x2="183.65594" y2="150.48837"><stop offset="0" stop-color="#514BEA"/><stop offset="1" stop-color="#8019F2"/></linearGradient></defs><path fill="url(#gradient_10)" transform="matrix(0.728704 0 0 0.728704 -6.10352e-05 -3.05176e-05)" d="M176.437 155.007L318.134 154.976C344.753 154.965 371.651 154.171 398.241 155.115L398.66 157.622C399.013 170.949 398.702 184.324 398.679 197.657C398.665 205.75 399.184 214.209 398.582 222.264C398.363 224.544 398.235 226.831 398.199 229.121L397.711 229.404C397.19 219.06 398.768 160.066 397.293 156.282C392.634 154.479 363.248 155.574 356.131 155.673L355.741 155.983C354.962 156.593 354.378 157.054 353.456 157.423C349.422 159.036 344.81 165.783 341.519 168.908L312.554 196.191C309.179 199.319 305.009 201.982 302.065 205.481L302.175 206.33C301.311 206.833 300.663 206.93 299.675 207.041C302.513 207.517 305.883 207.087 308.754 206.832C308.688 219.278 309.615 340.865 308.312 343.636L307.466 343.373L307.444 208.241C294.385 208.235 281.211 207.896 268.168 208.41C267.397 247.304 268.025 286.406 268.045 325.32L268.098 357.016C268.107 363.44 268.447 370.089 267.729 376.475C267.242 375.904 267.127 375.146 267.109 374.415C266.626 355.641 267.213 336.744 267.342 317.961C267.465 300.228 267.111 282.466 267.112 264.729C267.112 259.775 268.403 241.511 266.79 238.039C248.947 256.671 229.627 274.158 210.7 291.683C204.908 297.046 199.287 302.572 193.534 307.97C190.736 310.595 187.426 313.053 184.91 315.931C183.799 317.2 183.131 317.86 181.553 318.552C180.393 319.061 179.628 319.396 178.68 320.288C176.85 326.23 177.688 334.114 177.69 340.312C177.692 345.288 176.73 352.898 178.102 357.625C179.214 361.459 211.705 370.037 213.462 374.185C209.408 373.167 205.206 370.98 201.316 369.364L176.743 359.095C175.742 340.217 176.627 320.789 176.625 301.857C176.621 252.962 177.525 203.882 176.437 155.007Z"/><defs><linearGradient id="gradient_11" gradientUnits="userSpaceOnUse" x1="166.65182" y1="551.78479" x2="345.42847" y2="765.94495"><stop offset="0" stop-color="#00E4C4"/><stop offset="1" stop-color="#3866E2"/></linearGradient></defs><path fill="url(#gradient_11)" transform="matrix(0.728704 0 0 0.728704 -6.10352e-05 -3.05176e-05)" d="M185.27 555.033C185.454 552.162 180.301 545.507 178.637 542.647C182.328 541.791 187.432 542.606 191.292 542.543C206.934 542.226 222.58 542.087 238.226 542.126L393.391 541.44L393.737 541.675C387.241 545.744 380.465 549.35 373.969 553.421C355.877 564.761 340.66 578.074 326.828 594.355C317.716 594.297 308.605 594.29 299.494 594.335L299.534 668.665C302.726 667.31 306.09 666.017 309.118 664.323C313.078 663.655 317.353 661.365 321.097 659.853C325.45 664.776 329.516 669.865 334.296 674.408C348.657 688.056 366.649 698.271 383.277 708.867C402.392 720.617 421.742 731.992 440.524 744.273C445.497 747.525 452.122 750.994 456.275 755.195L456.15 755.966C447.45 752.348 438.729 748.777 429.99 745.255C429.921 746.541 430.1 747.652 429.363 748.732C424.557 749.297 419.533 749.321 414.799 750.22C404.464 752.182 392.909 760.299 386.496 768.486C383.869 771.839 381.333 776.096 382.02 780.529C382.518 783.743 384.675 786.481 387.304 788.284C397.942 795.581 415.115 793.447 427.405 795.036C428.53 795.181 429.632 794.976 429.975 796.282C430.077 796.672 430.123 797.637 430.151 798.06C429.572 804.878 429.833 811.841 429.861 818.681L429.934 850.677C429.92 875.438 429.052 900.502 429.935 925.234L429.751 927.423C418.906 927.755 407.961 927.456 397.108 927.459L331.409 927.463C290.206 927.461 248.846 928.205 207.661 927.338C208.368 905.491 207.714 883.5 207.893 861.63C207.135 848.976 207.822 835.86 207.819 823.162C207.814 801.523 207.551 779.847 207.939 758.213C197.446 761.812 187.084 766.343 176.727 770.37C175.812 752.776 176.339 734.577 176.677 716.952C187.018 713.418 197.198 709.113 207.37 705.108C208.808 691.032 207.651 673.362 207.522 658.901C207.329 637.27 207.703 615.621 207.754 593.985C202.843 585.138 197.407 576.522 192.247 567.814C189.87 563.801 186.787 559.438 185.27 555.033ZM299.425 772.22C299.788 782.241 299.514 792.359 299.519 802.395C299.532 826.357 299.274 850.34 299.605 874.3L338.873 874.281C337.921 860.83 338.754 846.735 338.758 833.231L338.78 750.096C338.717 735.447 338.732 720.798 338.825 706.15C325.879 711.321 312.067 715.917 299.583 722.05C299.524 738.664 300.333 755.665 299.425 772.22Z"/><defs><linearGradient id="gradient_12" gradientUnits="userSpaceOnUse" x1="289.53897" y1="791.60919" x2="415.88654" y2="937.16467"><stop offset="0" stop-color="#366AE1"/><stop offset="1" stop-color="#7F18F3"/></linearGradient></defs><path fill="url(#gradient_12)" transform="matrix(0.728704 0 0 0.728704 -6.10352e-05 -3.05176e-05)" d="M383.277 708.867C402.392 720.617 421.742 731.992 440.524 744.273C445.497 747.525 452.122 750.994 456.275 755.195L456.15 755.966C447.45 752.348 438.729 748.777 429.99 745.255C429.921 746.541 430.1 747.652 429.363 748.732C424.557 749.297 419.533 749.321 414.799 750.22C404.464 752.182 392.909 760.299 386.496 768.486C383.869 771.839 381.333 776.096 382.02 780.529C382.518 783.743 384.675 786.481 387.304 788.284C397.942 795.581 415.115 793.447 427.405 795.036C428.53 795.181 429.632 794.976 429.975 796.282C430.077 796.672 430.123 797.637 430.151 798.06C429.572 804.878 429.833 811.841 429.861 818.681L429.934 850.677C429.92 875.438 429.052 900.502 429.935 925.234L429.751 927.423C418.906 927.755 407.961 927.456 397.108 927.459L331.409 927.463C290.206 927.461 248.846 928.205 207.661 927.338C208.368 905.491 207.714 883.5 207.893 861.63C211.533 866.09 206.461 874.143 209.655 878.544C209.977 877.719 209.888 878.064 210.046 877.184C210.083 876.978 210.114 876.77 210.148 876.563C213.363 875.129 217.513 873.191 220.181 870.917C225.983 865.972 231.031 859.6 236.587 854.306C249.366 842.128 262.511 830.392 275.329 818.281C281.162 812.77 286.776 806.021 293.739 802.055C295.099 801.28 297.297 799.935 297.937 798.422C299.916 793.747 297.293 779.225 299.13 773.125C299.222 772.821 299.327 772.522 299.425 772.22C299.788 782.241 299.514 792.359 299.519 802.395C299.532 826.357 299.274 850.34 299.605 874.3L338.873 874.281C337.921 860.83 338.754 846.735 338.758 833.231L338.78 750.096C339.126 751.91 339.476 753.707 339.935 755.496C342.082 753.4 342.629 752.812 345.628 752.256C352.391 744.993 376.806 725.116 379.151 718.036C379.637 716.569 380.214 713.76 381.347 712.708C382.98 711.191 382.925 711.042 383.277 708.867Z"/><path fill="#1B1B1B" transform="matrix(0.728704 0 0 0.728704 -6.10352e-05 -3.05176e-05)" d="M613.695 285.798C635.359 282.688 660.003 278.735 681.143 286.204C685.85 288.407 690.518 290.86 692.453 296.05C694.053 300.34 692.842 304.922 690.815 308.841C680.754 328.292 609.168 368.927 587.214 381.423C578.102 386.609 568.152 391.319 559.459 397.109L520.097 418.47C520.379 426.088 520.206 433.719 520.12 441.341C533.113 440.093 546.388 439.468 559.425 440.265C565.804 440.447 572.133 441.513 578.467 441.706C588.895 443.644 602.58 445.565 609.162 454.969C612.422 459.626 612.796 464.983 611.684 470.422C611.171 472.932 610.223 475.509 609.249 477.872C614.333 477.506 619.477 477.288 624.531 476.634C623.116 470.415 623.61 464.598 627.081 459.075C631.603 451.881 639.339 447.736 647.455 446.04C648.386 445.847 649.319 445.664 650.253 445.491C652.349 446.135 654.259 446.645 655.447 448.672C656.498 450.466 656.32 452.639 655.632 454.523C654.563 457.448 652.415 460.049 650.136 462.122L650.211 473.914C656.804 469.927 662.19 464.948 666.604 458.594C669.685 454.159 670.734 444.325 676.659 442.898C677.942 443.499 678.18 443.97 678.63 445.314C679.461 447.797 678.675 450.792 678.252 453.304C683.312 449.133 693.257 439.525 700.341 440.573C701.584 440.757 702.187 441.358 702.745 442.438C705.375 447.528 698.879 457.134 702.765 460.703C707.344 461.06 713.692 454.777 716.956 451.993C719.446 449.869 721.817 447.23 724.769 445.791L725.806 445.984C726.223 447.608 725.687 448.797 724.862 450.173C720.532 457.391 709.229 466.99 700.983 468.979C699.125 469.427 696.712 469.613 695.086 468.407C693.38 467.141 692.683 464.757 692.61 462.726C692.458 458.504 694.273 454.423 694.04 450.246L693.433 449.682C681.746 455.202 677.325 469.927 667.166 476.555C677.793 478.591 700.479 480.547 706.95 490.645C707.98 492.254 708.172 493.903 707.732 495.741C707.455 496.897 707.036 497.623 706.325 498.557C705.037 499.034 704.524 499.164 703.261 498.493C699.151 496.31 697.531 491.774 692.825 489.609C679.407 483.437 664.622 482.043 650.065 480.955L650.08 528.244C669.038 525.463 688.025 522.88 707.037 520.494C724.712 518.37 864.23 502.815 871.392 506.634L871.77 507.591C871.105 508.747 870.616 509.399 869.291 509.831C864.499 511.393 849.376 511.553 843.465 512.004C827.36 513.263 811.268 514.68 795.19 516.253C746.633 520.86 698.218 526.866 650.007 534.264C650.103 536.46 650.125 538.686 650.334 540.874C644.398 541.301 618.457 541.893 614.298 539.987C604.362 541.365 547.802 549.853 542.307 552.519C534.691 553.786 526.484 555.016 519.218 557.652C512.743 560.001 506.611 563.834 500.568 567.101C493.077 571.166 485.467 575.007 477.747 578.617C462.08 585.991 446.029 592.057 429.835 598.126C429.864 609.424 429.715 620.756 429.937 632.05C429.874 640.586 431.013 663.262 429.519 670.023L394.555 684.165C387.407 687.04 380.246 690.215 372.935 692.641C385.396 700.42 397.926 709.175 411.005 715.84C416.498 720.674 423.991 724.317 430.236 728.175C447.71 738.971 472.278 753.374 485.862 768.2L488.802 774.435C488.739 774.59 488.668 774.743 488.613 774.901C488.364 775.61 488.277 776.214 488.15 776.944C487.465 780.886 485.277 783.055 482.046 785.27C466.399 795.996 443.494 790.863 430.151 798.06C430.123 797.637 430.077 796.672 429.975 796.282C429.632 794.976 428.53 795.181 427.405 795.036C415.115 793.447 397.942 795.581 387.304 788.284C384.675 786.481 382.518 783.743 382.02 780.529C381.333 776.096 383.869 771.839 386.496 768.486C392.909 760.299 404.464 752.182 414.799 750.22C419.533 749.321 424.557 749.297 429.363 748.732C430.1 747.652 429.921 746.541 429.99 745.255C430.082 746.085 430.003 747.924 430.651 748.439C433.016 750.32 438.66 750.761 441.669 751.862C441.66 753.482 441.733 753.976 440.914 755.422C439.454 756.299 438.231 756.205 436.638 755.822C434.507 755.309 432.42 754.648 430.28 754.171C430.245 758.55 430.321 762.958 430.164 767.332C430.172 774.309 430.249 781.294 430.161 788.27C440.063 787.886 450.132 788.179 459.897 786.27C464.486 783.495 470.299 781.778 475.26 779.667L478.319 778.808C478.886 775.534 478.215 774.231 476.448 771.444C472.242 766.509 466.083 761.363 460.451 758.119C459.013 757.117 457.811 756.518 456.15 755.966L456.275 755.195C452.122 750.994 445.497 747.525 440.524 744.273C421.742 731.992 402.392 720.617 383.277 708.867C366.649 698.271 348.657 688.056 334.296 674.408C329.516 669.865 325.45 664.776 321.097 659.853C320.492 658.095 319.216 656.47 318.213 654.904C316.636 649.906 313.855 645.851 312.85 640.541C309.493 622.804 317.16 608.614 326.828 594.355C340.66 578.074 355.877 564.761 373.969 553.421C380.465 549.35 387.241 545.744 393.737 541.675C403.34 537.768 412.825 532.412 422.152 527.817C424.286 527.211 426.496 525.99 428.546 525.101C428.039 504.323 428.61 483.377 428.611 462.58C428.322 432.559 428.304 402.535 428.559 372.513C421.513 375.208 414.517 378.291 407.295 380.473C404.502 382.735 402.36 384.406 398.829 385.367C398.471 385.127 397.827 384.716 397.533 384.426C396.654 383.558 396.767 383.204 396.9 382.09C403.54 373.181 415.673 365.979 424.895 359.837C481.442 322.178 547.127 298.174 613.695 285.798ZM520.039 411.406L559.477 389.886L559.433 320.616C546.206 325.317 532.886 330.816 519.972 336.324L520.039 411.406ZM585.33 310.496C599.689 316.312 614.011 322.218 628.296 328.212C635.018 331.001 641.788 334.112 648.634 336.553C649.462 335.839 649.73 335.516 649.979 334.445C650.137 327.546 650.052 320.624 650.077 313.722C649.216 305.383 649.905 296.284 649.937 287.866C646.253 287.914 642.38 287.903 638.78 288.723C626.152 294.526 612.956 299.355 600.042 304.508C595.156 306.458 590.051 308.197 585.33 310.496ZM520.295 447.246C520.087 460.921 519.656 474.697 520.103 488.368C526.643 488.357 534.327 487.586 540.671 489.27L559.46 485.56L559.442 446.545C546.403 445.722 533.313 446.36 520.295 447.246ZM337.916 593.324C328.578 604.64 320.377 619.269 321.834 634.441C322.612 642.536 326.094 649.318 330.286 656.128C333.17 654.937 336.116 653.883 339.037 652.786C337.974 643.744 340.007 598.116 338.769 594.653C338.592 594.157 338.2 593.767 337.916 593.324Z"/><defs><linearGradient id="gradient_13" gradientUnits="userSpaceOnUse" x1="618.42383" y1="333.82928" x2="620.02075" y2="287.98764"><stop offset="0" stop-color="black" stop-opacity="0"/><stop offset="1" stop-color="black" stop-opacity="0.031372551"/></linearGradient></defs><path fill="url(#gradient_13)" transform="matrix(0.728704 0 0 0.728704 -6.10352e-05 -3.05176e-05)" d="M638.78 288.723C642.38 287.903 646.253 287.914 649.937 287.866C649.905 296.284 649.216 305.383 650.077 313.722C650.052 320.624 650.137 327.546 649.979 334.445C649.73 335.516 649.462 335.839 648.634 336.553C641.788 334.112 635.018 331.001 628.296 328.212C614.011 322.218 599.689 316.312 585.33 310.496C590.051 308.197 595.156 306.458 600.042 304.508C612.956 299.355 626.152 294.526 638.78 288.723Z"/><defs><linearGradient id="gradient_14" gradientUnits="userSpaceOnUse" x1="339.89996" y1="625.34186" x2="322.89395" y2="623.46014"><stop offset="0" stop-color="black" stop-opacity="0"/><stop offset="1" stop-color="black" stop-opacity="0.098039217"/></linearGradient></defs><path fill="url(#gradient_14)" transform="matrix(0.728704 0 0 0.728704 -6.10352e-05 -3.05176e-05)" d="M337.916 593.324C338.2 593.767 338.592 594.157 338.769 594.653C340.007 598.116 337.974 643.744 339.037 652.786C336.116 653.883 333.17 654.937 330.286 656.128C326.094 649.318 322.612 642.536 321.834 634.441C320.377 619.269 328.578 604.64 337.916 593.324Z"/><defs><linearGradient id="gradient_15" gradientUnits="userSpaceOnUse" x1="459.94339" y1="330.89041" x2="550.7041" y2="426.47794"><stop offset="0" stop-color="#1794D2"/><stop offset="1" stop-color="#4456E3"/></linearGradient></defs><path fill="url(#gradient_15)" transform="matrix(0.728704 0 0 0.728704 -6.10352e-05 -3.05176e-05)" d="M407.295 380.473C410.565 377.298 414.237 374.448 417.897 371.738C469.517 333.513 545.238 302.742 608.402 291.867C617.02 290.383 630.232 287.45 638.78 288.723C626.152 294.526 612.956 299.355 600.042 304.508C595.156 306.458 590.051 308.197 585.33 310.496C599.689 316.312 614.011 322.218 628.296 328.212C635.018 331.001 641.788 334.112 648.634 336.553C620.513 354.689 589.222 374.616 559.477 389.886L559.433 320.616C546.206 325.317 532.886 330.816 519.972 336.324L520.039 411.406C515.608 413.817 494.992 425.976 491.101 426.097L490.505 425.541C492.42 414.989 510.546 366.746 507.353 361.319C506.182 360.613 504.914 360.415 503.566 360.721C501.935 361.092 500.692 362.016 499.931 363.5C498.074 367.121 497.089 372.054 495.868 375.964C493.04 385.023 480.579 428.857 476.486 433.937C473.802 437.268 468.957 439.36 465.245 441.379C460.93 443.724 453.564 446.773 453.663 452.506C454.331 453.809 454.633 454.322 456.074 454.793C460.299 456.174 465.88 453.03 469.883 454.829C470.644 456.476 470.084 458.784 469.739 460.488C468.101 468.587 465.235 476.687 462.993 484.654C460.192 494.609 457.815 504.718 455.038 514.692C446.085 517.872 437.379 521.616 428.546 525.101C428.039 504.323 428.61 483.377 428.611 462.58C428.322 432.559 428.304 402.535 428.559 372.513C421.513 375.208 414.517 378.291 407.295 380.473Z"/><defs><linearGradient id="gradient_16" gradientUnits="userSpaceOnUse" x1="357.05627" y1="574.63385" x2="436.74063" y2="660.81805"><stop offset="0" stop-color="#1199C5"/><stop offset="1" stop-color="#376CE7"/></linearGradient></defs><path fill="url(#gradient_16)" transform="matrix(0.728704 0 0 0.728704 -6.10352e-05 -3.05176e-05)" d="M337.916 593.324C351.132 574.073 390.595 549.112 412.324 540.191C415.918 541.963 425.015 541.806 428.819 540.867L429.281 540.487L429.683 540.823C430.152 551.675 429.604 562.536 429.923 573.383C416.366 577.085 362.601 592.584 355.838 604.28C355.027 605.683 354.697 607.333 355.329 608.887C355.985 610.501 357.522 611.344 359.095 611.85C374.902 616.931 414.011 603.503 429.835 598.126C429.864 609.424 429.715 620.756 429.937 632.05C429.874 640.586 431.013 663.262 429.519 670.023L394.555 684.165C387.407 687.04 380.246 690.215 372.935 692.641C357.507 684.425 340.425 670.149 330.286 656.128C333.17 654.937 336.116 653.883 339.037 652.786C337.974 643.744 340.007 598.116 338.769 594.653C338.592 594.157 338.2 593.767 337.916 593.324Z"/><path fill="#5C38E0" transform="matrix(0.728704 0 0 0.728704 -6.10352e-05 -3.05176e-05)" d="M462.345 519.189C500.512 504.344 555.017 490.157 595.433 484.854C578.893 508.09 556.117 525.621 532.458 541.151C526.245 545.229 519.611 550.042 512.536 552.433C504.107 555.282 494.93 556.781 486.249 558.775C467.514 563.079 448.159 567.327 429.923 573.383C429.604 562.536 430.152 551.675 429.683 540.823C435.799 540.823 441.952 540.699 448.065 540.882C447.211 544.189 445.613 547.69 447.351 550.858C448.618 551.417 449.216 551.849 450.603 551.208C455.411 548.984 460.622 525.058 462.345 519.189Z"/><path fill="#5C38E0" transform="matrix(0.728704 0 0 0.728704 -6.10352e-05 -3.05176e-05)" d="M606.583 483.24C612.92 482.387 619.54 481.47 625.934 481.402C630.527 481.354 635.113 481.796 639.711 481.68C643.165 481.593 646.594 481.057 650.065 480.955L650.08 528.244L569.806 541.086C561.866 542.382 554.022 544.427 546.053 545.517C544.156 545.776 542.088 546.096 540.283 545.329C540.753 542.884 551.466 536.472 553.912 534.66C573.823 519.901 593.024 504.304 606.583 483.24Z"/><path fill="#5C38E0" transform="matrix(0.728704 0 0 0.728704 -6.10352e-05 -3.05176e-05)" d="M650.203 287.841C659.139 288.061 673.998 288.763 680.487 295.909C682.237 297.836 683.148 300.261 683.009 302.867C682.628 310.074 675.028 316.817 669.85 321.147C666.459 323.983 654.202 334.134 650.419 334.64L649.979 334.445C650.137 327.546 650.052 320.624 650.077 313.722C650.36 305.105 650.223 296.463 650.203 287.841Z"/><path fill="#5C38E0" transform="matrix(0.728704 0 0 0.728704 -6.10352e-05 -3.05176e-05)" d="M430.161 788.27C428.205 788.313 426.248 788.338 424.291 788.343C416.392 788.35 399.795 788.323 393.94 782.046C392.548 780.554 391.904 778.722 392.091 776.685C392.564 771.537 397.805 766.362 401.59 763.154C409.93 756.086 419.189 753.225 430.041 754.092C429.943 758.506 429.984 762.921 430.164 767.332C430.172 774.309 430.249 781.294 430.161 788.27Z"/><path fill="#4154D6" transform="matrix(0.728704 0 0 0.728704 -6.10352e-05 -3.05176e-05)" d="M520.12 441.341C511.448 442.211 496.31 445.11 488.433 444.994C486.888 444.971 486.162 444.914 485.108 443.78C484.838 442.59 484.808 441.742 485.247 440.574C487.8 433.784 512.662 422.153 520.097 418.47C520.379 426.088 520.206 433.719 520.12 441.341Z"/><path fill="#4154D6" transform="matrix(0.728704 0 0 0.728704 -6.10352e-05 -3.05176e-05)" d="M428.809 538.454C428.603 536.601 428.165 534.657 428.956 532.904C434.596 528.471 446.024 525.158 453.005 522.554L448.065 540.882C441.952 540.699 435.799 540.823 429.683 540.823L429.281 540.487L428.809 538.454Z"/><path fill="#5C38E0" transform="matrix(0.728704 0 0 0.728704 -6.10352e-05 -3.05176e-05)" d="M650.136 462.122L650.211 473.914C646.84 475.558 642.612 476.448 638.863 475.932C636.565 475.616 632.894 474.678 631.667 472.421C630.974 471.145 630.972 470.354 631.47 468.996C631.743 468.255 632.652 467.227 633.328 466.885C637.285 464.881 643.481 465.81 649.477 462.494L650.136 462.122Z"/><path fill="#5C38E0" transform="matrix(0.728704 0 0 0.728704 -6.10352e-05 -3.05176e-05)" d="M614.298 539.987C625.878 537.278 638.236 536.084 650.007 534.264C650.103 536.46 650.125 538.686 650.334 540.874C644.398 541.301 618.457 541.893 614.298 539.987Z"/><path fill="#00BDC8" transform="matrix(0.728704 0 0 0.728704 -6.10352e-05 -3.05176e-05)" d="M425.57 533.873L428.809 538.454L429.281 540.487L428.819 540.867C425.015 541.806 415.918 541.963 412.324 540.191C416.605 537.814 421.108 535.879 425.57 533.873Z"/><path fill="#2477C6" transform="matrix(0.728704 0 0 0.728704 -6.10352e-05 -3.05176e-05)" d="M478.319 778.808C474.839 783.516 469.193 785.128 463.636 785.963C462.387 786.15 461.162 786.325 459.897 786.27C464.486 783.495 470.299 781.778 475.26 779.667L478.319 778.808Z"/><path fill="#4154D6" transform="matrix(0.728704 0 0 0.728704 -6.10352e-05 -3.05176e-05)" d="M482.632 451.829C494.699 449.019 507.926 447.908 520.295 447.246C520.087 460.921 519.656 474.697 520.103 488.368C526.643 488.357 534.327 487.586 540.671 489.27C531.634 492.385 521.602 494.096 512.33 496.571C496.237 500.86 480.309 505.744 464.578 511.211L474.55 476.211C476.777 468.436 478.579 458.814 482.632 451.829Z"/><path transform="matrix(0.728704 0 0 0.728704 -6.10352e-05 -3.05176e-05)" d="M520.295 447.246C533.313 446.36 546.403 445.722 559.442 446.545L559.46 485.56L540.671 489.27C534.327 487.586 526.643 488.357 520.103 488.368C519.656 474.697 520.087 460.921 520.295 447.246Z"/><path fill="#5C38E0" transform="matrix(0.728704 0 0 0.728704 -6.10352e-05 -3.05176e-05)" d="M559.442 446.545C570.786 446.925 589.505 448.301 597.864 457.201C600.801 460.328 602.055 464.194 601.766 468.452C601.512 472.201 600.163 475.797 598.603 479.179C585.516 481.056 572.466 483.183 559.46 485.56L559.442 446.545Z"/><path fill="#2477C6" transform="matrix(0.728704 0 0 0.728704 -6.10352e-05 -3.05176e-05)" d="M430.116 591.693C430.062 591.715 430.01 591.739 429.955 591.758C418.95 595.698 379.404 609.782 369.308 605.041C369.001 604.439 368.631 604.192 368.953 603.512C372.382 596.277 421.133 581.98 429.898 579.321C429.915 583.396 429.692 587.646 430.116 591.693Z"/><path fill="#5C38E0" transform="matrix(0.728704 0 0 0.728704 -6.10352e-05 -3.05176e-05)" d="M429.898 579.321C436.963 577.348 484.626 563.576 488.568 564.706L488.741 565.463C483.307 571.483 439.448 588.649 430.116 591.693C429.692 587.646 429.915 583.396 429.898 579.321Z"/><path fill="#5C38E0" transform="matrix(0.728704 0 0 0.728704 -6.10352e-05 -3.05176e-05)" d="M645.566 451.299C645.81 451.387 646.077 451.427 646.299 451.561C647.479 452.271 647.774 452.955 648.2 454.161C648.007 455.188 647.731 456.058 647.047 456.877C644.467 459.964 641.575 460.896 637.754 461.29L636.207 460.4C635.913 459.641 635.679 459.497 635.979 458.664C637.246 455.152 642.372 452.852 645.566 451.299Z"/><path fill="#2477C6" transform="matrix(0.728704 0 0 0.728704 -6.10352e-05 -3.05176e-05)" d="M663.339 470.89C662.963 472.657 663.097 473.61 663.612 475.344C663.667 475.528 663.726 475.711 663.783 475.894L663.28 476.456L659.581 476.156C658.915 476.173 658.438 476.028 657.8 475.859C658.562 473.933 661.685 472.152 663.339 470.89Z"/><defs><linearGradient id="gradient_17" gradientUnits="userSpaceOnUse" x1="749.70148" y1="229.96805" x2="667.97772" y2="140.78331"><stop offset="0" stop-color="#524AEA"/><stop offset="1" stop-color="#801AF2"/></linearGradient></defs><path fill="url(#gradient_17)" transform="matrix(0.728704 0 0 0.728704 -6.10352e-05 -3.05176e-05)" d="M650.091 155.042L794.368 154.997L840.188 154.963C847.48 154.956 855.326 154.381 862.553 155.083C858.896 158.01 834.23 154.076 827.935 156.025C826.416 156.495 825.044 157.651 823.878 158.694C820.262 161.928 817.215 165.93 813.762 169.367C807.021 176.077 799.803 182.508 792.822 188.984C789.496 192.07 786.359 195.551 783.007 198.534C780.437 200.821 777.058 202.258 774.382 204.45C773.405 205.25 772.786 205.902 772.542 207.157C772.703 207.136 772.863 207.113 773.024 207.095C775.127 206.852 779.36 206.593 781.135 207.825L780.676 208.663C775.535 207.261 748.069 208.03 741.39 208.442C741.295 213.142 741.252 217.843 741.26 222.544L740.489 223.064C740.194 226.14 740.976 235.945 739.767 238.196C738.487 240.578 708.03 268.855 703.765 272.529L702.113 272.345L701.61 272.821C696.716 277.375 690.54 279.232 686.73 284.863C686.474 284.87 686.217 284.873 685.96 284.883C683.936 284.954 682.748 284.918 681.143 286.204C660.003 278.735 635.359 282.688 613.695 285.798L614.003 284.896C622.141 282.75 643.665 282.717 648.614 280.56C649.453 271.626 648.774 262.419 649.059 253.425C649.955 220.638 650.299 187.84 650.091 155.042Z"/><path fill="#5C38E0" transform="matrix(0.728704 0 0 0.728704 -6.10352e-05 -3.05176e-05)" d="M578.467 441.706C581.291 441.111 583.907 442.216 586.607 441.105L586.781 440.438C586.875 440.091 586.978 439.746 587.069 439.397C588.369 434.395 593.368 429.033 597.314 425.755C597.445 425.646 597.58 425.542 597.714 425.435L597.676 423.952C598.698 421.825 601.319 419.845 602.997 418.126L603.368 419.094C607.264 415.997 610.313 411.103 614.136 407.662L614.529 408.651C616.089 407.745 617.047 404.661 618.725 403.288L619.29 404.389C620.464 404.153 621.189 401.831 621.928 400.796C622.993 399.307 623.403 398.952 625.307 398.676C625.595 398.634 625.884 398.606 626.173 398.571C626.928 396.699 627.663 395.259 629.337 394.078C634.839 390.198 639.878 385.61 644.931 381.171C647.825 378.628 649.71 374.236 649.927 370.434C649.992 369.301 650.052 368.324 650.384 367.231C650.481 366.911 650.588 366.594 650.691 366.276C650.823 375.957 650.868 385.638 650.823 395.32C650.822 400.898 651.15 406.796 650.495 412.337C648.969 422.824 650.138 434.84 650.253 445.491C649.319 445.664 648.386 445.847 647.455 446.04C639.339 447.736 631.603 451.881 627.081 459.075C623.61 464.598 623.116 470.415 624.531 476.634C619.477 477.288 614.333 477.506 609.249 477.872C610.223 475.509 611.171 472.932 611.684 470.422C612.796 464.983 612.422 459.626 609.162 454.969C602.58 445.565 588.895 443.644 578.467 441.706Z"/><path fill="#00BDC8" fill-opacity="0.9137255" transform="matrix(0.728704 0 0 0.728704 -6.10352e-05 -3.05176e-05)" d="M176.75 541.158C230.592 540.848 284.434 540.879 338.275 541.252C347.661 541.249 387.288 539.797 393.391 541.44L238.226 542.126C222.58 542.087 206.934 542.226 191.292 542.543C187.432 542.606 182.328 541.791 178.637 542.647C180.301 545.507 185.454 552.162 185.27 555.033C181.855 552.161 178.722 545.207 176.75 541.158Z"/></svg>