<svg xmlns="http://www.w3.org/2000/svg" xmlns:xlink="http://www.w3.org/1999/xlink" width="200" zoomAndPan="magnify" viewBox="0 0 150 149.999998" height="200" preserveAspectRatio="xMidYMid meet" version="1.2"><defs><clipPath id="62d3678fcb"><path d="M 3.554688 3.554688 L 146.445312 3.554688 L 146.445312 146.445312 L 3.554688 146.445312 Z M 3.554688 3.554688 "/></clipPath><clipPath id="01f39263f5"><path d="M 75 3.554688 C 35.542969 3.554688 3.554688 35.542969 3.554688 75 C 3.554688 114.457031 35.542969 146.445312 75 146.445312 C 114.457031 146.445312 146.445312 114.457031 146.445312 75 C 146.445312 35.542969 114.457031 3.554688 75 3.554688 Z M 75 3.554688 "/></clipPath><radialGradient gradientTransform="matrix(1,0,0,1,3.553367,3.553362)" id="6848d91af0" gradientUnits="userSpaceOnUse" r="202.081774" cx="0" fx="0" cy="0" fy="0"><stop style="stop-color:#065941;stop-opacity:1;" offset="0"/><stop style="stop-color:#065840;stop-opacity:1;" offset="0.0078125"/><stop style="stop-color:#065740;stop-opacity:1;" offset="0.0195312"/><stop style="stop-color:#06573f;stop-opacity:1;" offset="0.03125"/><stop style="stop-color:#06563f;stop-opacity:1;" offset="0.0429688"/><stop style="stop-color:#06553e;stop-opacity:1;" offset="0.0546875"/><stop style="stop-color:#06543e;stop-opacity:1;" offset="0.0664062"/><stop style="stop-color:#06543d;stop-opacity:1;" offset="0.078125"/><stop style="stop-color:#06533d;stop-opacity:1;" offset="0.0898438"/><stop style="stop-color:#05523c;stop-opacity:1;" offset="0.101562"/><stop style="stop-color:#05513b;stop-opacity:1;" offset="0.113281"/><stop style="stop-color:#05513b;stop-opacity:1;" offset="0.125"/><stop style="stop-color:#05503a;stop-opacity:1;" offset="0.136719"/><stop style="stop-color:#054f3a;stop-opacity:1;" offset="0.148438"/><stop style="stop-color:#054e39;stop-opacity:1;" offset="0.160156"/><stop style="stop-color:#054e39;stop-opacity:1;" offset="0.171875"/><stop style="stop-color:#054d38;stop-opacity:1;" offset="0.183594"/><stop style="stop-color:#054c38;stop-opacity:1;" offset="0.195312"/><stop style="stop-color:#054b37;stop-opacity:1;" offset="0.207031"/><stop style="stop-color:#054b36;stop-opacity:1;" offset="0.21875"/><stop style="stop-color:#054a36;stop-opacity:1;" offset="0.230469"/><stop style="stop-color:#054935;stop-opacity:1;" offset="0.242188"/><stop style="stop-color:#054835;stop-opacity:1;" offset="0.253906"/><stop style="stop-color:#044835;stop-opacity:1;" offset="0.261719"/><stop style="stop-color:#044734;stop-opacity:1;" offset="0.269531"/><stop style="stop-color:#044734;stop-opacity:1;" offset="0.277344"/><stop style="stop-color:#044633;stop-opacity:1;" offset="0.285156"/><stop style="stop-color:#044633;stop-opacity:1;" offset="0.292969"/><stop style="stop-color:#044533;stop-opacity:1;" offset="0.300781"/><stop style="stop-color:#044532;stop-opacity:1;" offset="0.308594"/><stop style="stop-color:#044432;stop-opacity:1;" offset="0.316406"/><stop style="stop-color:#044432;stop-opacity:1;" offset="0.324219"/><stop style="stop-color:#044331;stop-opacity:1;" offset="0.332031"/><stop style="stop-color:#044331;stop-opacity:1;" offset="0.339844"/><stop style="stop-color:#044231;stop-opacity:1;" offset="0.347656"/><stop style="stop-color:#044230;stop-opacity:1;" offset="0.355469"/><stop style="stop-color:#044130;stop-opacity:1;" offset="0.363281"/><stop style="stop-color:#04412f;stop-opacity:1;" offset="0.371094"/><stop style="stop-color:#04402f;stop-opacity:1;" offset="0.378906"/><stop style="stop-color:#04402f;stop-opacity:1;" offset="0.386719"/><stop style="stop-color:#043f2e;stop-opacity:1;" offset="0.394531"/><stop style="stop-color:#043f2e;stop-opacity:1;" offset="0.402344"/><stop style="stop-color:#043e2e;stop-opacity:1;" offset="0.410156"/><stop style="stop-color:#043e2d;stop-opacity:1;" offset="0.417969"/><stop style="stop-color:#033d2d;stop-opacity:1;" offset="0.425781"/><stop style="stop-color:#033d2c;stop-opacity:1;" offset="0.433594"/><stop style="stop-color:#033c2c;stop-opacity:1;" offset="0.441406"/><stop style="stop-color:#033c2c;stop-opacity:1;" offset="0.449219"/><stop style="stop-color:#033b2b;stop-opacity:1;" offset="0.457031"/><stop style="stop-color:#033b2b;stop-opacity:1;" offset="0.464844"/><stop style="stop-color:#033a2b;stop-opacity:1;" offset="0.472656"/><stop style="stop-color:#033a2a;stop-opacity:1;" offset="0.480469"/><stop style="stop-color:#03392a;stop-opacity:1;" offset="0.488281"/><stop style="stop-color:#03392a;stop-opacity:1;" offset="0.496094"/><stop style="stop-color:#033829;stop-opacity:1;" offset="0.503906"/><stop style="stop-color:#033829;stop-opacity:1;" offset="0.515625"/><stop style="stop-color:#033728;stop-opacity:1;" offset="0.527344"/><stop style="stop-color:#033627;stop-opacity:1;" offset="0.539062"/><stop style="stop-color:#033527;stop-opacity:1;" offset="0.550781"/><stop style="stop-color:#033526;stop-opacity:1;" offset="0.5625"/><stop style="stop-color:#033426;stop-opacity:1;" offset="0.574219"/><stop style="stop-color:#023325;stop-opacity:1;" offset="0.585938"/><stop style="stop-color:#023225;stop-opacity:1;" offset="0.597656"/><stop style="stop-color:#023224;stop-opacity:1;" offset="0.609375"/><stop style="stop-color:#023124;stop-opacity:1;" offset="0.621094"/><stop style="stop-color:#023023;stop-opacity:1;" offset="0.632812"/><stop style="stop-color:#023023;stop-opacity:1;" offset="0.640625"/><stop style="stop-color:#022f22;stop-opacity:1;" offset="0.648438"/><stop style="stop-color:#022f22;stop-opacity:1;" offset="0.65625"/><stop style="stop-color:#022e22;stop-opacity:1;" offset="0.664062"/><stop style="stop-color:#022e21;stop-opacity:1;" offset="0.671875"/><stop style="stop-color:#022d21;stop-opacity:1;" offset="0.679688"/><stop style="stop-color:#022d21;stop-opacity:1;" offset="0.6875"/><stop style="stop-color:#022c20;stop-opacity:1;" offset="0.695312"/><stop style="stop-color:#022c20;stop-opacity:1;" offset="0.703125"/><stop style="stop-color:#022b1f;stop-opacity:1;" offset="0.710938"/><stop style="stop-color:#022b1f;stop-opacity:1;" offset="0.71875"/><stop style="stop-color:#022a1f;stop-opacity:1;" offset="0.726562"/><stop style="stop-color:#022a1e;stop-opacity:1;" offset="0.734375"/><stop style="stop-color:#02291e;stop-opacity:1;" offset="0.742188"/><stop style="stop-color:#02291e;stop-opacity:1;" offset="0.75"/><stop style="stop-color:#01281d;stop-opacity:1;" offset="0.757812"/><stop style="stop-color:#01271d;stop-opacity:1;" offset="0.769531"/><stop style="stop-color:#01271c;stop-opacity:1;" offset="0.78125"/><stop style="stop-color:#01261c;stop-opacity:1;" offset="0.792969"/><stop style="stop-color:#01251b;stop-opacity:1;" offset="0.804688"/><stop style="stop-color:#01241b;stop-opacity:1;" offset="0.816406"/><stop style="stop-color:#01241a;stop-opacity:1;" offset="0.824219"/><stop style="stop-color:#01231a;stop-opacity:1;" offset="0.832031"/><stop style="stop-color:#012319;stop-opacity:1;" offset="0.839844"/><stop style="stop-color:#012219;stop-opacity:1;" offset="0.847656"/><stop style="stop-color:#012219;stop-opacity:1;" offset="0.855469"/><stop style="stop-color:#012118;stop-opacity:1;" offset="0.863281"/><stop style="stop-color:#012118;stop-opacity:1;" offset="0.871094"/><stop style="stop-color:#012018;stop-opacity:1;" offset="0.878906"/><stop style="stop-color:#012017;stop-opacity:1;" offset="0.890625"/><stop style="stop-color:#011f16;stop-opacity:1;" offset="0.902344"/><stop style="stop-color:#001e16;stop-opacity:1;" offset="0.914062"/><stop style="stop-color:#001e16;stop-opacity:1;" offset="0.921875"/><stop style="stop-color:#001d15;stop-opacity:1;" offset="0.929688"/><stop style="stop-color:#001d15;stop-opacity:1;" offset="0.9375"/><stop style="stop-color:#001c14;stop-opacity:1;" offset="0.945312"/><stop style="stop-color:#001b14;stop-opacity:1;" offset="0.957031"/><stop style="stop-color:#001b14;stop-opacity:1;" offset="0.964844"/><stop style="stop-color:#001a13;stop-opacity:1;" offset="0.972656"/><stop style="stop-color:#001a13;stop-opacity:1;" offset="0.984375"/><stop style="stop-color:#001912;stop-opacity:1;" offset="0.992188"/><stop style="stop-color:#001912;stop-opacity:1;" offset="1"/></radialGradient><clipPath id="dd682c7b0a"><path d="M 29.636719 103.46875 L 46.671875 103.46875 L 46.671875 120.5 L 29.636719 120.5 Z M 29.636719 103.46875 "/></clipPath><clipPath id="294ecb761c"><path d="M 38.152344 103.46875 C 33.449219 103.46875 29.636719 107.28125 29.636719 111.984375 C 29.636719 116.6875 33.449219 120.5 38.152344 120.5 C 42.859375 120.5 46.671875 116.6875 46.671875 111.984375 C 46.671875 107.28125 42.859375 103.46875 38.152344 103.46875 Z M 38.152344 103.46875 "/></clipPath><clipPath id="6fc7c3d46a"><path d="M 29.636719 103.46875 L 46.664062 103.46875 L 46.664062 120.496094 L 29.636719 120.496094 Z M 29.636719 103.46875 "/></clipPath><clipPath id="8c0eafa18a"><path d="M 38.152344 103.46875 C 33.449219 103.46875 29.636719 107.28125 29.636719 111.984375 C 29.636719 116.683594 33.449219 120.496094 38.152344 120.496094 C 42.855469 120.496094 46.664062 116.683594 46.664062 111.984375 C 46.664062 107.28125 42.855469 103.46875 38.152344 103.46875 Z M 38.152344 103.46875 "/></clipPath><clipPath id="487e5ec08f"><path d="M 48.0625 103.46875 L 65.09375 103.46875 L 65.09375 120.5 L 48.0625 120.5 Z M 48.0625 103.46875 "/></clipPath><clipPath id="e4384d1a00"><path d="M 56.578125 103.46875 C 51.875 103.46875 48.0625 107.28125 48.0625 111.984375 C 48.0625 116.6875 51.875 120.5 56.578125 120.5 C 61.28125 120.5 65.09375 116.6875 65.09375 111.984375 C 65.09375 107.28125 61.28125 103.46875 56.578125 103.46875 Z M 56.578125 103.46875 "/></clipPath><clipPath id="46e26b759a"><path d="M 48.0625 103.46875 L 65.089844 103.46875 L 65.089844 120.496094 L 48.0625 120.496094 Z M 48.0625 103.46875 "/></clipPath><clipPath id="b5f8b65936"><path d="M 56.574219 103.46875 C 51.871094 103.46875 48.0625 107.28125 48.0625 111.984375 C 48.0625 116.683594 51.871094 120.496094 56.574219 120.496094 C 61.277344 120.496094 65.089844 116.683594 65.089844 111.984375 C 65.089844 107.28125 61.277344 103.46875 56.574219 103.46875 Z M 56.574219 103.46875 "/></clipPath><clipPath id="599ef01f33"><path d="M 66.484375 103.46875 L 83.515625 103.46875 L 83.515625 120.5 L 66.484375 120.5 Z M 66.484375 103.46875 "/></clipPath><clipPath id="38740f925a"><path d="M 75 103.46875 C 70.296875 103.46875 66.484375 107.28125 66.484375 111.984375 C 66.484375 116.6875 70.296875 120.5 75 120.5 C 79.703125 120.5 83.515625 116.6875 83.515625 111.984375 C 83.515625 107.28125 79.703125 103.46875 75 103.46875 Z M 75 103.46875 "/></clipPath><clipPath id="674ed7decf"><path d="M 66.484375 103.46875 L 83.511719 103.46875 L 83.511719 120.496094 L 66.484375 120.496094 Z M 66.484375 103.46875 "/></clipPath><clipPath id="67d3667a23"><path d="M 74.996094 103.46875 C 70.296875 103.46875 66.484375 107.28125 66.484375 111.984375 C 66.484375 116.683594 70.296875 120.496094 74.996094 120.496094 C 79.699219 120.496094 83.511719 116.683594 83.511719 111.984375 C 83.511719 107.28125 79.699219 103.46875 74.996094 103.46875 Z M 74.996094 103.46875 "/></clipPath><clipPath id="1a9af731dc"><path d="M 84.90625 103.46875 L 101.9375 103.46875 L 101.9375 120.5 L 84.90625 120.5 Z M 84.90625 103.46875 "/></clipPath><clipPath id="11cffb59a8"><path d="M 93.421875 103.46875 C 88.71875 103.46875 84.90625 107.28125 84.90625 111.984375 C 84.90625 116.6875 88.71875 120.5 93.421875 120.5 C 98.125 120.5 101.9375 116.6875 101.9375 111.984375 C 101.9375 107.28125 98.125 103.46875 93.421875 103.46875 Z M 93.421875 103.46875 "/></clipPath><clipPath id="447cf23482"><path d="M 84.90625 103.46875 L 101.933594 103.46875 L 101.933594 120.496094 L 84.90625 120.496094 Z M 84.90625 103.46875 "/></clipPath><clipPath id="f3465f360f"><path d="M 93.421875 103.46875 C 88.71875 103.46875 84.90625 107.28125 84.90625 111.984375 C 84.90625 116.683594 88.71875 120.496094 93.421875 120.496094 C 98.121094 120.496094 101.933594 116.683594 101.933594 111.984375 C 101.933594 107.28125 98.121094 103.46875 93.421875 103.46875 Z M 93.421875 103.46875 "/></clipPath><clipPath id="0e80a45f2a"><path d="M 103.328125 103.46875 L 120.363281 103.46875 L 120.363281 120.5 L 103.328125 120.5 Z M 103.328125 103.46875 "/></clipPath><clipPath id="0e948efdbd"><path d="M 111.847656 103.46875 C 107.140625 103.46875 103.328125 107.28125 103.328125 111.984375 C 103.328125 116.6875 107.140625 120.5 111.847656 120.5 C 116.550781 120.5 120.363281 116.6875 120.363281 111.984375 C 120.363281 107.28125 116.550781 103.46875 111.847656 103.46875 Z M 111.847656 103.46875 "/></clipPath><clipPath id="4370efce6b"><path d="M 103.328125 103.46875 L 120.355469 103.46875 L 120.355469 120.496094 L 103.328125 120.496094 Z M 103.328125 103.46875 "/></clipPath><clipPath id="960d0fa5f5"><path d="M 111.84375 103.46875 C 107.140625 103.46875 103.328125 107.28125 103.328125 111.984375 C 103.328125 116.683594 107.140625 120.496094 111.84375 120.496094 C 116.546875 120.496094 120.355469 116.683594 120.355469 111.984375 C 120.355469 107.28125 116.546875 103.46875 111.84375 103.46875 Z M 111.84375 103.46875 "/></clipPath><clipPath id="782fe256be"><path d="M 64 83 L 95 83 L 95 89.816406 L 64 89.816406 Z M 64 83 "/></clipPath><clipPath id="5be465f74e"><path d="M 55.402344 62 L 87 62 L 87 89.816406 L 55.402344 89.816406 Z M 55.402344 62 "/></clipPath><clipPath id="1ca458c308"><path d="M 68 80 L 74 80 L 74 89.816406 L 68 89.816406 Z M 68 80 "/></clipPath><clipPath id="54da027eb1"><path d="M 62 61.316406 L 96.652344 61.316406 L 96.652344 65 L 62 65 Z M 62 61.316406 "/></clipPath><clipPath id="79ecc14913"><path d="M 45 8 L 111 8 L 111 57 L 45 57 Z M 45 8 "/></clipPath><clipPath id="e024416481"><path d="M 38.832031 12.722656 L 100.402344 -6.503906 L 116.5 45.039062 L 54.929688 64.269531 Z M 38.832031 12.722656 "/></clipPath><clipPath id="0195e8c2fb"><path d="M 38.832031 12.722656 L 100.402344 -6.503906 L 116.5 45.039062 L 54.929688 64.269531 Z M 38.832031 12.722656 "/></clipPath><clipPath id="eba3307e25"><path d="M 60 58.539062 L 65.664062 58.539062 L 65.664062 63.789062 L 60 63.789062 Z M 60 58.539062 "/></clipPath></defs><g id="38355850bb"><g clip-rule="nonzero" clip-path="url(#62d3678fcb)"><g clip-rule="nonzero" clip-path="url(#01f39263f5)"><path style=" stroke:none;fill-rule:nonzero;fill:url(#6848d91af0);" d="M 3.554688 3.554688 L 3.554688 146.445312 L 146.445312 146.445312 L 146.445312 3.554688 Z M 3.554688 3.554688 "/></g></g><g clip-rule="nonzero" clip-path="url(#dd682c7b0a)"><g clip-rule="nonzero" clip-path="url(#294ecb761c)"><path style=" stroke:none;fill-rule:nonzero;fill:#2a2a2a;fill-opacity:1;" d="M 29.636719 103.46875 L 46.671875 103.46875 L 46.671875 120.5 L 29.636719 120.5 Z M 29.636719 103.46875 "/></g></g><g clip-rule="nonzero" clip-path="url(#6fc7c3d46a)"><g clip-rule="nonzero" clip-path="url(#8c0eafa18a)"><path style="fill:none;stroke-width:4;stroke-linecap:butt;stroke-linejoin:miter;stroke:#000000;stroke-opacity:1;stroke-miterlimit:4;" d="M 11.352276 -0.000528486 C 5.081442 -0.000528486 -0.00189148 5.082805 -0.00189148 11.353639 C -0.00189148 17.619264 5.081442 22.702598 11.352276 22.702598 C 17.62311 22.702598 22.701235 17.619264 22.701235 11.353639 C 22.701235 5.082805 17.62311 -0.000528486 11.352276 -0.000528486 Z M 11.352276 -0.000528486 " transform="matrix(0.75,0,0,0.75,29.638137,103.469146)"/></g></g><g clip-rule="nonzero" clip-path="url(#487e5ec08f)"><g clip-rule="nonzero" clip-path="url(#e4384d1a00)"><path style=" stroke:none;fill-rule:nonzero;fill:#2a2a2a;fill-opacity:1;" d="M 48.0625 103.46875 L 65.09375 103.46875 L 65.09375 120.5 L 48.0625 120.5 Z M 48.0625 103.46875 "/></g></g><g clip-rule="nonzero" clip-path="url(#46e26b759a)"><g clip-rule="nonzero" clip-path="url(#b5f8b65936)"><path style="fill:none;stroke-width:4;stroke-linecap:butt;stroke-linejoin:miter;stroke:#000000;stroke-opacity:1;stroke-miterlimit:4;" d="M 11.350918 -0.000528486 C 5.080085 -0.000528486 0.0019594 5.082805 0.0019594 11.353639 C 0.0019594 17.619264 5.080085 22.702598 11.350918 22.702598 C 17.621752 22.702598 22.705086 17.619264 22.705086 11.353639 C 22.705086 5.082805 17.621752 -0.000528486 11.350918 -0.000528486 Z M 11.350918 -0.000528486 " transform="matrix(0.75,0,0,0.75,48.06103,103.469146)"/></g></g><g clip-rule="nonzero" clip-path="url(#599ef01f33)"><g clip-rule="nonzero" clip-path="url(#38740f925a)"><path style=" stroke:none;fill-rule:nonzero;fill:#2a2a2a;fill-opacity:1;" d="M 66.484375 103.46875 L 83.515625 103.46875 L 83.515625 120.5 L 66.484375 120.5 Z M 66.484375 103.46875 "/></g></g><g clip-rule="nonzero" clip-path="url(#674ed7decf)"><g clip-rule="nonzero" clip-path="url(#67d3667a23)"><path style="fill:none;stroke-width:4;stroke-linecap:butt;stroke-linejoin:miter;stroke:#000000;stroke-opacity:1;stroke-miterlimit:4;" d="M 11.349561 -0.000528486 C 5.083935 -0.000528486 0.000601638 5.082805 0.000601638 11.353639 C 0.000601638 17.619264 5.083935 22.702598 11.349561 22.702598 C 17.620394 22.702598 22.703728 17.619264 22.703728 11.353639 C 22.703728 5.082805 17.620394 -0.000528486 11.349561 -0.000528486 Z M 11.349561 -0.000528486 " transform="matrix(0.75,0,0,0.75,66.483924,103.469146)"/></g></g><g clip-rule="nonzero" clip-path="url(#1a9af731dc)"><g clip-rule="nonzero" clip-path="url(#11cffb59a8)"><path style=" stroke:none;fill-rule:nonzero;fill:#2a2a2a;fill-opacity:1;" d="M 84.90625 103.46875 L 101.9375 103.46875 L 101.9375 120.5 L 84.90625 120.5 Z M 84.90625 103.46875 "/></g></g><g clip-rule="nonzero" clip-path="url(#447cf23482)"><g clip-rule="nonzero" clip-path="url(#f3465f360f)"><path style="fill:none;stroke-width:4;stroke-linecap:butt;stroke-linejoin:miter;stroke:#000000;stroke-opacity:1;stroke-miterlimit:4;" d="M 11.353414 -0.000528486 C 5.082581 -0.000528486 -0.00075293 5.082805 -0.00075293 11.353639 C -0.00075293 17.619264 5.082581 22.702598 11.353414 22.702598 C 17.61904 22.702598 22.702373 17.619264 22.702373 11.353639 C 22.702373 5.082805 17.61904 -0.000528486 11.353414 -0.000528486 Z M 11.353414 -0.000528486 " transform="matrix(0.75,0,0,0.75,84.906815,103.469146)"/></g></g><g clip-rule="nonzero" clip-path="url(#0e80a45f2a)"><g clip-rule="nonzero" clip-path="url(#0e948efdbd)"><path style=" stroke:none;fill-rule:nonzero;fill:#2a2a2a;fill-opacity:1;" d="M 103.328125 103.46875 L 120.363281 103.46875 L 120.363281 120.5 L 103.328125 120.5 Z M 103.328125 103.46875 "/></g></g><g clip-rule="nonzero" clip-path="url(#4370efce6b)"><g clip-rule="nonzero" clip-path="url(#960d0fa5f5)"><path style="fill:none;stroke-width:4;stroke-linecap:butt;stroke-linejoin:miter;stroke:#000000;stroke-opacity:1;stroke-miterlimit:4;" d="M 11.352057 -0.000528486 C 5.081223 -0.000528486 -0.0021107 5.082805 -0.0021107 11.353639 C -0.0021107 17.619264 5.081223 22.702598 11.352057 22.702598 C 17.62289 22.702598 22.701016 17.619264 22.701016 11.353639 C 22.701016 5.082805 17.62289 -0.000528486 11.352057 -0.000528486 Z M 11.352057 -0.000528486 " transform="matrix(0.75,0,0,0.75,103.329708,103.469146)"/></g></g><path style=" stroke:none;fill-rule:nonzero;fill:#5e1914;fill-opacity:1;" d="M 62.207031 66.945312 L 65.136719 66.945312 L 65.136719 74.6875 L 62.207031 74.6875 Z M 62.207031 66.945312 "/><path style=" stroke:none;fill-rule:nonzero;fill:#dadcdb;fill-opacity:1;" d="M 94.917969 83.296875 L 79.535156 62.535156 L 70.875 62.535156 L 65.777344 83.308594 L 94.917969 83.308594 Z M 94.917969 83.296875 "/><g clip-rule="nonzero" clip-path="url(#782fe256be)"><path style=" stroke:none;fill-rule:nonzero;fill:#5e1914;fill-opacity:1;" d="M 65.777344 83.308594 L 64.160156 89.894531 L 94.917969 89.894531 L 94.917969 83.308594 Z M 65.777344 83.308594 "/></g><g clip-rule="nonzero" clip-path="url(#5be465f74e)"><path style=" stroke:none;fill-rule:nonzero;fill:#a04947;fill-opacity:1;" d="M 86.25 89.894531 L 86.25 83.296875 L 70.875 62.535156 L 55.492188 83.296875 L 55.492188 89.894531 Z M 86.25 89.894531 "/></g><path style=" stroke:none;fill-rule:nonzero;fill:#dea984;fill-opacity:1;" d="M 70.875 65.269531 L 62.207031 76.976562 L 79.535156 76.976562 Z M 70.875 65.269531 "/><g clip-rule="nonzero" clip-path="url(#1ca458c308)"><path style=" stroke:none;fill-rule:nonzero;fill:#5e1914;fill-opacity:1;" d="M 68.203125 80.765625 L 73.097656 80.765625 L 73.097656 89.894531 L 68.203125 89.894531 Z M 68.203125 80.765625 "/></g><path style=" stroke:none;fill-rule:nonzero;fill:#dea984;fill-opacity:1;" d="M 75.210938 80.765625 L 79.972656 80.765625 L 79.972656 85.867188 L 75.210938 85.867188 Z M 75.210938 80.765625 "/><path style=" stroke:none;fill-rule:nonzero;fill:#dea984;fill-opacity:1;" d="M 61.050781 80.765625 L 65.8125 80.765625 L 65.8125 85.867188 L 61.050781 85.867188 Z M 61.050781 80.765625 "/><path style=" stroke:none;fill-rule:nonzero;fill:#a04947;fill-opacity:1;" d="M 70.488281 64.257812 L 71.253906 64.257812 L 71.253906 79.570312 L 70.488281 79.570312 Z M 70.488281 64.257812 "/><path style=" stroke:none;fill-rule:nonzero;fill:#a04947;fill-opacity:1;" d="M 65.136719 71.53125 L 76.992188 71.53125 L 76.992188 72.296875 L 65.136719 72.296875 Z M 65.136719 71.53125 "/><path style=" stroke:none;fill-rule:nonzero;fill:#a04947;fill-opacity:1;" d="M 77.339844 80.019531 L 77.84375 80.019531 L 77.84375 86.914062 L 77.339844 86.914062 Z M 77.339844 80.019531 "/><path style=" stroke:none;fill-rule:nonzero;fill:#a04947;fill-opacity:1;" d="M 63.179688 80.019531 L 63.683594 80.019531 L 63.683594 86.914062 L 63.179688 86.914062 Z M 63.179688 80.019531 "/><g clip-rule="nonzero" clip-path="url(#54da027eb1)"><path style=" stroke:none;fill-rule:nonzero;fill:#dadcdb;fill-opacity:1;" d="M 63.003906 50.617188 C 63.785156 48.765625 65.203125 47.480469 67.558594 47.398438 C 69.203125 47.339844 70.695312 48.375 72.335938 48.585938 C 75.3125 48.972656 77.871094 46.644531 80.054688 44.582031 C 82.234375 42.515625 85.09375 40.386719 87.96875 41.257812 C 89.457031 41.707031 90.640625 42.910156 92.152344 43.277344 C 95.042969 43.980469 97.875 41.421875 100.835938 41.75 C 102.625 41.949219 104.15625 43.203125 105.128906 44.710938 C 107.070312 47.734375 106.914062 52.039062 104.539062 54.726562 C 102.160156 57.410156 97.660156 58.015625 94.816406 55.824219 C 93.597656 54.878906 92.742188 53.546875 91.617188 52.492188 C 90.492188 51.441406 88.886719 50.640625 87.429688 51.152344 C 85.746094 51.742188 85.074219 53.699219 83.996094 55.121094 C 82.492188 57.09375 79.855469 58.132812 77.410156 57.714844 C 74.363281 57.195312 71.566406 54.625 68.578125 55.425781 C 65.890625 56.140625 62.675781 61.621094 63.785156 64.375 C 62.617188 61.46875 61.289062 54.675781 63.003906 50.617188 Z M 63.003906 50.617188 "/></g><g clip-rule="nonzero" clip-path="url(#79ecc14913)"><g clip-rule="nonzero" clip-path="url(#e024416481)"><g clip-rule="nonzero" clip-path="url(#0195e8c2fb)"><path style=" stroke:none;fill-rule:nonzero;fill:#ffffff;fill-opacity:1;" d="M 49.746094 43.640625 C 46.253906 36.230469 44.527344 27.503906 47.4375 19.847656 C 50.351562 12.191406 58.964844 6.425781 66.820312 8.738281 C 71.910156 10.238281 75.800781 14.648438 80.957031 15.898438 C 84.925781 16.859375 89.085938 15.816406 93.167969 15.9375 C 98.714844 16.105469 104.28125 18.652344 107.542969 23.148438 C 110.804688 27.640625 111.433594 34.078125 108.574219 38.835938 C 106.308594 42.613281 102.304688 44.949219 98.441406 47.078125 C 90.953125 51.203125 83.148438 55.234375 74.660156 56.25 C 66.171875 57.269531 55.320312 55.464844 49.746094 43.640625 Z M 49.746094 43.640625 "/></g></g></g><g clip-rule="nonzero" clip-path="url(#eba3307e25)"><path style=" stroke:none;fill-rule:nonzero;fill:#ffffff;fill-opacity:1;" d="M 65.015625 62.613281 C 64.394531 63.757812 61.414062 63.457031 60.53125 62.171875 C 59.664062 60.871094 60.890625 58.570312 62.390625 58.726562 C 63.882812 58.871094 65.632812 61.46875 65.015625 62.613281 Z M 65.015625 62.613281 "/></g><g style="fill:#ffffff;fill-opacity:1;"><g transform="translate(35.0686, 115.059714)"><path style="stroke:none" d="M 5.609375 -2.429688 L 5.511719 -2.429688 C 5.265625 -0.964844 3.945312 0.0117188 3.160156 0.0117188 C 2.046875 0.0117188 1.425781 -1.230469 1.425781 -3.121094 C 1.425781 -5.027344 1.996094 -6.613281 3.21875 -6.613281 C 4.4375 -6.613281 5.070312 -5.453125 5.304688 -4.4375 L 5.414062 -4.4375 L 5.414062 -6.417969 L 5.34375 -6.417969 C 5.246094 -6.296875 5.070312 -6.238281 4.882812 -6.238281 C 4.742188 -6.238281 4.597656 -6.269531 4.457031 -6.347656 C 4.164062 -6.515625 3.757812 -6.730469 3.238281 -6.730469 C 2.097656 -6.730469 0.34375 -5.589844 0.34375 -3.257812 C 0.34375 -1.308594 1.671875 0.128906 3.148438 0.128906 C 3.523438 0.128906 3.976562 -0.0507812 4.300781 -0.207031 C 4.476562 -0.296875 4.675781 -0.335938 4.863281 -0.335938 C 5.136719 -0.335938 5.382812 -0.246094 5.539062 -0.078125 L 5.609375 -0.078125 Z M 5.609375 -2.429688 "/></g></g><g style="fill:#ffffff;fill-opacity:1;"><g transform="translate(53.727229, 115.059714)"><path style="stroke:none" d="M 5.90625 -0.117188 L 5.226562 -0.117188 L 2.785156 -6.761719 L 2.695312 -6.761719 L 0.355469 -0.117188 L -0.324219 -0.117188 L -0.324219 0 L 1.179688 0 L 1.179688 -0.117188 L 0.492188 -0.117188 L 1.179688 -2.085938 L 3.484375 -2.085938 L 4.203125 -0.117188 L 3.511719 -0.117188 L 3.511719 0 L 5.90625 0 Z M 1.230469 -2.222656 L 2.304688 -5.246094 L 2.332031 -5.246094 L 3.433594 -2.222656 Z M 1.230469 -2.222656 "/></g></g><g style="fill:#ffffff;fill-opacity:1;"><g transform="translate(72.244064, 115.059714)"><path style="stroke:none" d="M 5.175781 -1.652344 C 5.175781 -2.675781 4.210938 -3.296875 3.355469 -3.464844 L 3.355469 -3.484375 C 4.164062 -3.613281 4.949219 -3.976562 4.949219 -4.890625 C 4.949219 -5.746094 4.164062 -6.613281 2.785156 -6.613281 L 0.207031 -6.613281 L 0.207031 -6.496094 L 0.894531 -6.496094 L 0.894531 -0.117188 L 0.207031 -0.117188 L 0.207031 0 L 2.65625 0 C 4.761719 0 5.175781 -0.90625 5.175781 -1.652344 Z M 3.957031 -5.078125 C 3.957031 -3.777344 3.433594 -3.511719 2.628906 -3.511719 L 1.898438 -3.511719 L 1.898438 -6.496094 L 2.726562 -6.496094 C 3.59375 -6.496094 3.957031 -5.886719 3.957031 -5.078125 Z M 4.183594 -1.851562 C 4.183594 -0.828125 3.789062 -0.117188 2.765625 -0.117188 L 1.898438 -0.117188 L 1.898438 -3.394531 L 2.902344 -3.394531 C 3.75 -3.394531 4.183594 -2.773438 4.183594 -1.851562 Z M 4.183594 -1.851562 "/></g></g><g style="fill:#ffffff;fill-opacity:1;"><g transform="translate(91.877526, 115.059714)"><path style="stroke:none" d="M 2.589844 -0.117188 L 1.898438 -0.117188 L 1.898438 -6.496094 L 2.589844 -6.496094 L 2.589844 -6.613281 L 0.207031 -6.613281 L 0.207031 -6.496094 L 0.894531 -6.496094 L 0.894531 -0.117188 L 0.207031 -0.117188 L 0.207031 0 L 2.589844 0 Z M 2.589844 -0.117188 "/></g></g><g style="fill:#ffffff;fill-opacity:1;"><g transform="translate(108.760183, 115.059714)"><path style="stroke:none" d="M 5.867188 -6.613281 L 4.351562 -6.613281 L 4.351562 -6.496094 L 5.039062 -6.496094 L 5.039062 -1.839844 L 5.007812 -1.839844 L 1.957031 -6.613281 L 0.109375 -6.613281 L 0.109375 -6.496094 L 0.796875 -6.496094 L 0.796875 -0.117188 L 0.109375 -0.117188 L 0.109375 0 L 1.625 0 L 1.625 -0.117188 L 0.933594 -0.117188 L 0.933594 -6.398438 L 0.964844 -6.398438 L 5.109375 0.128906 L 5.175781 0.128906 L 5.175781 -6.496094 L 5.867188 -6.496094 Z M 5.867188 -6.613281 "/></g></g><g style="fill:#016045;fill-opacity:1;"><g transform="translate(49.516369, 37.120238)"><path style="stroke:none" d="M 8.765625 0.328125 C 7.523438 0.328125 6.546875 -0.0195312 5.828125 -0.71875 C 5.109375 -1.414062 4.75 -2.335938 4.75 -3.484375 C 4.75 -4.617188 5.109375 -5.546875 5.828125 -6.265625 C 6.546875 -6.992188 7.523438 -7.359375 8.765625 -7.359375 C 10.023438 -7.359375 11.007812 -7.007812 11.71875 -6.3125 C 12.4375 -5.625 12.796875 -4.703125 12.796875 -3.546875 C 12.796875 -2.398438 12.429688 -1.46875 11.703125 -0.75 C 10.984375 -0.03125 10.003906 0.328125 8.765625 0.328125 Z M 8.765625 0.328125 "/></g></g><g style="fill:#016045;fill-opacity:1;"><g transform="translate(67.075073, 37.120238)"><path style="stroke:none" d="M 8.765625 0.328125 C 7.523438 0.328125 6.546875 -0.0195312 5.828125 -0.71875 C 5.109375 -1.414062 4.75 -2.335938 4.75 -3.484375 C 4.75 -4.617188 5.109375 -5.546875 5.828125 -6.265625 C 6.546875 -6.992188 7.523438 -7.359375 8.765625 -7.359375 C 10.023438 -7.359375 11.007812 -7.007812 11.71875 -6.3125 C 12.4375 -5.625 12.796875 -4.703125 12.796875 -3.546875 C 12.796875 -2.398438 12.429688 -1.46875 11.703125 -0.75 C 10.984375 -0.03125 10.003906 0.328125 8.765625 0.328125 Z M 8.765625 0.328125 "/></g></g><g style="fill:#016045;fill-opacity:1;"><g transform="translate(84.633776, 37.120238)"><path style="stroke:none" d="M 8.765625 0.328125 C 7.523438 0.328125 6.546875 -0.0195312 5.828125 -0.71875 C 5.109375 -1.414062 4.75 -2.335938 4.75 -3.484375 C 4.75 -4.617188 5.109375 -5.546875 5.828125 -6.265625 C 6.546875 -6.992188 7.523438 -7.359375 8.765625 -7.359375 C 10.023438 -7.359375 11.007812 -7.007812 11.71875 -6.3125 C 12.4375 -5.625 12.796875 -4.703125 12.796875 -3.546875 C 12.796875 -2.398438 12.429688 -1.46875 11.703125 -0.75 C 10.984375 -0.03125 10.003906 0.328125 8.765625 0.328125 Z M 8.765625 0.328125 "/></g></g></g></svg>