<svg xmlns="http://www.w3.org/2000/svg" xmlns:xlink="http://www.w3.org/1999/xlink" width="1080" zoomAndPan="magnify" viewBox="0 0 810 809.999993" height="1080" preserveAspectRatio="xMidYMid meet" version="1.2"><defs><clipPath id="7b6ffb511e"><path d="M 81 81 L 729 81 L 729 729 L 81 729 Z M 81 81 "/></clipPath><clipPath id="edb168caea"><path d="M 156 81 L 654 81 C 695.421875 81 729 114.578125 729 156 L 729 654 C 729 695.421875 695.421875 729 654 729 L 156 729 C 114.578125 729 81 695.421875 81 654 L 81 156 C 81 114.578125 114.578125 81 156 81 Z M 156 81 "/></clipPath><clipPath id="a16ea57b51"><path d="M 81 417 L 729 417 L 729 728.96875 L 81 728.96875 Z M 81 417 "/></clipPath><clipPath id="9065e5a287"><path d="M 81 489.71875 L 81 654 C 81 695.421875 114.578125 729 156 729 L 654 729 C 695.421875 729 729 695.421875 729 654 L 729 489.71875 C 729 448.296875 695.421875 414.71875 654 414.71875 L 156 414.71875 C 114.578125 414.71875 81 448.296875 81 489.71875 Z M 81 489.71875 "/></clipPath><clipPath id="8e8c5cf4a3"><path d="M 81 526 L 729 526 L 729 728.96875 L 81 728.96875 Z M 81 526 "/></clipPath><clipPath id="620d4f220b"><path d="M 81 489.71875 L 81 654 C 81 695.421875 114.578125 729 156 729 L 654 729 C 695.421875 729 729 695.421875 729 654 L 729 489.71875 C 729 448.296875 695.421875 414.71875 654 414.71875 L 156 414.71875 C 114.578125 414.71875 81 448.296875 81 489.71875 Z M 81 489.71875 "/></clipPath><clipPath id="ecfdbd1d8f"><path d="M 81 637 L 729 637 L 729 728.96875 L 81 728.96875 Z M 81 637 "/></clipPath><clipPath id="92d709bf79"><path d="M 81 489.71875 L 81 654 C 81 695.421875 114.578125 729 156 729 L 654 729 C 695.421875 729 729 695.421875 729 654 L 729 489.71875 C 729 448.296875 695.421875 414.71875 654 414.71875 L 156 414.71875 C 114.578125 414.71875 81 448.296875 81 489.71875 Z M 81 489.71875 "/></clipPath><clipPath id="a8e6526fc1"><path d="M 270 583 L 354 583 L 354 673 L 270 673 Z M 270 583 "/></clipPath><clipPath id="df51fdcb59"><path d="M 81 489.71875 L 81 654 C 81 695.421875 114.578125 729 156 729 L 654 729 C 695.421875 729 729 695.421875 729 654 L 729 489.71875 C 729 448.296875 695.421875 414.71875 654 414.71875 L 156 414.71875 C 114.578125 414.71875 81 448.296875 81 489.71875 Z M 81 489.71875 "/></clipPath><clipPath id="1d47b516a0"><path d="M 356 619 L 419 619 L 419 696 L 356 696 Z M 356 619 "/></clipPath><clipPath id="5cfe8df515"><path d="M 81 489.71875 L 81 654 C 81 695.421875 114.578125 729 156 729 L 654 729 C 695.421875 729 729 695.421875 729 654 L 729 489.71875 C 729 448.296875 695.421875 414.71875 654 414.71875 L 156 414.71875 C 114.578125 414.71875 81 448.296875 81 489.71875 Z M 81 489.71875 "/></clipPath><clipPath id="0792c60db5"><path d="M 506 520 L 564 520 L 564 589 L 506 589 Z M 506 520 "/></clipPath><clipPath id="54cdff2522"><path d="M 81 489.71875 L 81 654 C 81 695.421875 114.578125 729 156 729 L 654 729 C 695.421875 729 729 695.421875 729 654 L 729 489.71875 C 729 448.296875 695.421875 414.71875 654 414.71875 L 156 414.71875 C 114.578125 414.71875 81 448.296875 81 489.71875 Z M 81 489.71875 "/></clipPath><clipPath id="7852d028a6"><path d="M 583 507 L 669 507 L 669 610 L 583 610 Z M 583 507 "/></clipPath><clipPath id="1b3b5e2823"><path d="M 81 489.71875 L 81 654 C 81 695.421875 114.578125 729 156 729 L 654 729 C 695.421875 729 729 695.421875 729 654 L 729 489.71875 C 729 448.296875 695.421875 414.71875 654 414.71875 L 156 414.71875 C 114.578125 414.71875 81 448.296875 81 489.71875 Z M 81 489.71875 "/></clipPath><clipPath id="b509fb8049"><path d="M 81 417 L 729 417 L 729 569.96875 L 81 569.96875 Z M 81 417 "/></clipPath><clipPath id="0bc1556120"><path d="M 81 492.34375 C 81 512.929688 89.179688 532.671875 103.734375 547.230469 C 118.292969 561.785156 138.035156 569.964844 158.621094 569.964844 L 651.378906 569.964844 C 671.964844 569.964844 691.707031 561.785156 706.265625 547.230469 C 720.820312 532.671875 729 512.929688 729 492.34375 C 729 471.753906 720.820312 452.011719 706.265625 437.453125 C 691.707031 422.898438 671.964844 414.71875 651.378906 414.71875 L 158.621094 414.71875 C 138.035156 414.71875 118.292969 422.898438 103.734375 437.453125 C 89.179688 452.011719 81 471.753906 81 492.34375 Z M 81 492.34375 "/></clipPath><clipPath id="b04a5556d0"><path d="M 81 526 L 729 526 L 729 569.96875 L 81 569.96875 Z M 81 526 "/></clipPath><clipPath id="b23f99893f"><path d="M 81 492.34375 C 81 512.929688 89.179688 532.671875 103.734375 547.230469 C 118.292969 561.785156 138.035156 569.964844 158.621094 569.964844 L 651.378906 569.964844 C 671.964844 569.964844 691.707031 561.785156 706.265625 547.230469 C 720.820312 532.671875 729 512.929688 729 492.34375 C 729 471.753906 720.820312 452.011719 706.265625 437.453125 C 691.707031 422.898438 671.964844 414.71875 651.378906 414.71875 L 158.621094 414.71875 C 138.035156 414.71875 118.292969 422.898438 103.734375 437.453125 C 89.179688 452.011719 81 471.753906 81 492.34375 Z M 81 492.34375 "/></clipPath><clipPath id="21ba217a2b"><path d="M 506 520 L 564 520 L 564 569.96875 L 506 569.96875 Z M 506 520 "/></clipPath><clipPath id="38df6ac9de"><path d="M 81 492.34375 C 81 512.929688 89.179688 532.671875 103.734375 547.230469 C 118.292969 561.785156 138.035156 569.964844 158.621094 569.964844 L 651.378906 569.964844 C 671.964844 569.964844 691.707031 561.785156 706.265625 547.230469 C 720.820312 532.671875 729 512.929688 729 492.34375 C 729 471.753906 720.820312 452.011719 706.265625 437.453125 C 691.707031 422.898438 671.964844 414.71875 651.378906 414.71875 L 158.621094 414.71875 C 138.035156 414.71875 118.292969 422.898438 103.734375 437.453125 C 89.179688 452.011719 81 471.753906 81 492.34375 Z M 81 492.34375 "/></clipPath><clipPath id="080f4fe8f7"><path d="M 583 507 L 669 507 L 669 569.96875 L 583 569.96875 Z M 583 507 "/></clipPath><clipPath id="75d3d102ff"><path d="M 81 492.34375 C 81 512.929688 89.179688 532.671875 103.734375 547.230469 C 118.292969 561.785156 138.035156 569.964844 158.621094 569.964844 L 651.378906 569.964844 C 671.964844 569.964844 691.707031 561.785156 706.265625 547.230469 C 720.820312 532.671875 729 512.929688 729 492.34375 C 729 471.753906 720.820312 452.011719 706.265625 437.453125 C 691.707031 422.898438 671.964844 414.71875 651.378906 414.71875 L 158.621094 414.71875 C 138.035156 414.71875 118.292969 422.898438 103.734375 437.453125 C 89.179688 452.011719 81 471.753906 81 492.34375 Z M 81 492.34375 "/></clipPath><clipPath id="a3cff8655d"><path d="M 192.253906 392.835938 L 339 392.835938 L 339 675.585938 L 192.253906 675.585938 Z M 192.253906 392.835938 "/></clipPath><clipPath id="41b96f6e73"><path d="M 128.363281 369.375 L 297 369.375 L 297 694.875 L 128.363281 694.875 Z M 128.363281 369.375 "/></clipPath><clipPath id="11a190865c"><path d="M 140.007812 107.867188 L 453 107.867188 L 453 367.367188 L 140.007812 367.367188 Z M 140.007812 107.867188 "/></clipPath><clipPath id="b40dbb281b"><path d="M 168 107.867188 L 456 107.867188 L 456 367.367188 L 168 367.367188 Z M 168 107.867188 "/></clipPath><clipPath id="715ef5eef0"><path d="M 192 116 L 451 116 L 451 367.367188 L 192 367.367188 Z M 192 116 "/></clipPath><clipPath id="bd4f6ccc2c"><path d="M 357 107.867188 L 670.257812 107.867188 L 670.257812 367.367188 L 357 367.367188 Z M 357 107.867188 "/></clipPath><clipPath id="53f7a12b33"><path d="M 356 107.867188 L 653 107.867188 L 653 367.367188 L 356 367.367188 Z M 356 107.867188 "/></clipPath><clipPath id="687c8c8671"><path d="M 359 125 L 628 125 L 628 367.367188 L 359 367.367188 Z M 359 125 "/></clipPath><clipPath id="62e332cf28"><path d="M 140.007812 107.867188 L 670 107.867188 L 670 330 L 140.007812 330 Z M 140.007812 107.867188 "/></clipPath><clipPath id="9ca9da6a0e"><path d="M 548.390625 385.375 L 588 385.375 L 588 619 L 548.390625 619 Z M 548.390625 385.375 "/></clipPath><clipPath id="4e07daf142"><path d="M 577 385.375 L 616.640625 385.375 L 616.640625 619 L 577 619 Z M 577 385.375 "/></clipPath><clipPath id="59d85e162c"><path d="M 548.390625 385.375 L 588 385.375 L 588 619 L 548.390625 619 Z M 548.390625 385.375 "/></clipPath><clipPath id="746716689d"><path d="M 577 385.375 L 616.640625 385.375 L 616.640625 619 L 577 619 Z M 577 385.375 "/></clipPath></defs><g id="e2a2562fab"><rect x="0" width="810" y="0" height="809.999993" style="fill:#ffffff;fill-opacity:1;stroke:none;"/><rect x="0" width="810" y="0" height="809.999993" style="fill:#ffffff;fill-opacity:1;stroke:none;"/><g clip-rule="nonzero" clip-path="url(#7b6ffb511e)"><g clip-rule="nonzero" clip-path="url(#edb168caea)"><path style=" stroke:none;fill-rule:nonzero;fill:#004430;fill-opacity:1;" d="M 81 81 L 729 81 L 729 729 L 81 729 Z M 81 81 "/></g></g><g clip-rule="nonzero" clip-path="url(#a16ea57b51)"><g clip-rule="nonzero" clip-path="url(#9065e5a287)"><path style=" stroke:none;fill-rule:nonzero;fill:#00b17f;fill-opacity:1;" d="M 728.953125 455.0625 L 728.953125 728.792969 L 81.003906 728.792969 L 81.003906 469.523438 L 84.089844 468.90625 C 129.457031 469.375 173.878906 440.320312 219.085938 448.300781 C 235.621094 451.21875 251.992188 462.070312 268.152344 463.753906 C 286.464844 465.664062 300.664062 453.777344 318.371094 457.023438 C 339.136719 460.828125 359.523438 479.855469 381.410156 484.75 C 424.269531 494.332031 465.53125 478.742188 506.257812 465.496094 C 539.976562 454.53125 568.949219 436.433594 599.5 422.660156 C 616.722656 414.894531 631.578125 416.722656 647.609375 423.96875 C 665.714844 432.152344 686.804688 434.753906 706.355469 442.507812 C 715 445.929688 721.15625 451.28125 728.953125 455.0625 Z M 728.953125 455.0625 "/></g></g><g clip-rule="nonzero" clip-path="url(#8e8c5cf4a3)"><g clip-rule="nonzero" clip-path="url(#620d4f220b)"><path style=" stroke:none;fill-rule:nonzero;fill:#007151;fill-opacity:1;" d="M 728.953125 616.429688 L 728.953125 728.792969 L 81.003906 728.792969 L 81.003906 580.4375 C 102.285156 575.15625 133.554688 548.917969 146.246094 542.976562 C 157.25 537.824219 168.894531 532.6875 180.402344 529.394531 C 202.089844 523.191406 213.519531 529.199219 232.585938 537.5625 C 249.867188 545.148438 269.976562 561.796875 290.132812 558.476562 C 299.761719 556.886719 305.089844 548.234375 315.679688 548.417969 C 321.480469 548.519531 330.695312 554.703125 336.460938 557.046875 C 371.417969 571.253906 407.074219 539.59375 440.589844 548.109375 C 460.804688 553.246094 511.652344 572.679688 531.769531 573.949219 C 567.125 576.183594 711.050781 603.667969 728.953125 616.429688 Z M 728.953125 616.429688 "/></g></g><g clip-rule="nonzero" clip-path="url(#ecfdbd1d8f)"><g clip-rule="nonzero" clip-path="url(#92d709bf79)"><path style=" stroke:none;fill-rule:nonzero;fill:#006347;fill-opacity:1;" d="M 728.953125 707.421875 L 728.953125 728.792969 L 81.003906 728.792969 L 81.003906 689.585938 C 117.425781 675.414062 149.933594 648.769531 188.355469 639.175781 C 212.425781 633.167969 228.160156 647.996094 248.140625 659.09375 C 264.855469 668.382812 286.378906 657.972656 312.222656 665.097656 C 329.125 669.761719 353.308594 685.023438 364.933594 679.355469 C 375.285156 674.3125 378.707031 674.363281 390.777344 676.234375 C 401.882812 677.960938 405.035156 686.386719 417.550781 685.835938 C 434.441406 685.09375 454.238281 667.859375 469.382812 658.921875 C 489.644531 646.964844 504.554688 638.335938 529.953125 640.910156 C 557.574219 643.71875 577.074219 659.730469 601.554688 671.945312 C 622.148438 682.21875 650.746094 699.703125 673.25 699.703125 C 690.851562 699.703125 724.101562 704.054688 728.953125 707.421875 Z M 728.953125 707.421875 "/></g></g><g clip-rule="nonzero" clip-path="url(#a8e6526fc1)"><g clip-rule="nonzero" clip-path="url(#df51fdcb59)"><path style=" stroke:none;fill-rule:nonzero;fill:#006347;fill-opacity:1;" d="M 331.410156 663.292969 L 334.273438 665.851562 L 334.195312 666.007812 L 325.757812 664.214844 L 325.660156 664.347656 L 330.304688 668.238281 C 325.652344 667.011719 320.953125 666.421875 316.070312 666.097656 C 316.070312 667.460938 316.070312 668.746094 316.070312 670.03125 C 316.070312 671.660156 315.566406 672.164062 313.910156 672.167969 C 312.613281 672.167969 311.316406 672.167969 310.019531 672.167969 C 308.253906 672.167969 307.800781 671.707031 307.785156 669.902344 C 307.785156 668.734375 307.773438 667.570312 307.761719 666.402344 C 307.734375 666.300781 307.695312 666.199219 307.644531 666.105469 C 302.941406 666.433594 298.242188 666.972656 293.601562 668.214844 L 298.195312 664.363281 L 298.125 664.207031 L 289.730469 665.996094 L 289.625 665.84375 L 292.667969 663.097656 C 284.761719 664.308594 277.445312 663.277344 270.566406 659.515625 C 280.453125 659.71875 289.195312 657.179688 295.8125 649.347656 C 292.855469 650.269531 289.851562 650.457031 286.804688 649.90625 L 290.421875 647.894531 C 284.480469 647.140625 279.457031 645.019531 275.480469 640.363281 C 284.863281 640.957031 293.125 638.765625 300.109375 632.386719 L 295.410156 633.125 L 295.527344 632.832031 L 294.929688 632.039062 L 296.65625 630.796875 L 284.992188 629.605469 L 284.992188 629.226562 L 289.527344 628.324219 L 286.914062 625.886719 C 290.253906 625.683594 293.179688 624.929688 295.933594 623.554688 C 298.761719 622.175781 301.175781 620.269531 303.171875 617.839844 L 298.171875 618.488281 L 298.046875 618.207031 L 299.988281 616.003906 C 298.34375 616.324219 296.84375 616.800781 295.328125 616.867188 C 293.816406 616.9375 292.285156 616.566406 290.738281 616.195312 C 295.726562 613.449219 300.074219 610.085938 303.792969 605.597656 L 301.4375 605.839844 L 302.328125 604.585938 C 302.585938 604.242188 302.820312 603.878906 303.027344 603.503906 C 300.796875 604.78125 298.492188 605.234375 295.976562 604.355469 C 297.5 603.097656 299.015625 601.960938 300.402344 600.679688 C 302.785156 598.503906 304.859375 596.0625 306.621094 593.355469 C 308.382812 590.648438 309.777344 587.765625 310.800781 584.707031 C 310.996094 584.140625 311.136719 583.492188 311.90625 583.484375 C 312.679688 583.472656 312.824219 584.101562 313.023438 584.679688 C 315.785156 592.589844 320.535156 599.007812 327.378906 603.867188 C 327.539062 603.976562 327.6875 604.105469 327.855469 604.238281 C 326.035156 605.203125 323.890625 604.972656 320.722656 603.445312 L 322.402344 605.84375 L 320.085938 605.605469 C 323.746094 610.085938 328.105469 613.441406 333.148438 615.992188 C 332.066406 616.671875 330.214844 617.121094 328.609375 616.917969 C 327.074219 616.726562 325.5625 616.355469 323.871094 616.03125 L 325.792969 618.222656 L 325.703125 618.503906 L 320.632812 617.855469 C 324.910156 622.78125 330.234375 625.417969 336.925781 625.9375 L 334.332031 628.335938 L 338.902344 629.269531 C 335.167969 630.722656 331.222656 630.050781 327.265625 630.859375 L 328.992188 632.113281 C 328.957031 632.492188 327.75 632.152344 328.898438 633.21875 L 323.84375 632.433594 C 327.03125 635.589844 330.871094 637.644531 335.113281 639.003906 C 339.359375 640.363281 343.710938 640.730469 348.167969 640.367188 C 346.601562 643.640625 339.859375 647.121094 333.382812 647.910156 L 337.054688 649.925781 C 334 650.511719 331.003906 650.289062 328.066406 649.253906 C 329.191406 651.78125 334.582031 655.667969 339.324219 657.410156 C 343.472656 658.9375 345.886719 659.292969 353.523438 659.457031 C 350.011719 661.476562 346.449219 662.589844 342.707031 663.195312 C 338.949219 663.765625 335.183594 663.800781 331.410156 663.292969 Z M 331.410156 663.292969 "/></g></g><g clip-rule="nonzero" clip-path="url(#1d47b516a0)"><g clip-rule="nonzero" clip-path="url(#5cfe8df515)"><path style=" stroke:none;fill-rule:nonzero;fill:#006347;fill-opacity:1;" d="M 401.910156 679.890625 L 404.070312 681.820312 L 404.015625 681.9375 L 397.660156 680.585938 L 397.585938 680.6875 L 401.085938 683.613281 C 397.582031 682.691406 390.367188 692.4375 390.367188 693.40625 C 390.367188 694.632812 389.988281 695.011719 388.746094 695.015625 L 385.808594 695.015625 C 384.480469 695.015625 384.140625 694.667969 384.125 693.308594 C 384.125 692.429688 384.125 683.109375 384.109375 682.234375 C 384.089844 682.160156 384.058594 682.085938 384.019531 682.019531 C 380.480469 682.265625 376.941406 682.667969 373.433594 683.605469 L 376.890625 680.703125 L 376.835938 680.585938 L 370.519531 681.933594 L 370.4375 681.816406 L 372.726562 679.746094 C 366.773438 680.660156 361.277344 679.882812 356.089844 677.050781 C 363.53125 677.203125 370.117188 675.292969 375.101562 669.398438 C 372.875 670.089844 370.617188 670.230469 368.320312 669.816406 L 371.046875 668.304688 C 366.570312 667.738281 362.789062 666.144531 359.792969 662.636719 C 366.859375 663.082031 373.078125 661.429688 378.332031 656.628906 L 374.792969 657.183594 L 374.882812 656.96875 L 374.429688 656.371094 L 375.726562 655.4375 L 366.941406 654.539062 L 366.941406 654.253906 L 370.367188 653.574219 L 368.402344 651.742188 C 370.789062 651.628906 373.050781 651.042969 375.191406 649.984375 C 377.320312 648.945312 379.136719 647.511719 380.640625 645.679688 L 376.875 646.164062 L 376.78125 645.949219 L 378.253906 644.289062 C 377.011719 644.53125 375.875 644.886719 374.742188 644.9375 C 373.613281 644.988281 372.453125 644.710938 371.289062 644.429688 C 375.046875 642.363281 378.320312 639.828125 381.121094 636.453125 L 379.34375 636.632812 L 380.015625 635.6875 C 380.210938 635.425781 380.382812 635.152344 380.539062 634.867188 C 378.859375 635.832031 377.125 636.164062 375.230469 635.515625 C 376.378906 634.570312 377.523438 633.714844 378.566406 632.753906 C 380.359375 631.113281 381.921875 629.277344 383.246094 627.238281 C 384.574219 625.199219 385.625 623.03125 386.398438 620.726562 C 386.542969 620.292969 386.648438 619.8125 387.230469 619.804688 C 387.808594 619.796875 387.917969 620.269531 388.070312 620.707031 C 390.144531 626.660156 393.726562 631.496094 398.871094 635.152344 C 398.988281 635.234375 399.101562 635.332031 399.226562 635.433594 C 397.859375 636.160156 396.242188 635.984375 393.855469 634.835938 L 395.117188 636.640625 L 393.371094 636.460938 C 396.089844 639.773438 399.367188 642.382812 403.207031 644.28125 C 402.144531 644.878906 401.007812 645.113281 399.796875 644.980469 C 398.640625 644.835938 397.503906 644.546875 396.226562 644.3125 L 397.675781 645.960938 L 397.605469 646.175781 L 393.789062 645.683594 C 397.007812 649.390625 401.019531 651.378906 406.054688 651.769531 L 404.113281 653.574219 L 407.554688 654.28125 C 404.746094 655.371094 401.769531 654.867188 398.789062 655.476562 L 400.097656 656.421875 C 400.070312 656.707031 399.160156 656.449219 400.023438 657.253906 L 396.21875 656.660156 C 398.617188 659.035156 401.511719 660.585938 404.707031 661.609375 C 407.902344 662.632812 411.1875 662.90625 414.535156 662.636719 C 413.355469 665.101562 408.269531 667.722656 403.402344 668.316406 L 406.171875 669.828125 C 403.871094 670.269531 401.613281 670.101562 399.40625 669.320312 C 400.25 671.226562 404.308594 674.15625 407.878906 675.464844 C 411 676.617188 412.824219 676.882812 418.570312 677.007812 C 416.03125 678.449219 413.316406 679.386719 410.429688 679.816406 C 407.59375 680.25 404.753906 680.273438 401.910156 679.890625 Z M 401.910156 679.890625 "/></g></g><g clip-rule="nonzero" clip-path="url(#0792c60db5)"><g clip-rule="nonzero" clip-path="url(#54cdff2522)"><path style=" stroke:none;fill-rule:nonzero;fill:#007151;fill-opacity:1;" d="M 548.445312 574.730469 L 550.402344 576.480469 L 550.351562 576.585938 L 544.574219 575.359375 L 544.507812 575.453125 L 547.6875 578.113281 C 544.5 577.273438 541.285156 576.867188 537.941406 576.648438 C 537.941406 577.582031 537.941406 586.132812 537.941406 587.019531 C 537.941406 588.132812 537.597656 588.476562 536.472656 588.480469 L 533.804688 588.480469 C 532.597656 588.480469 532.292969 588.164062 532.273438 586.929688 C 532.273438 586.132812 532.273438 577.660156 532.257812 576.863281 C 532.242188 576.792969 532.214844 576.726562 532.179688 576.660156 C 528.960938 576.875 525.746094 577.25 522.566406 578.105469 L 525.707031 575.46875 L 525.660156 575.359375 L 519.917969 576.585938 L 519.84375 576.480469 L 521.925781 574.597656 C 516.523438 575.429688 511.511719 574.722656 506.804688 572.148438 C 513.566406 572.289062 519.550781 570.550781 524.085938 565.191406 C 522.0625 565.824219 520.007812 565.953125 517.921875 565.574219 L 520.398438 564.199219 C 516.332031 563.683594 512.894531 562.230469 510.171875 559.046875 C 516.59375 559.449219 522.246094 557.949219 527.023438 553.585938 L 523.808594 554.089844 L 523.890625 553.894531 L 523.480469 553.351562 L 524.660156 552.5 L 516.667969 551.683594 L 516.667969 551.429688 L 519.777344 550.8125 L 517.992188 549.144531 C 520.160156 549.042969 522.21875 548.507812 524.164062 547.546875 C 526.097656 546.601562 527.75 545.300781 529.117188 543.636719 L 525.695312 544.070312 L 525.605469 543.878906 L 526.945312 542.363281 C 525.820312 542.582031 524.785156 542.910156 523.753906 542.949219 C 522.726562 542.992188 521.671875 542.734375 520.613281 542.488281 C 524.027344 540.609375 527.003906 538.308594 529.546875 535.234375 L 527.9375 535.398438 L 528.546875 534.535156 C 528.722656 534.300781 528.878906 534.050781 529.023438 533.792969 C 527.496094 534.65625 525.921875 534.976562 524.199219 534.375 C 525.242188 533.507812 526.277344 532.734375 527.222656 531.863281 C 530.539062 528.832031 532.910156 525.1875 534.339844 520.929688 C 534.472656 520.542969 534.566406 520.101562 535.09375 520.09375 C 535.625 520.085938 535.722656 520.527344 535.859375 520.914062 C 537.75 526.328125 541 530.71875 545.683594 534.042969 C 545.792969 534.117188 545.898438 534.207031 546.007812 534.296875 C 544.761719 534.953125 543.292969 534.800781 541.125 533.75 L 542.273438 535.390625 L 540.6875 535.230469 C 543.15625 538.242188 546.136719 540.609375 549.628906 542.335938 C 548.660156 542.882812 547.628906 543.09375 546.527344 542.972656 C 545.476562 542.839844 544.441406 542.585938 543.285156 542.363281 L 544.601562 543.863281 L 544.539062 544.054688 L 541.070312 543.609375 C 543.996094 546.980469 547.640625 548.792969 552.21875 549.140625 L 550.441406 550.78125 L 553.570312 551.425781 C 551.011719 552.421875 548.3125 551.960938 545.605469 552.507812 L 546.792969 553.371094 C 546.769531 553.632812 545.941406 553.398438 546.730469 554.128906 L 543.273438 553.589844 C 545.453125 555.75 548.082031 557.15625 550.988281 558.089844 C 553.890625 559.019531 556.871094 559.265625 559.917969 559.019531 C 558.839844 561.257812 554.230469 563.640625 549.800781 564.179688 L 552.320312 565.558594 C 550.226562 565.960938 548.179688 565.808594 546.167969 565.101562 C 546.9375 566.828125 550.628906 569.492188 553.871094 570.683594 C 556.710938 571.726562 558.363281 571.980469 563.59375 572.085938 C 561.285156 573.398438 558.816406 574.25 556.191406 574.644531 C 553.613281 575.042969 551.03125 575.070312 548.445312 574.730469 Z M 548.445312 574.730469 "/></g></g><g clip-rule="nonzero" clip-path="url(#7852d028a6)"><g clip-rule="nonzero" clip-path="url(#1b3b5e2823)"><path style=" stroke:none;fill-rule:nonzero;fill:#007151;fill-opacity:1;" d="M 646.03125 589.28125 L 648.96875 591.90625 L 648.890625 592.066406 L 640.234375 590.226562 L 640.132812 590.367188 L 644.898438 594.355469 C 640.125 593.097656 635.304688 592.488281 630.292969 592.160156 C 630.292969 593.554688 630.292969 606.375 630.292969 607.695312 C 630.292969 609.367188 629.777344 609.882812 628.085938 609.886719 C 626.75 609.886719 625.417969 609.886719 624.085938 609.886719 C 622.273438 609.886719 621.808594 609.414062 621.792969 607.5625 C 621.792969 606.363281 621.777344 593.667969 621.769531 592.472656 C 621.742188 592.367188 621.703125 592.265625 621.648438 592.167969 C 616.824219 592.503906 612.003906 593.046875 607.238281 594.328125 L 611.949219 590.375 L 611.875 590.214844 L 603.265625 592.050781 L 603.15625 591.894531 L 606.273438 589.085938 C 598.164062 590.328125 590.660156 589.269531 583.605469 585.410156 C 593.742188 585.628906 602.714844 583.015625 609.5 574.980469 C 606.46875 575.925781 603.386719 576.117188 600.261719 575.554688 L 603.972656 573.488281 C 597.878906 572.714844 592.722656 570.539062 588.636719 565.761719 C 598.261719 566.371094 606.734375 564.121094 613.894531 557.582031 L 609.070312 558.339844 L 609.191406 558.039062 L 608.578125 557.226562 L 610.347656 555.953125 L 598.375 554.730469 L 598.375 554.34375 L 603.039062 553.414062 L 600.363281 550.914062 C 603.785156 550.699219 606.792969 549.933594 609.613281 548.519531 C 612.515625 547.105469 614.988281 545.152344 617.039062 542.660156 L 611.910156 543.320312 L 611.777344 543.03125 L 613.785156 540.769531 C 612.09375 541.097656 610.558594 541.585938 609.003906 541.648438 C 607.449219 541.707031 605.878906 541.335938 604.292969 540.957031 C 609.410156 538.148438 613.871094 534.691406 617.683594 530.085938 L 615.269531 530.332031 L 616.179688 529.035156 C 616.445312 528.679688 616.683594 528.308594 616.898438 527.921875 C 614.605469 529.230469 612.246094 529.695312 609.664062 528.785156 C 611.226562 527.488281 612.785156 526.328125 614.199219 525.019531 C 616.644531 522.785156 618.773438 520.28125 620.578125 517.503906 C 622.386719 514.730469 623.816406 511.769531 624.871094 508.632812 C 625.066406 508.050781 625.210938 507.386719 626.003906 507.375 C 626.796875 507.363281 626.945312 508.011719 627.152344 508.605469 C 629.980469 516.71875 634.859375 523.304688 641.878906 528.289062 C 642.039062 528.402344 642.191406 528.535156 642.363281 528.671875 C 640.5 529.660156 638.300781 529.425781 635.042969 527.855469 L 636.773438 530.3125 L 634.394531 530.066406 C 638.152344 534.667969 642.621094 538.105469 647.789062 540.726562 C 646.679688 541.421875 644.78125 541.882812 643.136719 541.675781 C 641.566406 541.480469 640.015625 541.097656 638.277344 540.765625 L 640.246094 543.011719 L 640.15625 543.300781 L 634.976562 542.636719 C 639.363281 547.6875 644.824219 550.398438 651.6875 550.929688 L 649.019531 553.386719 L 653.710938 554.347656 C 649.875 555.835938 645.828125 555.148438 641.769531 555.976562 L 643.550781 557.269531 C 643.515625 557.65625 642.277344 557.308594 643.453125 558.402344 L 638.269531 557.597656 C 641.539062 560.839844 645.480469 562.945312 649.835938 564.339844 C 654.191406 565.734375 658.65625 566.105469 663.230469 565.738281 C 661.621094 569.097656 654.703125 572.664062 648.058594 573.472656 L 651.835938 575.542969 C 648.699219 576.144531 645.628906 575.914062 642.617188 574.851562 C 643.769531 577.445312 649.300781 581.433594 654.164062 583.222656 C 658.417969 584.789062 660.898438 585.152344 668.730469 585.320312 C 665.128906 587.394531 661.472656 588.539062 657.632812 589.15625 C 653.773438 589.753906 649.90625 589.796875 646.03125 589.28125 Z M 646.03125 589.28125 "/></g></g><g clip-rule="nonzero" clip-path="url(#b509fb8049)"><g clip-rule="nonzero" clip-path="url(#0bc1556120)"><path style=" stroke:none;fill-rule:nonzero;fill:#00b17f;fill-opacity:1;" d="M 728.953125 455.0625 L 728.953125 728.792969 L 81.003906 728.792969 L 81.003906 469.523438 L 84.089844 468.90625 C 129.457031 469.375 173.878906 440.320312 219.085938 448.300781 C 235.621094 451.21875 251.992188 462.070312 268.152344 463.753906 C 286.464844 465.664062 300.664062 453.777344 318.371094 457.023438 C 339.136719 460.828125 359.523438 479.855469 381.410156 484.75 C 424.269531 494.332031 465.53125 478.742188 506.257812 465.496094 C 539.976562 454.53125 568.949219 436.433594 599.5 422.660156 C 616.722656 414.894531 631.578125 416.722656 647.609375 423.96875 C 665.714844 432.152344 686.804688 434.753906 706.355469 442.507812 C 715 445.929688 721.15625 451.28125 728.953125 455.0625 Z M 728.953125 455.0625 "/></g></g><g clip-rule="nonzero" clip-path="url(#b04a5556d0)"><g clip-rule="nonzero" clip-path="url(#b23f99893f)"><path style=" stroke:none;fill-rule:nonzero;fill:#007151;fill-opacity:1;" d="M 728.953125 616.429688 L 728.953125 728.792969 L 81.003906 728.792969 L 81.003906 580.4375 C 102.285156 575.15625 133.554688 548.917969 146.246094 542.976562 C 157.25 537.824219 168.894531 532.6875 180.402344 529.394531 C 202.089844 523.191406 213.519531 529.199219 232.585938 537.5625 C 249.867188 545.148438 269.976562 561.796875 290.132812 558.476562 C 299.761719 556.886719 305.089844 548.234375 315.679688 548.417969 C 321.480469 548.519531 330.695312 554.703125 336.460938 557.046875 C 371.417969 571.253906 407.074219 539.59375 440.589844 548.109375 C 460.804688 553.246094 511.652344 572.679688 531.769531 573.949219 C 567.125 576.183594 711.050781 603.667969 728.953125 616.429688 Z M 728.953125 616.429688 "/></g></g><g clip-rule="nonzero" clip-path="url(#21ba217a2b)"><g clip-rule="nonzero" clip-path="url(#38df6ac9de)"><path style=" stroke:none;fill-rule:nonzero;fill:#007151;fill-opacity:1;" d="M 548.445312 574.730469 L 550.402344 576.480469 L 550.351562 576.585938 L 544.574219 575.359375 L 544.507812 575.453125 L 547.6875 578.113281 C 544.5 577.273438 541.285156 576.867188 537.941406 576.648438 C 537.941406 577.582031 537.941406 586.132812 537.941406 587.019531 C 537.941406 588.132812 537.597656 588.476562 536.472656 588.480469 L 533.804688 588.480469 C 532.597656 588.480469 532.292969 588.164062 532.273438 586.929688 C 532.273438 586.132812 532.273438 577.660156 532.257812 576.863281 C 532.242188 576.792969 532.214844 576.726562 532.179688 576.660156 C 528.960938 576.875 525.746094 577.25 522.566406 578.105469 L 525.707031 575.46875 L 525.660156 575.359375 L 519.917969 576.585938 L 519.84375 576.480469 L 521.925781 574.597656 C 516.523438 575.429688 511.511719 574.722656 506.804688 572.148438 C 513.566406 572.289062 519.550781 570.550781 524.085938 565.191406 C 522.0625 565.824219 520.007812 565.953125 517.921875 565.574219 L 520.398438 564.199219 C 516.332031 563.683594 512.894531 562.230469 510.171875 559.046875 C 516.59375 559.449219 522.246094 557.949219 527.023438 553.585938 L 523.808594 554.089844 L 523.890625 553.894531 L 523.480469 553.351562 L 524.660156 552.5 L 516.667969 551.683594 L 516.667969 551.429688 L 519.777344 550.8125 L 517.992188 549.144531 C 520.160156 549.042969 522.21875 548.507812 524.164062 547.546875 C 526.097656 546.601562 527.75 545.300781 529.117188 543.636719 L 525.695312 544.070312 L 525.605469 543.878906 L 526.945312 542.363281 C 525.820312 542.582031 524.785156 542.910156 523.753906 542.949219 C 522.726562 542.992188 521.671875 542.734375 520.613281 542.488281 C 524.027344 540.609375 527.003906 538.308594 529.546875 535.234375 L 527.9375 535.398438 L 528.546875 534.535156 C 528.722656 534.300781 528.878906 534.050781 529.023438 533.792969 C 527.496094 534.65625 525.921875 534.976562 524.199219 534.375 C 525.242188 533.507812 526.277344 532.734375 527.222656 531.863281 C 530.539062 528.832031 532.910156 525.1875 534.339844 520.929688 C 534.472656 520.542969 534.566406 520.101562 535.09375 520.09375 C 535.625 520.085938 535.722656 520.527344 535.859375 520.914062 C 537.75 526.328125 541 530.71875 545.683594 534.042969 C 545.792969 534.117188 545.898438 534.207031 546.007812 534.296875 C 544.761719 534.953125 543.292969 534.800781 541.125 533.75 L 542.273438 535.390625 L 540.6875 535.230469 C 543.15625 538.242188 546.136719 540.609375 549.628906 542.335938 C 548.660156 542.882812 547.628906 543.09375 546.527344 542.972656 C 545.476562 542.839844 544.441406 542.585938 543.285156 542.363281 L 544.601562 543.863281 L 544.539062 544.054688 L 541.070312 543.609375 C 543.996094 546.980469 547.640625 548.792969 552.21875 549.140625 L 550.441406 550.78125 L 553.570312 551.425781 C 551.011719 552.421875 548.3125 551.960938 545.605469 552.507812 L 546.792969 553.371094 C 546.769531 553.632812 545.941406 553.398438 546.730469 554.128906 L 543.273438 553.589844 C 545.453125 555.75 548.082031 557.15625 550.988281 558.089844 C 553.890625 559.019531 556.871094 559.265625 559.917969 559.019531 C 558.839844 561.257812 554.230469 563.640625 549.800781 564.179688 L 552.320312 565.558594 C 550.226562 565.960938 548.179688 565.808594 546.167969 565.101562 C 546.9375 566.828125 550.628906 569.492188 553.871094 570.683594 C 556.710938 571.726562 558.363281 571.980469 563.59375 572.085938 C 561.285156 573.398438 558.816406 574.25 556.191406 574.644531 C 553.613281 575.042969 551.03125 575.070312 548.445312 574.730469 Z M 548.445312 574.730469 "/></g></g><g clip-rule="nonzero" clip-path="url(#080f4fe8f7)"><g clip-rule="nonzero" clip-path="url(#75d3d102ff)"><path style=" stroke:none;fill-rule:nonzero;fill:#007151;fill-opacity:1;" d="M 646.03125 589.28125 L 648.96875 591.90625 L 648.890625 592.066406 L 640.234375 590.226562 L 640.132812 590.367188 L 644.898438 594.355469 C 640.125 593.097656 635.304688 592.488281 630.292969 592.160156 C 630.292969 593.554688 630.292969 606.375 630.292969 607.695312 C 630.292969 609.367188 629.777344 609.882812 628.085938 609.886719 C 626.75 609.886719 625.417969 609.886719 624.085938 609.886719 C 622.273438 609.886719 621.808594 609.414062 621.792969 607.5625 C 621.792969 606.363281 621.777344 593.667969 621.769531 592.472656 C 621.742188 592.367188 621.703125 592.265625 621.648438 592.167969 C 616.824219 592.503906 612.003906 593.046875 607.238281 594.328125 L 611.949219 590.375 L 611.875 590.214844 L 603.265625 592.050781 L 603.15625 591.894531 L 606.273438 589.085938 C 598.164062 590.328125 590.660156 589.269531 583.605469 585.410156 C 593.742188 585.628906 602.714844 583.015625 609.5 574.980469 C 606.46875 575.925781 603.386719 576.117188 600.261719 575.554688 L 603.972656 573.488281 C 597.878906 572.714844 592.722656 570.539062 588.636719 565.761719 C 598.261719 566.371094 606.734375 564.121094 613.894531 557.582031 L 609.070312 558.339844 L 609.191406 558.039062 L 608.578125 557.226562 L 610.347656 555.953125 L 598.375 554.730469 L 598.375 554.34375 L 603.039062 553.414062 L 600.363281 550.914062 C 603.785156 550.699219 606.792969 549.933594 609.613281 548.519531 C 612.515625 547.105469 614.988281 545.152344 617.039062 542.660156 L 611.910156 543.320312 L 611.777344 543.03125 L 613.785156 540.769531 C 612.09375 541.097656 610.558594 541.585938 609.003906 541.648438 C 607.449219 541.707031 605.878906 541.335938 604.292969 540.957031 C 609.410156 538.148438 613.871094 534.691406 617.683594 530.085938 L 615.269531 530.332031 L 616.179688 529.035156 C 616.445312 528.679688 616.683594 528.308594 616.898438 527.921875 C 614.605469 529.230469 612.246094 529.695312 609.664062 528.785156 C 611.226562 527.488281 612.785156 526.328125 614.199219 525.019531 C 616.644531 522.785156 618.773438 520.28125 620.578125 517.503906 C 622.386719 514.730469 623.816406 511.769531 624.871094 508.632812 C 625.066406 508.050781 625.210938 507.386719 626.003906 507.375 C 626.796875 507.363281 626.945312 508.011719 627.152344 508.605469 C 629.980469 516.71875 634.859375 523.304688 641.878906 528.289062 C 642.039062 528.402344 642.191406 528.535156 642.363281 528.671875 C 640.5 529.660156 638.300781 529.425781 635.042969 527.855469 L 636.773438 530.3125 L 634.394531 530.066406 C 638.152344 534.667969 642.621094 538.105469 647.789062 540.726562 C 646.679688 541.421875 644.78125 541.882812 643.136719 541.675781 C 641.566406 541.480469 640.015625 541.097656 638.277344 540.765625 L 640.246094 543.011719 L 640.15625 543.300781 L 634.976562 542.636719 C 639.363281 547.6875 644.824219 550.398438 651.6875 550.929688 L 649.019531 553.386719 L 653.710938 554.347656 C 649.875 555.835938 645.828125 555.148438 641.769531 555.976562 L 643.550781 557.269531 C 643.515625 557.65625 642.277344 557.308594 643.453125 558.402344 L 638.269531 557.597656 C 641.539062 560.839844 645.480469 562.945312 649.835938 564.339844 C 654.191406 565.734375 658.65625 566.105469 663.230469 565.738281 C 661.621094 569.097656 654.703125 572.664062 648.058594 573.472656 L 651.835938 575.542969 C 648.699219 576.144531 645.628906 575.914062 642.617188 574.851562 C 643.769531 577.445312 649.300781 581.433594 654.164062 583.222656 C 658.417969 584.789062 660.898438 585.152344 668.730469 585.320312 C 665.128906 587.394531 661.472656 588.539062 657.632812 589.15625 C 653.773438 589.753906 649.90625 589.796875 646.03125 589.28125 Z M 646.03125 589.28125 "/></g></g><g clip-rule="nonzero" clip-path="url(#a3cff8655d)"><path style=" stroke:none;fill-rule:nonzero;fill:#007151;fill-opacity:1;" d="M 255.289062 410.292969 C 255.398438 410.070312 255.546875 409.8125 255.660156 409.589844 C 255.511719 409.8125 255.398438 410.070312 255.289062 410.292969 Z M 259.753906 401.066406 C 259.679688 401.289062 259.570312 401.472656 259.496094 401.695312 C 259.605469 401.472656 259.679688 401.289062 259.753906 401.066406 Z M 260.972656 398.152344 C 260.898438 398.335938 260.824219 398.558594 260.75 398.742188 C 260.824219 398.558594 260.898438 398.371094 260.972656 398.152344 Z M 338.582031 625.550781 C 339.097656 626.878906 337.546875 627.210938 336.589844 627.359375 C 335.589844 627.582031 334.558594 627.800781 333.5625 627.988281 C 331.382812 628.429688 329.207031 628.984375 326.957031 629.167969 C 323.929688 629.167969 320.941406 629.425781 317.953125 629.574219 C 315.257812 629.5 312.601562 629.242188 309.90625 629.167969 C 309.683594 629.316406 309.425781 629.390625 309.132812 629.277344 C 308.984375 629.242188 308.875 629.203125 308.726562 629.167969 C 308.6875 629.167969 308.6875 629.167969 308.652344 629.167969 C 307.175781 629.128906 305.699219 629.058594 304.296875 628.613281 C 304.261719 628.578125 304.1875 628.578125 304.148438 628.539062 C 304.519531 629.425781 304.8125 630.347656 305.109375 631.234375 C 306.328125 634.519531 307.398438 637.914062 309.019531 641.050781 C 310.535156 643.855469 312.011719 646.660156 313.449219 649.539062 C 314.003906 650.570312 314.554688 651.566406 315.035156 652.636719 C 315.625 653.78125 314.960938 654.925781 313.597656 654.777344 C 309.683594 654.851562 305.808594 654.261719 301.972656 653.523438 C 299.316406 653.117188 296.546875 653.117188 294 652.230469 C 292.671875 651.789062 291.34375 651.308594 290.050781 650.792969 C 287.652344 649.980469 285.660156 648.355469 283.632812 646.917969 C 279.5 644.410156 277.503906 642.96875 275.144531 638.539062 C 274.292969 641.234375 273.410156 643.964844 273.039062 646.769531 C 272.820312 648.097656 273.039062 650.460938 271.046875 650.128906 C 268.648438 649.722656 266.25 649.167969 263.925781 648.429688 C 263.925781 649.980469 263.851562 651.492188 263.925781 653.042969 C 264.515625 658.246094 265.105469 663.488281 265.179688 668.691406 C 265.179688 670.019531 265.289062 671.386719 265.328125 672.714844 C 265.328125 673.230469 265.511719 673.785156 265.253906 674.261719 C 265.363281 674.707031 265.179688 675.1875 264.625 675.371094 C 263.960938 675.480469 263.113281 675.148438 262.449219 675.261719 C 260.382812 675.296875 258.277344 675.445312 256.210938 675.40625 C 254.921875 675.371094 253.628906 675.296875 252.410156 675.1875 C 251.894531 675.222656 251.378906 675.40625 250.898438 675.148438 C 250.34375 674.964844 250.160156 674.558594 250.160156 674.191406 C 250.121094 674.003906 250.160156 673.820312 250.160156 673.671875 C 250.234375 672.457031 250.269531 671.199219 250.269531 669.945312 C 250.308594 663.597656 250.640625 657.25 250.933594 650.902344 C 250.933594 648.320312 251.082031 645.738281 251.414062 643.191406 C 251.523438 642.082031 251.191406 641.199219 251.378906 640.164062 C 249.273438 637.988281 247.355469 635.664062 245.621094 633.191406 C 243.703125 630.386719 242.632812 627.136719 241.117188 624.148438 C 239.640625 625.476562 238.09375 626.65625 236.46875 627.839844 C 235.03125 628.984375 233.886719 630.199219 232.371094 631.195312 C 228.421875 633.78125 224.363281 636.140625 220.121094 638.171875 C 218.203125 639.058594 216.207031 639.683594 214.214844 640.386719 C 212 641.199219 209.789062 641.972656 207.460938 642.269531 C 203.402344 642.746094 199.378906 643.746094 195.285156 643.671875 C 194.363281 643.597656 193.105469 644.003906 192.480469 643.117188 C 192.257812 642.746094 192.296875 642.34375 192.515625 642.011719 C 193.070312 641.308594 193.660156 640.570312 194.175781 639.796875 C 197.277344 635.035156 200.15625 630.089844 202.847656 625.109375 C 203.476562 623.816406 204.03125 622.449219 204.546875 621.121094 C 205.25 619.054688 206.429688 616.988281 206.429688 614.738281 C 205.359375 614.40625 204.25 614.554688 203.144531 614.515625 C 201.078125 614.480469 198.9375 614.40625 196.980469 613.667969 C 196.167969 613.371094 194.988281 612.894531 194.988281 611.859375 C 195.210938 610.457031 196.097656 609.203125 196.6875 607.949219 C 198.863281 604.257812 201.300781 600.75 203.847656 597.320312 C 204.546875 596.25 205.136719 595.105469 205.800781 594.035156 C 206.835938 592.300781 208.3125 590.640625 209.121094 588.832031 C 208.386719 588.203125 207.351562 588.277344 206.429688 588.058594 C 204.582031 587.6875 202.703125 587.503906 200.820312 587.246094 C 199.417969 587.023438 196.613281 586.101562 197.683594 584.21875 C 200.042969 578.535156 202.886719 573.109375 206.171875 567.90625 C 207.460938 565.472656 208.828125 563.074219 210.230469 560.710938 C 211.925781 556.945312 213.257812 553 213.921875 548.902344 C 212.1875 548.679688 210.414062 548.71875 208.644531 548.53125 C 208.125 548.496094 207.574219 548.421875 207.128906 548.164062 C 205.984375 547.390625 206.464844 545.839844 207.277344 544.992188 C 208.53125 543.402344 209.714844 541.742188 210.929688 540.117188 C 213.292969 537.019531 215.582031 533.882812 217.464844 530.488281 C 218.3125 529.085938 219.308594 527.757812 220.046875 526.28125 C 221.042969 524.214844 222.113281 522.222656 223.035156 520.117188 C 224.105469 517.570312 225.175781 514.804688 226.46875 512.40625 C 227.132812 510.964844 227.832031 509.488281 228.3125 507.976562 C 228.386719 507.792969 228.351562 507.496094 228.351562 507.421875 C 228.203125 505.613281 222.960938 506.90625 223.21875 503.917969 C 223.996094 501.148438 225.582031 498.675781 226.617188 495.980469 C 228.054688 493.066406 229.160156 490.078125 230.195312 487.089844 C 232.59375 480.667969 235.507812 474.355469 236.359375 467.53125 C 236.359375 467.199219 236.359375 466.867188 236.246094 466.570312 C 235.914062 465.90625 235.066406 465.683594 234.550781 465.203125 C 233.515625 464.355469 231.558594 463.175781 231.964844 461.625 C 232.777344 460.113281 233.960938 458.820312 234.992188 457.453125 C 235.988281 455.867188 236.949219 454.28125 237.796875 452.621094 C 239.53125 448.636719 241.449219 444.722656 243.039062 440.699219 C 243.921875 437.785156 244.808594 434.871094 245.804688 431.992188 C 245.289062 431.808594 244.773438 431.660156 244.253906 431.511719 C 243.039062 431.070312 240.34375 431.03125 240.859375 429.148438 C 242.707031 425.496094 245.4375 422.359375 247.796875 419.039062 C 250.492188 414.90625 253.039062 410.699219 255.289062 406.34375 C 256.433594 403.945312 257.503906 401.472656 258.609375 399.035156 C 259.496094 397.15625 259.9375 395.050781 261.007812 393.242188 C 261.378906 392.835938 262.078125 392.910156 262.410156 393.316406 C 263.113281 393.574219 263.335938 394.644531 263.703125 395.234375 C 264.441406 396.5625 264.367188 398.1875 264.957031 399.589844 C 265.917969 401.804688 266.617188 404.09375 267.320312 406.417969 C 268.09375 408.707031 268.832031 410.992188 269.460938 413.320312 C 270.417969 417.007812 271.488281 420.773438 272.558594 424.425781 C 272.890625 425.496094 273.445312 426.457031 273.851562 427.527344 C 274.480469 430.074219 270.679688 429.078125 269.277344 428.929688 C 272.449219 434.757812 274.8125 440.996094 277.984375 446.828125 C 278.796875 448.414062 279.570312 450 280.421875 451.550781 C 281.636719 453.914062 282.449219 456.496094 283.1875 459.042969 C 284.332031 461.921875 282.265625 463.0625 279.644531 462.992188 C 280.972656 466.570312 282.191406 470.074219 283.484375 473.65625 C 284.222656 475.613281 284.996094 477.640625 284.773438 479.78125 C 284.515625 481.773438 282.007812 481.8125 280.421875 482.03125 C 282.15625 486.054688 283.59375 490.152344 285.402344 494.136719 C 286.953125 497.496094 288.722656 500.78125 290.3125 504.101562 C 291.160156 505.796875 292.082031 507.496094 293.261719 508.972656 C 294.445312 510.410156 295.699219 511.851562 296.546875 513.546875 C 297.210938 514.691406 296.917969 516.390625 295.328125 516.316406 C 292.191406 516.316406 289.054688 516.425781 285.957031 516.242188 C 287.984375 520.339844 289.351562 524.765625 291.898438 528.566406 C 294.039062 531.632812 296.398438 534.472656 298.796875 537.3125 C 300.386719 539.085938 302.046875 540.820312 303.484375 542.738281 C 306.917969 547.316406 310.3125 551.964844 312.859375 557.09375 C 313.523438 558.347656 313.964844 560.195312 312.230469 560.75 C 309.945312 561.671875 307.542969 562.371094 305.074219 562.554688 C 307.140625 565.953125 309.316406 569.273438 311.382812 572.632812 C 312.601562 574.292969 313.671875 576.101562 314.777344 577.835938 C 316.21875 579.828125 317.765625 581.710938 319.5 583.445312 C 320.757812 584.585938 322.121094 585.730469 322.675781 587.390625 C 323.449219 589.496094 320.832031 590.085938 319.28125 590.269531 C 317.027344 590.675781 314.851562 591.195312 312.601562 591.527344 C 313.746094 593.371094 314.742188 595.328125 315.996094 597.136719 C 317.324219 599.089844 318.800781 600.9375 320.164062 602.855469 C 323.375 607.355469 326.660156 611.785156 329.503906 616.546875 C 330.757812 618.28125 332.453125 619.832031 333.929688 621.195312 C 335.589844 622.449219 337.363281 623.78125 338.582031 625.550781 Z M 338.582031 625.550781 "/></g><g clip-rule="nonzero" clip-path="url(#41b96f6e73)"><path style=" stroke:none;fill-rule:nonzero;fill:#006347;fill-opacity:1;" d="M 200.800781 389.433594 C 200.929688 389.179688 201.097656 388.882812 201.226562 388.628906 C 201.054688 388.882812 200.929688 389.179688 200.800781 389.433594 Z M 205.933594 378.832031 C 205.847656 379.085938 205.71875 379.296875 205.636719 379.550781 C 205.761719 379.296875 205.847656 379.085938 205.933594 378.832031 Z M 207.332031 375.480469 C 207.246094 375.695312 207.164062 375.949219 207.078125 376.160156 C 207.164062 375.949219 207.246094 375.734375 207.332031 375.480469 Z M 296.511719 636.785156 C 297.105469 638.3125 295.324219 638.691406 294.222656 638.863281 C 293.074219 639.117188 291.886719 639.371094 290.742188 639.582031 C 288.242188 640.09375 285.738281 640.726562 283.152344 640.941406 C 279.675781 640.941406 276.242188 641.238281 272.804688 641.40625 C 269.710938 641.320312 266.65625 641.023438 263.5625 640.941406 C 263.308594 641.109375 263.011719 641.195312 262.671875 641.066406 C 262.5 641.023438 262.375 640.980469 262.203125 640.941406 C 262.164062 640.941406 262.164062 640.941406 262.121094 640.941406 C 260.421875 640.898438 258.726562 640.8125 257.117188 640.304688 C 257.074219 640.261719 256.988281 640.261719 256.945312 640.21875 C 257.371094 641.238281 257.710938 642.296875 258.050781 643.316406 C 259.449219 647.089844 260.679688 650.988281 262.542969 654.59375 C 264.28125 657.816406 265.980469 661.039062 267.632812 664.347656 C 268.269531 665.535156 268.90625 666.679688 269.457031 667.910156 C 270.132812 669.222656 269.371094 670.539062 267.800781 670.371094 C 263.308594 670.453125 258.855469 669.777344 254.445312 668.925781 C 251.390625 668.460938 248.210938 668.460938 245.285156 667.445312 C 243.757812 666.933594 242.230469 666.382812 240.746094 665.789062 C 237.992188 664.855469 235.703125 662.992188 233.367188 661.335938 C 228.621094 658.453125 226.328125 656.800781 223.617188 651.710938 C 222.640625 654.804688 221.621094 657.945312 221.199219 661.167969 C 220.945312 662.695312 221.199219 665.40625 218.910156 665.027344 C 216.152344 664.558594 213.394531 663.921875 210.722656 663.074219 C 210.722656 664.855469 210.640625 666.59375 210.722656 668.375 C 211.402344 674.355469 212.082031 680.378906 212.167969 686.355469 C 212.167969 687.882812 212.292969 689.453125 212.335938 690.976562 C 212.335938 691.570312 212.546875 692.207031 212.25 692.757812 C 212.378906 693.269531 212.167969 693.820312 211.53125 694.03125 C 210.765625 694.160156 209.792969 693.777344 209.027344 693.90625 C 206.652344 693.945312 204.238281 694.117188 201.863281 694.074219 C 200.378906 694.03125 198.894531 693.945312 197.492188 693.820312 C 196.898438 693.863281 196.304688 694.074219 195.753906 693.777344 C 195.121094 693.566406 194.90625 693.097656 194.90625 692.675781 C 194.863281 692.460938 194.90625 692.25 194.90625 692.082031 C 194.992188 690.679688 195.035156 689.238281 195.035156 687.796875 C 195.078125 680.503906 195.457031 673.210938 195.796875 665.917969 C 195.796875 662.949219 195.96875 659.980469 196.347656 657.054688 C 196.476562 655.78125 196.09375 654.765625 196.304688 653.578125 C 193.890625 651.074219 191.683594 648.402344 189.691406 645.5625 C 187.484375 642.339844 186.257812 638.609375 184.519531 635.171875 C 182.820312 636.699219 181.039062 638.054688 179.175781 639.414062 C 177.519531 640.726562 176.207031 642.128906 174.46875 643.273438 C 169.929688 646.242188 165.265625 648.953125 160.390625 651.285156 C 158.183594 652.304688 155.894531 653.027344 153.605469 653.832031 C 151.058594 654.765625 148.515625 655.65625 145.84375 655.992188 C 141.179688 656.546875 136.558594 657.691406 131.851562 657.605469 C 130.789062 657.519531 129.347656 657.988281 128.628906 656.96875 C 128.371094 656.546875 128.414062 656.078125 128.667969 655.695312 C 129.304688 654.890625 129.984375 654.042969 130.578125 653.152344 C 134.140625 647.683594 137.449219 642 140.542969 636.273438 C 141.265625 634.792969 141.898438 633.222656 142.492188 631.695312 C 143.300781 629.320312 144.65625 626.945312 144.65625 624.359375 C 143.425781 623.976562 142.15625 624.148438 140.882812 624.105469 C 138.507812 624.0625 136.046875 623.976562 133.800781 623.128906 C 132.867188 622.789062 131.511719 622.238281 131.511719 621.050781 C 131.765625 619.441406 132.78125 618 133.460938 616.558594 C 135.964844 612.316406 138.761719 608.289062 141.6875 604.34375 C 142.492188 603.113281 143.171875 601.800781 143.9375 600.570312 C 145.125 598.578125 146.820312 596.667969 147.753906 594.589844 C 146.902344 593.871094 145.714844 593.953125 144.65625 593.699219 C 142.535156 593.277344 140.375 593.0625 138.210938 592.765625 C 136.601562 592.511719 133.375 591.453125 134.605469 589.289062 C 137.320312 582.757812 140.585938 576.527344 144.359375 570.546875 C 145.84375 567.75 147.414062 564.992188 149.023438 562.277344 C 150.976562 557.953125 152.5 553.414062 153.265625 548.707031 C 151.273438 548.453125 149.238281 548.496094 147.199219 548.285156 C 146.605469 548.242188 145.972656 548.15625 145.460938 547.859375 C 144.148438 546.96875 144.699219 545.1875 145.632812 544.214844 C 147.074219 542.390625 148.429688 540.480469 149.832031 538.617188 C 152.542969 535.054688 155.171875 531.449219 157.335938 527.546875 C 158.3125 525.9375 159.457031 524.410156 160.304688 522.714844 C 161.449219 520.339844 162.679688 518.050781 163.738281 515.632812 C 164.96875 512.707031 166.199219 509.523438 167.683594 506.769531 C 168.445312 505.113281 169.25 503.417969 169.804688 501.679688 C 169.886719 501.46875 169.84375 501.128906 169.84375 501.042969 C 169.675781 498.964844 163.65625 500.449219 163.949219 497.015625 C 164.839844 493.835938 166.664062 490.992188 167.851562 487.898438 C 169.507812 484.546875 170.777344 481.113281 171.964844 477.679688 C 174.722656 470.300781 178.070312 463.050781 179.046875 455.203125 C 179.046875 454.820312 179.046875 454.441406 178.921875 454.101562 C 178.539062 453.339844 177.5625 453.082031 176.96875 452.53125 C 175.78125 451.558594 173.535156 450.199219 174 448.417969 C 174.933594 446.679688 176.292969 445.195312 177.476562 443.628906 C 178.625 441.804688 179.726562 439.980469 180.703125 438.070312 C 182.695312 433.492188 184.898438 428.996094 186.722656 424.375 C 187.742188 421.023438 188.757812 417.675781 189.902344 414.367188 C 189.308594 414.15625 188.714844 413.984375 188.121094 413.816406 C 186.722656 413.308594 183.628906 413.265625 184.222656 411.101562 C 186.339844 406.902344 189.480469 403.300781 192.191406 399.484375 C 195.289062 394.734375 198.214844 389.898438 200.800781 384.894531 C 202.117188 382.140625 203.347656 379.296875 204.617188 376.5 C 205.636719 374.335938 206.144531 371.917969 207.375 369.839844 C 207.796875 369.375 208.605469 369.460938 208.984375 369.925781 C 209.792969 370.222656 210.046875 371.453125 210.46875 372.132812 C 211.316406 373.65625 211.234375 375.523438 211.910156 377.136719 C 213.015625 379.679688 213.820312 382.308594 214.625 384.980469 C 215.515625 387.609375 216.363281 390.238281 217.085938 392.910156 C 218.1875 397.152344 219.417969 401.476562 220.648438 405.675781 C 221.027344 406.902344 221.664062 408.007812 222.132812 409.234375 C 222.851562 412.164062 218.484375 411.015625 216.875 410.847656 C 220.519531 417.546875 223.234375 424.714844 226.882812 431.414062 C 227.8125 433.238281 228.703125 435.0625 229.679688 436.84375 C 231.078125 439.554688 232.011719 442.523438 232.859375 445.449219 C 234.175781 448.757812 231.800781 450.074219 228.789062 449.988281 C 230.316406 454.101562 231.714844 458.128906 233.199219 462.242188 C 234.046875 464.492188 234.9375 466.824219 234.683594 469.28125 C 234.386719 471.574219 231.503906 471.613281 229.679688 471.871094 C 231.671875 476.492188 233.328125 481.199219 235.40625 485.777344 C 237.183594 489.636719 239.222656 493.410156 241.042969 497.226562 C 242.019531 499.179688 243.078125 501.128906 244.4375 502.824219 C 245.792969 504.480469 247.234375 506.132812 248.210938 508.082031 C 248.972656 509.398438 248.636719 511.347656 246.8125 511.265625 C 243.207031 511.265625 239.601562 511.390625 236.039062 511.179688 C 238.371094 515.886719 239.941406 520.976562 242.867188 525.34375 C 245.328125 528.863281 248.042969 532.128906 250.796875 535.394531 C 252.621094 537.429688 254.53125 539.421875 256.183594 541.625 C 260.125 546.882812 264.027344 552.226562 266.953125 558.121094 C 267.71875 559.5625 268.226562 561.683594 266.234375 562.320312 C 263.605469 563.378906 260.847656 564.1875 258.007812 564.398438 C 260.382812 568.300781 262.882812 572.117188 265.257812 575.976562 C 266.65625 577.882812 267.886719 579.960938 269.160156 581.953125 C 270.8125 584.242188 272.59375 586.40625 274.585938 588.398438 C 276.027344 589.714844 277.597656 591.027344 278.234375 592.9375 C 279.125 595.355469 276.113281 596.03125 274.332031 596.246094 C 271.746094 596.710938 269.242188 597.304688 266.65625 597.6875 C 267.972656 599.808594 269.117188 602.054688 270.558594 604.132812 C 272.085938 606.378906 273.78125 608.5 275.351562 610.703125 C 279.039062 615.878906 282.8125 620.96875 286.078125 626.4375 C 287.519531 628.429688 289.472656 630.210938 291.167969 631.78125 C 293.074219 633.222656 295.113281 634.75 296.511719 636.785156 Z M 296.511719 636.785156 "/></g><path style=" stroke:none;fill-rule:nonzero;fill:#faddbf;fill-opacity:1;" d="M 152.625 321.71875 C 152.625 321.71875 373.480469 256.71875 406.058594 124.976562 "/><path style=" stroke:none;fill-rule:nonzero;fill:#faddbf;fill-opacity:1;" d="M 656.535156 321.71875 C 605.71875 304.214844 555.507812 283.796875 510.402344 254.066406 C 463.78125 223.332031 417.023438 181.28125 403.101562 124.976562 "/><g clip-rule="nonzero" clip-path="url(#11a190865c)"><path style="fill:none;stroke-width:2;stroke-linecap:butt;stroke-linejoin:miter;stroke:#faddbf;stroke-opacity:1;stroke-miterlimit:10;" d="M 345.01168 167.37973 C 345.01168 167.37973 222.934711 192.562668 213.722376 274.971157 " transform="matrix(-1.733409,0,0,-1.733409,773.569957,610.903237)"/></g><g clip-rule="nonzero" clip-path="url(#b40dbb281b)"><path style="fill:none;stroke-width:2;stroke-linecap:butt;stroke-linejoin:miter;stroke:#faddbf;stroke-opacity:1;stroke-miterlimit:10;" d="M 320.54085 147.738165 C 320.54085 147.738165 205.55116 195.846027 212.302666 278.495641 " transform="matrix(-1.733409,0,0,-1.733409,773.569957,610.903237)"/></g><g clip-rule="nonzero" clip-path="url(#715ef5eef0)"><path style="fill:none;stroke-width:1.806;stroke-linecap:butt;stroke-linejoin:miter;stroke:#faddbf;stroke-opacity:1;stroke-miterlimit:10;" d="M 309.814157 141.405811 C 309.814157 141.405811 205.961298 184.853421 212.059288 259.494072 " transform="matrix(-1.733409,0,0,-1.733409,773.569957,610.903237)"/></g><g clip-rule="nonzero" clip-path="url(#bd4f6ccc2c)"><path style="fill:none;stroke-width:2;stroke-linecap:butt;stroke-linejoin:miter;stroke:#faddbf;stroke-opacity:1;stroke-miterlimit:10;" d="M 80.350832 167.611841 C 80.350832 167.611841 202.515687 192.362106 212.016471 274.739046 " transform="matrix(-1.733409,0,0,-1.733409,773.569957,610.903237)"/></g><g clip-rule="nonzero" clip-path="url(#53f7a12b33)"><path style="fill:none;stroke-width:2;stroke-linecap:butt;stroke-linejoin:miter;stroke:#faddbf;stroke-opacity:1;stroke-miterlimit:10;" d="M 97.894382 150.518992 C 97.894382 150.518992 215.142085 192.833089 212.519003 275.714814 " transform="matrix(-1.733409,0,0,-1.733409,773.569957,610.903237)"/></g><g clip-rule="nonzero" clip-path="url(#687c8c8671)"><path style="fill:none;stroke-width:1.806;stroke-linecap:butt;stroke-linejoin:miter;stroke:#faddbf;stroke-opacity:1;stroke-miterlimit:10;" d="M 109.783883 141.405811 C 109.783883 141.405811 215.671659 179.620779 213.305477 254.473259 " transform="matrix(-1.733409,0,0,-1.733409,773.569957,610.903237)"/></g><g clip-rule="nonzero" clip-path="url(#62e332cf28)"><path style=" stroke:none;fill-rule:nonzero;fill:#7a2f00;fill-opacity:1;" d="M 142.890625 325.59375 L 143.613281 326.496094 C 146.601562 330.234375 152.058594 330.84375 155.796875 327.851562 L 403.714844 129.605469 C 404.648438 129.609375 405.574219 129.640625 406.496094 129.699219 L 654.300781 327.851562 C 658.035156 330.84375 663.492188 330.234375 666.480469 326.496094 L 667.199219 325.59375 C 670.191406 321.855469 669.585938 316.402344 665.847656 313.410156 C 634.148438 287.65625 604.710938 258.050781 571.097656 234.183594 C 545.808594 216.226562 523.824219 196.351562 499.597656 176.980469 C 484.003906 164.515625 466.460938 153.59375 450.6875 141.363281 C 448.644531 139.730469 431.570312 129.007812 431.570312 126.074219 C 431.691406 125.453125 431.777344 124.820312 431.777344 124.175781 C 431.777344 115.621094 420.746094 108.632812 406.789062 108.050781 C 406.554688 108.027344 406.328125 108.03125 406.097656 108.027344 C 405.699219 108.015625 405.308594 107.992188 404.910156 107.992188 C 404.539062 107.992188 404.179688 108.019531 403.816406 108.027344 C 403.664062 108.035156 403.511719 108.027344 403.363281 108.042969 C 389.25 108.523438 378.039062 115.554688 378.039062 124.179688 C 378.039062 124.886719 378.140625 125.582031 378.289062 126.265625 C 379.253906 130.738281 334.664062 160.460938 329.359375 164.703125 C 313.953125 177.019531 298.898438 189.746094 283.5 202.0625 C 255.515625 224.4375 226.832031 243.878906 198.847656 266.253906 C 180.410156 280.992188 162.683594 298.671875 144.246094 313.414062 C 140.507812 316.402344 139.898438 321.855469 142.890625 325.59375 Z M 142.890625 325.59375 "/></g><g clip-rule="nonzero" clip-path="url(#9ca9da6a0e)"><path style=" stroke:none;fill-rule:nonzero;fill:#fff4e9;fill-opacity:1;" d="M 572.761719 618.734375 L 553.316406 618.734375 C 550.628906 618.734375 548.453125 616.554688 548.453125 613.871094 C 548.453125 611.1875 550.628906 609.007812 553.316406 609.007812 L 572.761719 609.007812 C 575.445312 609.007812 577.625 606.832031 577.625 604.148438 L 577.625 399.960938 C 577.625 397.273438 575.445312 395.097656 572.761719 395.097656 L 553.316406 395.097656 C 550.628906 395.097656 548.453125 392.921875 548.453125 390.234375 C 548.453125 387.550781 550.628906 385.375 553.316406 385.375 L 572.761719 385.375 C 580.816406 385.375 587.347656 391.902344 587.347656 399.960938 L 587.347656 604.148438 C 587.347656 612.203125 580.816406 618.734375 572.761719 618.734375 Z M 572.761719 618.734375 "/></g><g clip-rule="nonzero" clip-path="url(#4e07daf142)"><path style=" stroke:none;fill-rule:nonzero;fill:#fff4e9;fill-opacity:1;" d="M 611.65625 618.734375 L 592.207031 618.734375 C 584.152344 618.734375 577.625 612.203125 577.625 604.148438 L 577.625 399.960938 C 577.625 391.902344 584.152344 385.375 592.207031 385.375 L 611.65625 385.375 C 614.339844 385.375 616.519531 387.550781 616.519531 390.238281 C 616.519531 392.921875 614.339844 395.097656 611.65625 395.097656 L 592.207031 395.097656 C 589.523438 395.097656 587.347656 397.273438 587.347656 399.960938 L 587.347656 604.148438 C 587.347656 606.832031 589.523438 609.011719 592.207031 609.011719 L 611.65625 609.011719 C 614.339844 609.011719 616.519531 611.1875 616.519531 613.871094 C 616.519531 616.558594 614.339844 618.734375 611.65625 618.734375 Z M 611.65625 618.734375 "/></g><g clip-rule="nonzero" clip-path="url(#59d85e162c)"><path style=" stroke:none;fill-rule:nonzero;fill:#fff4e9;fill-opacity:1;" d="M 572.761719 618.734375 L 553.316406 618.734375 C 550.628906 618.734375 548.453125 616.554688 548.453125 613.871094 C 548.453125 611.1875 550.628906 609.007812 553.316406 609.007812 L 572.761719 609.007812 C 575.445312 609.007812 577.625 606.832031 577.625 604.148438 L 577.625 399.960938 C 577.625 397.273438 575.445312 395.097656 572.761719 395.097656 L 553.316406 395.097656 C 550.628906 395.097656 548.453125 392.921875 548.453125 390.234375 C 548.453125 387.550781 550.628906 385.375 553.316406 385.375 L 572.761719 385.375 C 580.816406 385.375 587.347656 391.902344 587.347656 399.960938 L 587.347656 604.148438 C 587.347656 612.203125 580.816406 618.734375 572.761719 618.734375 Z M 572.761719 618.734375 "/></g><g clip-rule="nonzero" clip-path="url(#746716689d)"><path style=" stroke:none;fill-rule:nonzero;fill:#fff4e9;fill-opacity:1;" d="M 611.65625 618.734375 L 592.207031 618.734375 C 584.152344 618.734375 577.625 612.203125 577.625 604.148438 L 577.625 399.960938 C 577.625 391.902344 584.152344 385.375 592.207031 385.375 L 611.65625 385.375 C 614.339844 385.375 616.519531 387.550781 616.519531 390.238281 C 616.519531 392.921875 614.339844 395.097656 611.65625 395.097656 L 592.207031 395.097656 C 589.523438 395.097656 587.347656 397.273438 587.347656 399.960938 L 587.347656 604.148438 C 587.347656 606.832031 589.523438 609.011719 592.207031 609.011719 L 611.65625 609.011719 C 614.339844 609.011719 616.519531 611.1875 616.519531 613.871094 C 616.519531 616.558594 614.339844 618.734375 611.65625 618.734375 Z M 611.65625 618.734375 "/></g><g style="fill:#fff4e9;fill-opacity:1;"><g transform="translate(201.316472, 591.515928)"><path style="stroke:none" d="M 76.578125 -60.125 L 52.484375 -60.125 L 52.484375 -36.03125 C 52.484375 -33.164062 52.164062 -31.015625 51.53125 -29.578125 C 50.894531 -27.828125 49.941406 -26.316406 48.671875 -25.046875 C 47.398438 -23.773438 45.410156 -23.140625 42.703125 -23.140625 C 40.640625 -23.140625 38.972656 -23.773438 37.703125 -25.046875 C 35.148438 -27.753906 33.796875 -31.414062 33.640625 -36.03125 L 33.640625 -139.328125 C 33.796875 -140.597656 33.953125 -141.75 34.109375 -142.78125 C 34.273438 -143.820312 34.515625 -144.816406 34.828125 -145.765625 C 35.460938 -147.359375 36.375 -148.832031 37.5625 -150.1875 C 38.757812 -151.539062 40.472656 -152.21875 42.703125 -152.21875 C 45.410156 -152.21875 47.398438 -151.578125 48.671875 -150.296875 C 51.210938 -147.597656 52.484375 -143.941406 52.484375 -139.328125 L 52.484375 -115.234375 L 76.578125 -115.234375 L 76.578125 -139.328125 C 76.265625 -146.484375 74.835938 -152.765625 72.296875 -158.171875 C 71.179688 -160.554688 69.785156 -162.898438 68.109375 -165.203125 C 66.441406 -167.515625 64.414062 -169.546875 62.03125 -171.296875 C 59.644531 -173.046875 56.820312 -174.476562 53.5625 -175.59375 C 50.300781 -176.707031 46.523438 -177.265625 42.234375 -177.265625 C 37.929688 -177.265625 34.109375 -176.707031 30.765625 -175.59375 C 27.429688 -174.476562 24.570312 -173.046875 22.1875 -171.296875 C 19.800781 -169.546875 17.8125 -167.515625 16.21875 -165.203125 C 14.632812 -162.898438 13.285156 -160.554688 12.171875 -158.171875 C 9.617188 -152.765625 8.1875 -146.484375 7.875 -139.328125 L 7.875 -36.03125 C 8.1875 -28.707031 9.617188 -22.34375 12.171875 -16.9375 C 13.285156 -14.550781 14.632812 -12.242188 16.21875 -10.015625 C 17.8125 -7.796875 19.800781 -5.8125 22.1875 -4.0625 C 27.113281 -0.0820312 33.796875 1.90625 42.234375 1.90625 C 50.503906 1.90625 57.101562 -0.0820312 62.03125 -4.0625 C 64.414062 -5.8125 66.441406 -7.796875 68.109375 -10.015625 C 69.785156 -12.242188 71.179688 -14.550781 72.296875 -16.9375 C 74.835938 -22.34375 76.265625 -28.707031 76.578125 -36.03125 Z M 76.578125 -60.125 "/></g></g><g style="fill:#fff4e9;fill-opacity:1;"><g transform="translate(275.269844, 591.515928)"><path style="stroke:none" d="M 2.390625 0 L 27.4375 0 L 32.203125 -35.78125 L 57.015625 -35.78125 L 61.796875 0 L 86.84375 0 L 60.359375 -175.359375 L 28.875 -175.359375 Z M 46.046875 -118.328125 L 53.4375 -62.984375 L 35.78125 -62.984375 L 43.1875 -118.328125 L 43.890625 -122.875 L 45.328125 -122.875 Z M 46.046875 -118.328125 "/></g></g><g style="fill:#fff4e9;fill-opacity:1;"><g transform="translate(355.902964, 591.515928)"><path style="stroke:none" d="M 9.546875 0 L 41.28125 0 C 48.90625 -0.320312 55.300781 -1.910156 60.46875 -4.765625 C 65.644531 -7.628906 69.742188 -11.289062 72.765625 -15.75 C 75.785156 -20.363281 77.929688 -25.53125 79.203125 -31.25 C 80.472656 -36.976562 81.109375 -43.101562 81.109375 -49.625 C 81.109375 -58.53125 80.15625 -65.6875 78.25 -71.09375 C 74.59375 -81.90625 69.582031 -89.0625 63.21875 -92.5625 C 66.238281 -95.269531 68.78125 -97.894531 70.84375 -100.4375 C 72.914062 -102.988281 74.59375 -105.691406 75.875 -108.546875 C 77.144531 -111.410156 78.015625 -114.472656 78.484375 -117.734375 C 78.960938 -120.992188 79.203125 -124.691406 79.203125 -128.828125 C 79.203125 -137.578125 78.207031 -144.894531 76.21875 -150.78125 C 74.238281 -156.664062 71.257812 -161.4375 67.28125 -165.09375 C 63.300781 -168.75 58.367188 -171.375 52.484375 -172.96875 C 46.597656 -174.5625 39.835938 -175.359375 32.203125 -175.359375 L 9.546875 -175.359375 Z M 35.3125 -103.0625 L 35.3125 -149.828125 C 36.425781 -149.828125 38.09375 -149.742188 40.3125 -149.578125 C 42.539062 -149.421875 44.691406 -148.628906 46.765625 -147.203125 C 48.984375 -145.773438 50.804688 -143.46875 52.234375 -140.28125 C 53.671875 -137.101562 54.390625 -132.492188 54.390625 -126.453125 C 54.390625 -120.398438 53.671875 -115.785156 52.234375 -112.609375 C 50.804688 -109.429688 48.984375 -107.125 46.765625 -105.6875 C 44.691406 -104.257812 42.539062 -103.460938 40.3125 -103.296875 C 38.09375 -103.140625 36.425781 -103.0625 35.3125 -103.0625 Z M 35.3125 -25.53125 L 35.3125 -79.453125 C 36.425781 -79.453125 38.09375 -79.410156 40.3125 -79.328125 C 42.539062 -79.242188 44.691406 -78.410156 46.765625 -76.828125 C 48.984375 -75.234375 50.804688 -72.566406 52.234375 -68.828125 C 53.671875 -65.085938 54.390625 -59.640625 54.390625 -52.484375 C 54.390625 -45.328125 53.671875 -39.878906 52.234375 -36.140625 C 50.804688 -32.398438 48.984375 -29.738281 46.765625 -28.15625 C 44.691406 -26.5625 42.539062 -25.722656 40.3125 -25.640625 C 38.09375 -25.566406 36.425781 -25.53125 35.3125 -25.53125 Z M 35.3125 -25.53125 "/></g></g><g style="fill:#fff4e9;fill-opacity:1;"><g transform="translate(434.150465, 591.515928)"><path style="stroke:none" d="M 9.546875 -175.359375 L 9.546875 0 L 35.3125 0 L 35.3125 -175.359375 Z M 9.546875 -175.359375 "/></g></g><g style="fill:#fff4e9;fill-opacity:1;"><g transform="translate(470.410934, 591.515928)"><path style="stroke:none" d="M 36.734375 -91.375 L 61.796875 0 L 84.6875 0 L 84.6875 -175.359375 L 61.078125 -175.359375 L 61.078125 -75.875 L 59.640625 -75.875 L 57.5 -83.984375 L 32.453125 -175.359375 L 9.546875 -175.359375 L 9.546875 0 L 33.15625 0 L 33.15625 -99.484375 L 34.59375 -99.484375 Z M 36.734375 -91.375 "/></g></g></g></svg>