<svg xmlns="http://www.w3.org/2000/svg" xmlns:xlink="http://www.w3.org/1999/xlink" width="1080" zoomAndPan="magnify" viewBox="0 0 810 809.999993" height="1080" preserveAspectRatio="xMidYMid meet" version="1.2"><defs><clipPath id="711e9343ad"><path d="M 161.847656 161.84375 L 648.152344 161.84375 L 648.152344 648.152344 L 161.847656 648.152344 Z M 161.847656 161.84375 "/></clipPath><clipPath id="cc2902f7c8"><path d="M 161.847656 404.996094 C 161.847656 539.285156 270.710938 648.152344 405 648.152344 C 539.289062 648.152344 648.152344 539.285156 648.152344 404.996094 C 648.152344 270.707031 539.289062 161.84375 405 161.84375 C 270.710938 161.84375 161.847656 270.707031 161.847656 404.996094 Z M 161.847656 404.996094 "/></clipPath><linearGradient x1="0.00000591236" gradientTransform="matrix(0,-1.89964,1.89964,0,161.846041,648.150764)" y1="0.00000591236" x2="255.999997" gradientUnits="userSpaceOnUse" y2="255.999997" id="f91c7a8ac9"><stop style="stop-color:#e2ffe8;stop-opacity:1;" offset="0"/><stop style="stop-color:#e2ffe8;stop-opacity:1;" offset="0.03125"/><stop style="stop-color:#e2fee9;stop-opacity:1;" offset="0.0625"/><stop style="stop-color:#e1fdea;stop-opacity:1;" offset="0.09375"/><stop style="stop-color:#e1fceb;stop-opacity:1;" offset="0.125"/><stop style="stop-color:#e1fceb;stop-opacity:1;" offset="0.15625"/><stop style="stop-color:#e1fbec;stop-opacity:1;" offset="0.1875"/><stop style="stop-color:#e0faed;stop-opacity:1;" offset="0.21875"/><stop style="stop-color:#e0f9ed;stop-opacity:1;" offset="0.25"/><stop style="stop-color:#e0f9ee;stop-opacity:1;" offset="0.28125"/><stop style="stop-color:#e0f8ef;stop-opacity:1;" offset="0.3125"/><stop style="stop-color:#dff7f0;stop-opacity:1;" offset="0.34375"/><stop style="stop-color:#dff6f0;stop-opacity:1;" offset="0.375"/><stop style="stop-color:#dff6f1;stop-opacity:1;" offset="0.40625"/><stop style="stop-color:#dff5f2;stop-opacity:1;" offset="0.4375"/><stop style="stop-color:#def4f2;stop-opacity:1;" offset="0.46875"/><stop style="stop-color:#def3f3;stop-opacity:1;" offset="0.5"/><stop style="stop-color:#def3f4;stop-opacity:1;" offset="0.5"/><stop style="stop-color:#def3f4;stop-opacity:1;" offset="0.5"/><stop style="stop-color:#def2f4;stop-opacity:1;" offset="0.53125"/><stop style="stop-color:#def2f5;stop-opacity:1;" offset="0.5625"/><stop style="stop-color:#ddf1f5;stop-opacity:1;" offset="0.59375"/><stop style="stop-color:#ddf0f6;stop-opacity:1;" offset="0.625"/><stop style="stop-color:#ddf0f7;stop-opacity:1;" offset="0.65625"/><stop style="stop-color:#ddeff7;stop-opacity:1;" offset="0.6875"/><stop style="stop-color:#dceef8;stop-opacity:1;" offset="0.71875"/><stop style="stop-color:#dcedf9;stop-opacity:1;" offset="0.75"/><stop style="stop-color:#dcedfa;stop-opacity:1;" offset="0.78125"/><stop style="stop-color:#dcecfa;stop-opacity:1;" offset="0.8125"/><stop style="stop-color:#dbebfb;stop-opacity:1;" offset="0.84375"/><stop style="stop-color:#dbeafc;stop-opacity:1;" offset="0.875"/><stop style="stop-color:#dbeafc;stop-opacity:1;" offset="0.90625"/><stop style="stop-color:#dbe9fd;stop-opacity:1;" offset="0.9375"/><stop style="stop-color:#dae8fe;stop-opacity:1;" offset="0.96875"/><stop style="stop-color:#dae7ff;stop-opacity:1;" offset="1"/></linearGradient><clipPath id="010b39d8a7"><path d="M 456.757812 233.675781 L 527.273438 233.675781 L 527.273438 304.195312 L 456.757812 304.195312 Z M 456.757812 233.675781 "/></clipPath><clipPath id="20e9680162"><path d="M 492.015625 233.675781 C 472.542969 233.675781 456.757812 249.464844 456.757812 268.9375 C 456.757812 288.410156 472.542969 304.195312 492.015625 304.195312 C 511.488281 304.195312 527.273438 288.410156 527.273438 268.9375 C 527.273438 249.464844 511.488281 233.675781 492.015625 233.675781 Z M 492.015625 233.675781 "/></clipPath><clipPath id="1e186e0322"><path d="M 421.496094 188.574219 L 456.757812 188.574219 L 456.757812 223.832031 L 421.496094 223.832031 Z M 421.496094 188.574219 "/></clipPath><clipPath id="eaf9927539"><path d="M 439.128906 188.574219 C 429.390625 188.574219 421.496094 196.46875 421.496094 206.203125 C 421.496094 215.941406 429.390625 223.832031 439.128906 223.832031 C 448.863281 223.832031 456.757812 215.941406 456.757812 206.203125 C 456.757812 196.46875 448.863281 188.574219 439.128906 188.574219 Z M 439.128906 188.574219 "/></clipPath></defs><g id="f93bc2b634"><g clip-rule="nonzero" clip-path="url(#711e9343ad)"><g clip-rule="nonzero" clip-path="url(#cc2902f7c8)"><path style=" stroke:none;fill-rule:nonzero;fill:url(#f91c7a8ac9);" d="M 161.847656 648.152344 L 648.152344 648.152344 L 648.152344 161.84375 L 161.847656 161.84375 Z M 161.847656 648.152344 "/></g></g><g style="fill:#5ce1e6;fill-opacity:0.4;"><g transform="translate(98.850951, 497.195649)"><path style="stroke:none" d="M 4.546875 0 C 7.128906 -2.269531 9.101562 -6.171875 10.46875 -11.703125 C 11.832031 -17.242188 12.515625 -22.820312 12.515625 -28.4375 L 12.515625 -191.09375 C 12.515625 -196.851562 11.832031 -202.460938 10.46875 -207.921875 C 9.101562 -213.378906 7.128906 -217.242188 4.546875 -219.515625 L 85.765625 -219.515625 C 105.171875 -219.515625 121.695312 -216.066406 135.34375 -209.171875 C 149 -202.273438 159.46875 -192.757812 166.75 -180.625 C 174.03125 -168.488281 177.671875 -154.613281 177.671875 -139 C 177.671875 -127.769531 175.773438 -117.113281 171.984375 -107.03125 C 168.191406 -96.945312 162.84375 -88.035156 155.9375 -80.296875 C 149.039062 -72.566406 140.8125 -66.460938 131.25 -61.984375 C 121.695312 -57.515625 111.082031 -55.28125 99.40625 -55.28125 C 97.28125 -55.28125 95.15625 -55.582031 93.03125 -56.1875 C 90.914062 -56.789062 89.175781 -57.472656 87.8125 -58.234375 L 63.703125 -113.515625 L 63.703125 -28.203125 C 63.703125 -22.597656 64.382812 -17.0625 65.75 -11.59375 C 67.113281 -6.132812 69.082031 -2.269531 71.65625 0 Z M 89.625 -176.296875 L 63.703125 -176.296875 L 63.703125 -122.15625 C 67.035156 -114.726562 70.972656 -108.96875 75.515625 -104.875 C 80.066406 -100.78125 86.363281 -98.734375 94.40625 -98.734375 C 101.832031 -98.734375 107.894531 -100.585938 112.59375 -104.296875 C 117.300781 -108.015625 120.789062 -112.941406 123.0625 -119.078125 C 125.34375 -125.222656 126.484375 -131.863281 126.484375 -139 C 126.484375 -145.363281 125.15625 -151.390625 122.5 -157.078125 C 119.84375 -162.765625 115.785156 -167.390625 110.328125 -170.953125 C 104.867188 -174.515625 97.96875 -176.296875 89.625 -176.296875 Z M 89.625 -176.296875 "/></g></g><g style="fill:#5ce1e6;fill-opacity:0.4;"><g transform="translate(260.816628, 497.195649)"><path style="stroke:none" d="M 85.53125 3.40625 C 72.1875 3.40625 60.546875 1.207031 50.609375 -3.1875 C 40.679688 -7.582031 32.492188 -13.609375 26.046875 -21.265625 C 19.597656 -28.921875 14.78125 -37.753906 11.59375 -47.765625 C 8.414062 -57.773438 6.828125 -68.394531 6.828125 -79.625 C 6.828125 -90.84375 8.492188 -101.457031 11.828125 -111.46875 C 15.160156 -121.476562 20.203125 -130.3125 26.953125 -137.96875 C 33.703125 -145.625 42.117188 -151.648438 52.203125 -156.046875 C 62.285156 -160.453125 74.15625 -162.65625 87.8125 -162.65625 C 99.332031 -162.65625 109.414062 -160.265625 118.0625 -155.484375 C 126.707031 -150.703125 133.414062 -144.554688 138.1875 -137.046875 C 142.96875 -129.546875 145.359375 -121.78125 145.359375 -113.75 C 145.359375 -106.164062 143.347656 -98.804688 139.328125 -91.671875 C 135.316406 -84.546875 128.722656 -78.742188 119.546875 -74.265625 C 110.367188 -69.796875 97.96875 -67.5625 82.34375 -67.5625 L 55.734375 -67.5625 C 57.554688 -59.519531 61.195312 -53.222656 66.65625 -48.671875 C 72.113281 -44.128906 79.085938 -41.859375 87.578125 -41.859375 C 93.191406 -41.859375 98.007812 -42.992188 102.03125 -45.265625 C 106.050781 -47.546875 109.382812 -50.160156 112.03125 -53.109375 C 114.6875 -56.066406 116.546875 -58.535156 117.609375 -60.515625 C 121.398438 -54.597656 125.875 -48.867188 131.03125 -43.328125 C 136.1875 -37.796875 141.113281 -32.90625 145.8125 -28.65625 C 139.144531 -18.039062 130.390625 -10.039062 119.546875 -4.65625 C 108.703125 0.71875 97.363281 3.40625 85.53125 3.40625 Z M 55.28125 -70.0625 C 62.5625 -71.425781 69.613281 -73.8125 76.4375 -77.21875 C 83.257812 -80.632812 88.90625 -84.921875 93.375 -90.078125 C 97.851562 -95.234375 100.09375 -101.070312 100.09375 -107.59375 C 100.09375 -110.632812 99.03125 -113.59375 96.90625 -116.46875 C 94.78125 -119.351562 91.289062 -120.796875 86.4375 -120.796875 C 82.039062 -120.796875 77.378906 -119.238281 72.453125 -116.125 C 67.523438 -113.019531 63.316406 -108.394531 59.828125 -102.25 C 56.335938 -96.113281 54.59375 -88.570312 54.59375 -79.625 C 54.59375 -76.28125 54.820312 -73.09375 55.28125 -70.0625 Z M 55.28125 -70.0625 "/></g></g><g style="fill:#5ce1e6;fill-opacity:0.4;"><g transform="translate(390.934941, 497.195649)"><path style="stroke:none" d="M 2.28125 -136.71875 C 9.40625 -145.207031 17.972656 -151.648438 27.984375 -156.046875 C 37.992188 -160.453125 49.441406 -162.65625 62.328125 -162.65625 C 73.242188 -162.65625 83.671875 -161.210938 93.609375 -158.328125 C 103.546875 -155.441406 112.378906 -151.117188 120.109375 -145.359375 C 127.847656 -139.597656 133.988281 -132.507812 138.53125 -124.09375 C 143.082031 -115.675781 145.359375 -105.859375 145.359375 -94.640625 L 145.359375 -48.90625 C 145.359375 -44.664062 145.738281 -40.421875 146.5 -36.171875 C 147.257812 -31.921875 148.890625 -28.394531 151.390625 -25.59375 C 153.890625 -22.789062 157.867188 -21.390625 163.328125 -21.390625 L 163.328125 -20.25 C 158.929688 -17.96875 154.304688 -15.460938 149.453125 -12.734375 C 144.597656 -10.003906 139.929688 -7.425781 135.453125 -5 C 130.984375 -2.570312 127.039062 -0.566406 123.625 1.015625 C 120.21875 2.609375 117.832031 3.40625 116.46875 3.40625 C 112.675781 3.40625 109.453125 1.816406 106.796875 -1.359375 C 104.148438 -4.546875 102.144531 -8.523438 100.78125 -13.296875 C 99.414062 -18.078125 98.734375 -22.742188 98.734375 -27.296875 L 98.734375 -51.40625 C 95.847656 -46.863281 92.625 -41.859375 89.0625 -36.390625 C 85.5 -30.929688 82.085938 -25.625 78.828125 -20.46875 C 75.566406 -15.3125 72.796875 -10.988281 70.515625 -7.5 C 69.453125 -5.6875 66.644531 -3.414062 62.09375 -0.6875 C 57.550781 2.039062 52.171875 3.40625 45.953125 3.40625 C 36.546875 3.40625 28.882812 1.507812 22.96875 -2.28125 C 17.0625 -6.070312 12.78125 -11.113281 10.125 -17.40625 C 7.46875 -23.695312 6.140625 -30.707031 6.140625 -38.4375 C 6.140625 -46.476562 7.992188 -53.945312 11.703125 -60.84375 C 15.421875 -67.75 20.460938 -73.816406 26.828125 -79.046875 C 33.203125 -84.285156 40.410156 -88.378906 48.453125 -91.328125 C 56.492188 -94.285156 64.910156 -95.765625 73.703125 -95.765625 C 82.648438 -95.765625 90.613281 -94.175781 97.59375 -91 C 95.625 -99.945312 91.566406 -106.957031 85.421875 -112.03125 C 79.273438 -117.113281 71.726562 -119.65625 62.78125 -119.65625 C 54.59375 -119.65625 47.273438 -118.140625 40.828125 -115.109375 C 34.390625 -112.078125 29.046875 -107.300781 24.796875 -100.78125 C 21.160156 -107.90625 17.597656 -114.160156 14.109375 -119.546875 C 10.617188 -124.929688 6.675781 -130.65625 2.28125 -136.71875 Z M 54.59375 -55.96875 C 54.59375 -52.320312 55.804688 -48.90625 58.234375 -45.71875 C 60.660156 -42.539062 64.90625 -40.953125 70.96875 -40.953125 C 76.28125 -40.953125 81.398438 -42.617188 86.328125 -45.953125 C 91.253906 -49.285156 95.390625 -53.832031 98.734375 -59.59375 L 98.734375 -79.84375 C 98.734375 -81.0625 98.691406 -82.3125 98.609375 -83.59375 C 98.535156 -84.882812 98.421875 -86.0625 98.265625 -87.125 C 96.898438 -87.882812 95.421875 -88.453125 93.828125 -88.828125 C 92.242188 -89.210938 90.539062 -89.40625 88.71875 -89.40625 C 82.351562 -89.40625 76.59375 -87.582031 71.4375 -83.9375 C 66.28125 -80.300781 62.179688 -75.90625 59.140625 -70.75 C 56.109375 -65.59375 54.59375 -60.664062 54.59375 -55.96875 Z M 54.59375 -55.96875 "/></g></g><g style="fill:#5ce1e6;fill-opacity:0.4;"><g transform="translate(527.195294, 497.195649)"><path style="stroke:none" d="M -9.09375 -137.171875 C -3.488281 -137.472656 2.535156 -138.492188 8.984375 -140.234375 C 15.429688 -141.984375 21.800781 -144.1875 28.09375 -146.84375 C 34.382812 -149.5 40.296875 -152.226562 45.828125 -155.03125 C 51.367188 -157.832031 56.035156 -160.375 59.828125 -162.65625 L 59.828125 -118.0625 C 60.890625 -123.070312 62.59375 -128.191406 64.9375 -133.421875 C 67.289062 -138.648438 70.25 -143.460938 73.8125 -147.859375 C 77.382812 -152.265625 81.59375 -155.832031 86.4375 -158.5625 C 91.289062 -161.289062 96.675781 -162.65625 102.59375 -162.65625 C 107.144531 -162.65625 111.582031 -161.78125 115.90625 -160.03125 C 120.226562 -158.289062 123.144531 -156.4375 124.65625 -154.46875 C 122.539062 -147.488281 120.492188 -139.976562 118.515625 -131.9375 C 116.546875 -123.90625 114.957031 -116.097656 113.75 -108.515625 C 111.925781 -111.691406 108.207031 -114.457031 102.59375 -116.8125 C 96.976562 -119.164062 91.21875 -120.34375 85.3125 -120.34375 C 68.320312 -120.34375 59.828125 -113.894531 59.828125 -101 L 59.828125 -28.4375 C 59.828125 -22.820312 60.507812 -17.242188 61.875 -11.703125 C 63.238281 -6.171875 65.210938 -2.269531 67.796875 0 L 5.234375 0 C 7.804688 -2.269531 9.773438 -6.132812 11.140625 -11.59375 C 12.503906 -17.0625 13.1875 -22.597656 13.1875 -28.203125 L 13.1875 -103.5 C 13.1875 -105.164062 13.035156 -107.742188 12.734375 -111.234375 C 12.429688 -114.722656 11.597656 -118.363281 10.234375 -122.15625 C 8.867188 -125.945312 6.671875 -129.207031 3.640625 -131.9375 C 0.609375 -134.664062 -3.632812 -136.03125 -9.09375 -136.03125 Z M -9.09375 -137.171875 "/></g></g><g style="fill:#5ce1e6;fill-opacity:0.4;"><g transform="translate(631.608006, 497.195649)"><path style="stroke:none" d="M 10.921875 -171.515625 C 10.921875 -173.191406 10.769531 -175.769531 10.46875 -179.25 C 10.164062 -182.738281 9.332031 -186.378906 7.96875 -190.171875 C 6.601562 -193.960938 4.398438 -197.222656 1.359375 -199.953125 C -1.671875 -202.679688 -5.914062 -204.046875 -11.375 -204.046875 L -11.375 -205.1875 C -5.757812 -205.488281 0.265625 -206.507812 6.703125 -208.25 C 13.148438 -210 19.519531 -212.203125 25.8125 -214.859375 C 32.113281 -217.515625 38.03125 -220.242188 43.5625 -223.046875 C 49.09375 -225.847656 53.753906 -228.390625 57.546875 -230.671875 L 57.546875 -64.15625 C 57.546875 -53.84375 59.0625 -46.941406 62.09375 -43.453125 C 65.132812 -39.960938 69.457031 -38.21875 75.0625 -38.21875 C 78.550781 -38.21875 81.660156 -38.898438 84.390625 -40.265625 C 87.117188 -41.628906 89.546875 -43.523438 91.671875 -45.953125 C 92.429688 -39.128906 93.644531 -32.53125 95.3125 -26.15625 C 96.976562 -19.789062 98.421875 -14.03125 99.640625 -8.875 C 95.847656 -5.226562 90.539062 -2.269531 83.71875 0 C 76.894531 2.269531 69.84375 3.40625 62.5625 3.40625 C 45.570312 3.40625 32.753906 -1.554688 24.109375 -11.484375 C 15.460938 -21.421875 11.140625 -35.5625 11.140625 -53.90625 C 11.140625 -53.90625 11.140625 -55.914062 11.140625 -59.9375 C 11.140625 -63.957031 11.140625 -69.300781 11.140625 -75.96875 C 11.140625 -82.644531 11.140625 -90.039062 11.140625 -98.15625 C 11.140625 -106.269531 11.101562 -114.421875 11.03125 -122.609375 C 10.957031 -130.796875 10.921875 -138.414062 10.921875 -145.46875 C 10.921875 -152.519531 10.921875 -158.394531 10.921875 -163.09375 C 10.921875 -167.800781 10.921875 -170.609375 10.921875 -171.515625 Z M 10.921875 -171.515625 "/></g></g><g style="fill:#b4b4b4;fill-opacity:1;"><g transform="translate(88.797222, 487.141929)"><path style="stroke:none" d="M 4.546875 0 C 7.128906 -2.269531 9.101562 -6.171875 10.46875 -11.703125 C 11.832031 -17.242188 12.515625 -22.820312 12.515625 -28.4375 L 12.515625 -191.09375 C 12.515625 -196.851562 11.832031 -202.460938 10.46875 -207.921875 C 9.101562 -213.378906 7.128906 -217.242188 4.546875 -219.515625 L 85.765625 -219.515625 C 105.171875 -219.515625 121.695312 -216.066406 135.34375 -209.171875 C 149 -202.273438 159.46875 -192.757812 166.75 -180.625 C 174.03125 -168.488281 177.671875 -154.613281 177.671875 -139 C 177.671875 -127.769531 175.773438 -117.113281 171.984375 -107.03125 C 168.191406 -96.945312 162.84375 -88.035156 155.9375 -80.296875 C 149.039062 -72.566406 140.8125 -66.460938 131.25 -61.984375 C 121.695312 -57.515625 111.082031 -55.28125 99.40625 -55.28125 C 97.28125 -55.28125 95.15625 -55.582031 93.03125 -56.1875 C 90.914062 -56.789062 89.175781 -57.472656 87.8125 -58.234375 L 63.703125 -113.515625 L 63.703125 -28.203125 C 63.703125 -22.597656 64.382812 -17.0625 65.75 -11.59375 C 67.113281 -6.132812 69.082031 -2.269531 71.65625 0 Z M 89.625 -176.296875 L 63.703125 -176.296875 L 63.703125 -122.15625 C 67.035156 -114.726562 70.972656 -108.96875 75.515625 -104.875 C 80.066406 -100.78125 86.363281 -98.734375 94.40625 -98.734375 C 101.832031 -98.734375 107.894531 -100.585938 112.59375 -104.296875 C 117.300781 -108.015625 120.789062 -112.941406 123.0625 -119.078125 C 125.34375 -125.222656 126.484375 -131.863281 126.484375 -139 C 126.484375 -145.363281 125.15625 -151.390625 122.5 -157.078125 C 119.84375 -162.765625 115.785156 -167.390625 110.328125 -170.953125 C 104.867188 -174.515625 97.96875 -176.296875 89.625 -176.296875 Z M 89.625 -176.296875 "/></g></g><g style="fill:#b4b4b4;fill-opacity:1;"><g transform="translate(250.762899, 487.141929)"><path style="stroke:none" d="M 85.53125 3.40625 C 72.1875 3.40625 60.546875 1.207031 50.609375 -3.1875 C 40.679688 -7.582031 32.492188 -13.609375 26.046875 -21.265625 C 19.597656 -28.921875 14.78125 -37.753906 11.59375 -47.765625 C 8.414062 -57.773438 6.828125 -68.394531 6.828125 -79.625 C 6.828125 -90.84375 8.492188 -101.457031 11.828125 -111.46875 C 15.160156 -121.476562 20.203125 -130.3125 26.953125 -137.96875 C 33.703125 -145.625 42.117188 -151.648438 52.203125 -156.046875 C 62.285156 -160.453125 74.15625 -162.65625 87.8125 -162.65625 C 99.332031 -162.65625 109.414062 -160.265625 118.0625 -155.484375 C 126.707031 -150.703125 133.414062 -144.554688 138.1875 -137.046875 C 142.96875 -129.546875 145.359375 -121.78125 145.359375 -113.75 C 145.359375 -106.164062 143.347656 -98.804688 139.328125 -91.671875 C 135.316406 -84.546875 128.722656 -78.742188 119.546875 -74.265625 C 110.367188 -69.796875 97.96875 -67.5625 82.34375 -67.5625 L 55.734375 -67.5625 C 57.554688 -59.519531 61.195312 -53.222656 66.65625 -48.671875 C 72.113281 -44.128906 79.085938 -41.859375 87.578125 -41.859375 C 93.191406 -41.859375 98.007812 -42.992188 102.03125 -45.265625 C 106.050781 -47.546875 109.382812 -50.160156 112.03125 -53.109375 C 114.6875 -56.066406 116.546875 -58.535156 117.609375 -60.515625 C 121.398438 -54.597656 125.875 -48.867188 131.03125 -43.328125 C 136.1875 -37.796875 141.113281 -32.90625 145.8125 -28.65625 C 139.144531 -18.039062 130.390625 -10.039062 119.546875 -4.65625 C 108.703125 0.71875 97.363281 3.40625 85.53125 3.40625 Z M 55.28125 -70.0625 C 62.5625 -71.425781 69.613281 -73.8125 76.4375 -77.21875 C 83.257812 -80.632812 88.90625 -84.921875 93.375 -90.078125 C 97.851562 -95.234375 100.09375 -101.070312 100.09375 -107.59375 C 100.09375 -110.632812 99.03125 -113.59375 96.90625 -116.46875 C 94.78125 -119.351562 91.289062 -120.796875 86.4375 -120.796875 C 82.039062 -120.796875 77.378906 -119.238281 72.453125 -116.125 C 67.523438 -113.019531 63.316406 -108.394531 59.828125 -102.25 C 56.335938 -96.113281 54.59375 -88.570312 54.59375 -79.625 C 54.59375 -76.28125 54.820312 -73.09375 55.28125 -70.0625 Z M 55.28125 -70.0625 "/></g></g><g style="fill:#b4b4b4;fill-opacity:1;"><g transform="translate(380.881212, 487.141929)"><path style="stroke:none" d="M 2.28125 -136.71875 C 9.40625 -145.207031 17.972656 -151.648438 27.984375 -156.046875 C 37.992188 -160.453125 49.441406 -162.65625 62.328125 -162.65625 C 73.242188 -162.65625 83.671875 -161.210938 93.609375 -158.328125 C 103.546875 -155.441406 112.378906 -151.117188 120.109375 -145.359375 C 127.847656 -139.597656 133.988281 -132.507812 138.53125 -124.09375 C 143.082031 -115.675781 145.359375 -105.859375 145.359375 -94.640625 L 145.359375 -48.90625 C 145.359375 -44.664062 145.738281 -40.421875 146.5 -36.171875 C 147.257812 -31.921875 148.890625 -28.394531 151.390625 -25.59375 C 153.890625 -22.789062 157.867188 -21.390625 163.328125 -21.390625 L 163.328125 -20.25 C 158.929688 -17.96875 154.304688 -15.460938 149.453125 -12.734375 C 144.597656 -10.003906 139.929688 -7.425781 135.453125 -5 C 130.984375 -2.570312 127.039062 -0.566406 123.625 1.015625 C 120.21875 2.609375 117.832031 3.40625 116.46875 3.40625 C 112.675781 3.40625 109.453125 1.816406 106.796875 -1.359375 C 104.148438 -4.546875 102.144531 -8.523438 100.78125 -13.296875 C 99.414062 -18.078125 98.734375 -22.742188 98.734375 -27.296875 L 98.734375 -51.40625 C 95.847656 -46.863281 92.625 -41.859375 89.0625 -36.390625 C 85.5 -30.929688 82.085938 -25.625 78.828125 -20.46875 C 75.566406 -15.3125 72.796875 -10.988281 70.515625 -7.5 C 69.453125 -5.6875 66.644531 -3.414062 62.09375 -0.6875 C 57.550781 2.039062 52.171875 3.40625 45.953125 3.40625 C 36.546875 3.40625 28.882812 1.507812 22.96875 -2.28125 C 17.0625 -6.070312 12.78125 -11.113281 10.125 -17.40625 C 7.46875 -23.695312 6.140625 -30.707031 6.140625 -38.4375 C 6.140625 -46.476562 7.992188 -53.945312 11.703125 -60.84375 C 15.421875 -67.75 20.460938 -73.816406 26.828125 -79.046875 C 33.203125 -84.285156 40.410156 -88.378906 48.453125 -91.328125 C 56.492188 -94.285156 64.910156 -95.765625 73.703125 -95.765625 C 82.648438 -95.765625 90.613281 -94.175781 97.59375 -91 C 95.625 -99.945312 91.566406 -106.957031 85.421875 -112.03125 C 79.273438 -117.113281 71.726562 -119.65625 62.78125 -119.65625 C 54.59375 -119.65625 47.273438 -118.140625 40.828125 -115.109375 C 34.390625 -112.078125 29.046875 -107.300781 24.796875 -100.78125 C 21.160156 -107.90625 17.597656 -114.160156 14.109375 -119.546875 C 10.617188 -124.929688 6.675781 -130.65625 2.28125 -136.71875 Z M 54.59375 -55.96875 C 54.59375 -52.320312 55.804688 -48.90625 58.234375 -45.71875 C 60.660156 -42.539062 64.90625 -40.953125 70.96875 -40.953125 C 76.28125 -40.953125 81.398438 -42.617188 86.328125 -45.953125 C 91.253906 -49.285156 95.390625 -53.832031 98.734375 -59.59375 L 98.734375 -79.84375 C 98.734375 -81.0625 98.691406 -82.3125 98.609375 -83.59375 C 98.535156 -84.882812 98.421875 -86.0625 98.265625 -87.125 C 96.898438 -87.882812 95.421875 -88.453125 93.828125 -88.828125 C 92.242188 -89.210938 90.539062 -89.40625 88.71875 -89.40625 C 82.351562 -89.40625 76.59375 -87.582031 71.4375 -83.9375 C 66.28125 -80.300781 62.179688 -75.90625 59.140625 -70.75 C 56.109375 -65.59375 54.59375 -60.664062 54.59375 -55.96875 Z M 54.59375 -55.96875 "/></g></g><g style="fill:#b4b4b4;fill-opacity:1;"><g transform="translate(517.141565, 487.141929)"><path style="stroke:none" d="M -9.09375 -137.171875 C -3.488281 -137.472656 2.535156 -138.492188 8.984375 -140.234375 C 15.429688 -141.984375 21.800781 -144.1875 28.09375 -146.84375 C 34.382812 -149.5 40.296875 -152.226562 45.828125 -155.03125 C 51.367188 -157.832031 56.035156 -160.375 59.828125 -162.65625 L 59.828125 -118.0625 C 60.890625 -123.070312 62.59375 -128.191406 64.9375 -133.421875 C 67.289062 -138.648438 70.25 -143.460938 73.8125 -147.859375 C 77.382812 -152.265625 81.59375 -155.832031 86.4375 -158.5625 C 91.289062 -161.289062 96.675781 -162.65625 102.59375 -162.65625 C 107.144531 -162.65625 111.582031 -161.78125 115.90625 -160.03125 C 120.226562 -158.289062 123.144531 -156.4375 124.65625 -154.46875 C 122.539062 -147.488281 120.492188 -139.976562 118.515625 -131.9375 C 116.546875 -123.90625 114.957031 -116.097656 113.75 -108.515625 C 111.925781 -111.691406 108.207031 -114.457031 102.59375 -116.8125 C 96.976562 -119.164062 91.21875 -120.34375 85.3125 -120.34375 C 68.320312 -120.34375 59.828125 -113.894531 59.828125 -101 L 59.828125 -28.4375 C 59.828125 -22.820312 60.507812 -17.242188 61.875 -11.703125 C 63.238281 -6.171875 65.210938 -2.269531 67.796875 0 L 5.234375 0 C 7.804688 -2.269531 9.773438 -6.132812 11.140625 -11.59375 C 12.503906 -17.0625 13.1875 -22.597656 13.1875 -28.203125 L 13.1875 -103.5 C 13.1875 -105.164062 13.035156 -107.742188 12.734375 -111.234375 C 12.429688 -114.722656 11.597656 -118.363281 10.234375 -122.15625 C 8.867188 -125.945312 6.671875 -129.207031 3.640625 -131.9375 C 0.609375 -134.664062 -3.632812 -136.03125 -9.09375 -136.03125 Z M -9.09375 -137.171875 "/></g></g><g style="fill:#b4b4b4;fill-opacity:1;"><g transform="translate(621.554277, 487.141929)"><path style="stroke:none" d="M 10.921875 -171.515625 C 10.921875 -173.191406 10.769531 -175.769531 10.46875 -179.25 C 10.164062 -182.738281 9.332031 -186.378906 7.96875 -190.171875 C 6.601562 -193.960938 4.398438 -197.222656 1.359375 -199.953125 C -1.671875 -202.679688 -5.914062 -204.046875 -11.375 -204.046875 L -11.375 -205.1875 C -5.757812 -205.488281 0.265625 -206.507812 6.703125 -208.25 C 13.148438 -210 19.519531 -212.203125 25.8125 -214.859375 C 32.113281 -217.515625 38.03125 -220.242188 43.5625 -223.046875 C 49.09375 -225.847656 53.753906 -228.390625 57.546875 -230.671875 L 57.546875 -64.15625 C 57.546875 -53.84375 59.0625 -46.941406 62.09375 -43.453125 C 65.132812 -39.960938 69.457031 -38.21875 75.0625 -38.21875 C 78.550781 -38.21875 81.660156 -38.898438 84.390625 -40.265625 C 87.117188 -41.628906 89.546875 -43.523438 91.671875 -45.953125 C 92.429688 -39.128906 93.644531 -32.53125 95.3125 -26.15625 C 96.976562 -19.789062 98.421875 -14.03125 99.640625 -8.875 C 95.847656 -5.226562 90.539062 -2.269531 83.71875 0 C 76.894531 2.269531 69.84375 3.40625 62.5625 3.40625 C 45.570312 3.40625 32.753906 -1.554688 24.109375 -11.484375 C 15.460938 -21.421875 11.140625 -35.5625 11.140625 -53.90625 C 11.140625 -53.90625 11.140625 -55.914062 11.140625 -59.9375 C 11.140625 -63.957031 11.140625 -69.300781 11.140625 -75.96875 C 11.140625 -82.644531 11.140625 -90.039062 11.140625 -98.15625 C 11.140625 -106.269531 11.101562 -114.421875 11.03125 -122.609375 C 10.957031 -130.796875 10.921875 -138.414062 10.921875 -145.46875 C 10.921875 -152.519531 10.921875 -158.394531 10.921875 -163.09375 C 10.921875 -167.800781 10.921875 -170.609375 10.921875 -171.515625 Z M 10.921875 -171.515625 "/></g></g><g clip-rule="nonzero" clip-path="url(#010b39d8a7)"><g clip-rule="nonzero" clip-path="url(#20e9680162)"><path style=" stroke:none;fill-rule:nonzero;fill:#ffffff;fill-opacity:1;" d="M 456.757812 233.675781 L 527.273438 233.675781 L 527.273438 304.195312 L 456.757812 304.195312 Z M 456.757812 233.675781 "/></g></g><g clip-rule="nonzero" clip-path="url(#1e186e0322)"><g clip-rule="nonzero" clip-path="url(#eaf9927539)"><path style=" stroke:none;fill-rule:nonzero;fill:#ffffff;fill-opacity:1;" d="M 421.496094 188.574219 L 456.757812 188.574219 L 456.757812 223.832031 L 421.496094 223.832031 Z M 421.496094 188.574219 "/></g></g></g></svg>